<?xml version="1.0" encoding="utf-8"?>
<!-- Generator: Adobe Illustrator 16.0.0, SVG Export Plug-In . SVG Version: 6.00 Build 0)  -->
<!DOCTYPE svg PUBLIC "-//W3C//DTD SVG 1.1//EN" "http://www.w3.org/Graphics/SVG/1.1/DTD/svg11.dtd">
<svg version="1.1" id="Layer_1" xmlns="http://www.w3.org/2000/svg" xmlns:xlink="http://www.w3.org/1999/xlink" x="0px" y="0px"
	 width="200px" height="200px" viewBox="0 0 200 200" enable-background="new 0 0 200 200" xml:space="preserve">
<path fill="#FFFFFF" d="M99.999,3.353c-53.374,0-96.646,43.271-96.646,96.646c0,53.376,43.272,96.648,96.646,96.648
	c53.381,0,96.649-43.271,96.649-96.648C196.647,46.624,153.38,3.353,99.999,3.353z M121.182,99.999H107.58v49.25H87.206v-49.25
	H77.02V83.02h10.186V72.832c0-13.847,5.748-22.084,22.081-22.084h13.597v16.976h-8.497c-6.356,0-6.781,2.373-6.781,6.8l-0.025,8.497
	h15.405L121.182,99.999z"/>
</svg>
