<?xml version="1.0" encoding="utf-8"?>
<!-- Generator: Adobe Illustrator 16.0.0, SVG Export Plug-In . SVG Version: 6.00 Build 0)  -->
<!DOCTYPE svg PUBLIC "-//W3C//DTD SVG 1.1//EN" "http://www.w3.org/Graphics/SVG/1.1/DTD/svg11.dtd">
<svg version="1.1" id="Layer_1" xmlns="http://www.w3.org/2000/svg" xmlns:xlink="http://www.w3.org/1999/xlink" x="0px" y="0px"
	 width="100px" height="100px" viewBox="0 0 100 100" enable-background="new 0 0 100 100" xml:space="preserve">
<g>
	<defs>
		<rect id="SVGID_1_" x="2.019" y="2" width="94.981" height="94.992"/>
	</defs>
	<clipPath id="SVGID_2_">
		<use xlink:href="#SVGID_1_"  overflow="visible"/>
	</clipPath>
	<path clip-path="url(#SVGID_2_)" fill="#FFAF3E" d="M28.998,73.742L25.83,77.5l-0.985-0.855l3.272-3.648
		c-0.516-0.48-0.913-0.912-1.417-1.36l0.73-0.731c1.248,1.18,2.346,2.092,3.722,3.201l-0.632,0.805
		C30.019,74.518,29.503,74.141,28.998,73.742 M22.649,64.395l-5.138,3.002c0.186,0.359,0.383,0.781,0.609,1.128l5.148-3.009
		C23.016,65.062,22.876,64.82,22.649,64.395 M25.948,69.187l-2.783,2.405l1.417-4.123c-0.251-0.354-0.367-0.599-0.629-0.924
		l-4.989,3.385c0.222,0.335,0.495,0.646,0.732,0.991l3-2.078l-1.407,4.153c0.245,0.274,0.489,0.695,0.834,0.975l4.616-3.959
		C26.483,69.739,26.174,69.496,25.948,69.187 M32.719,76.559c0.81,0.441,1.603,0.901,2.489,1.32L35.739,77
		c-1.227-0.634-2.38-1.359-3.412-2.076l-3.386,4.971c1.283,0.85,2.458,1.562,3.777,2.322l0.547-0.877l-2.731-1.61l0.921-1.296
		l1.81,1.087l0.525-0.845c-0.581-0.319-1.185-0.688-1.819-1.076L32.719,76.559z M49.469,58.031c-4.679,0-8.504-3.841-8.504-8.51
		c0-4.703,3.825-8.522,8.504-8.522c4.71,0,8.498,3.819,8.498,8.522C57.967,54.212,54.158,58.031,49.469,58.031 M49.574,55.217
		c3.105,0,5.658-2.552,5.658-5.66c0-2.582-1.796-4.828-4.27-5.445c-0.029-0.254-0.099-1.434-0.099-1.434H48.01
		c0,0-0.065,1.282-0.087,1.537c-2.371,0.719-3.968,2.879-3.968,5.342C43.954,52.665,46.505,55.217,49.574,55.217 M37.074,17.385
		v-0.279c-0.031-1.539,1.148-2.808,2.7-2.932c1.639-0.159,3.094,1.045,3.231,2.693v0.238c0,1.538-1.159,2.851-2.736,2.997
		C38.677,20.243,37.214,19.043,37.074,17.385 M38.163,17.28c0.081,1.058,1.019,1.832,2.04,1.744
		c1.005-0.104,1.756-0.908,1.756-1.919c0.037-0.05,0-0.107,0-0.175c-0.088-1.065-1.005-1.812-2.066-1.711
		c-1.008,0.074-1.768,0.874-1.73,1.886V17.28z M50.551,18.751c-0.5-0.006-0.732-0.006-1.221-0.006l1.482-3.077l1.346-2.795
		l1.335,0.139l0.701,2.656l0.969,3.572c-0.447-0.084-0.798-0.151-1.221-0.176l-0.345-1.118c-0.882-0.138-1.68-0.179-2.496-0.215
		L50.551,18.751z M51.541,16.725c0.648,0.031,1.252,0.104,1.859,0.19l-0.318-1.247l-0.402-1.282l-0.604,1.282L51.541,16.725z
		 M45.612,14.07l0.528,4.871l1.278-0.133l-0.501-4.836l1.935-0.12l-0.073-1.086c-2.16,0.125-3.051,0.213-5.191,0.531l0.144,1.031
		L45.612,14.07z M45.814,80.021l-0.432,3.636l-1.747-3.987c-0.411-0.079-0.666-0.186-1.078-0.251l-1.37,5.88
		c0.422,0.114,0.829,0.159,1.268,0.234l0.733-3.61l1.771,4.023c0.401,0.062,0.855,0.188,1.325,0.175l0.654-6.074
		C46.594,80.028,46.187,80.084,45.814,80.021 M80.354,67.396l-4.368-2.406l-0.558,1.007l5.241,2.925l2.021-3.619l-0.903-0.482
		L80.354,67.396z M73.769,68.275l5.948,1.953c-0.142,0.177-0.253,0.347-0.377,0.523c-0.104,0.134-0.227,0.27-0.31,0.443
		l-1.043-0.375l-1.622,2.029l0.593,0.928c-0.243,0.275-0.515,0.574-0.825,0.879l-2.355-3.904l-0.869-1.438L73.769,68.275z
		 M74.445,69.638l0.704,1.114l0.644,1.124l0.871-1.124l0.227-0.279L74.445,69.638z M68.193,77.586
		c0.255,0.445,0.381,0.961,0.398,1.487c0,0.411-0.085,0.833-0.256,1.216c-0.277,0.553-0.691,1.051-1.262,1.381
		c-1.398,0.816-3.205,0.329-4.052-1.107c-0.031-0.082-0.066-0.174-0.123-0.273c-0.171-0.383-0.254-0.805-0.289-1.216
		c0.035-1.058,0.55-2.034,1.499-2.583C65.526,75.687,67.358,76.167,68.193,77.586 M67.521,79.073c0-0.357-0.093-0.678-0.262-0.986
		c-0.495-0.923-1.67-1.22-2.588-0.694c-0.646,0.346-0.973,1.003-0.973,1.681c0.02,0.31,0.092,0.656,0.277,0.948
		c0.05,0.093,0.113,0.188,0.205,0.289c0.574,0.686,1.586,0.845,2.367,0.393c0.216-0.106,0.385-0.246,0.525-0.393
		C67.358,79.963,67.521,79.5,67.521,79.073 M70.393,71.969l2.473,2.667l-4.153-1.226c-0.345,0.263-0.577,0.354-0.88,0.622
		l3.611,4.856c0.309-0.24,0.629-0.532,0.917-0.779l-2.193-2.922l4.194,1.264c0.288-0.25,0.699-0.533,0.983-0.887l-4.184-4.425
		C70.939,71.382,70.68,71.701,70.393,71.969 M97,49.557c0,0.554-0.026,1.11-0.088,1.555l-0.016,0.119l-0.127,0.066
		c-2.021,1.201-4.629,1.886-7.248,1.957c-0.061,0.332-0.344,2.695-0.393,3.027c2.44,0.704,4.805,2.038,6.455,3.742l0.066,0.105
		v0.107c-0.129,0.932-0.459,2.18-0.824,2.99l-0.043,0.127l-0.119,0.02c-2.287,0.659-4.983,0.635-7.477,0.018
		c-0.119,0.309-1.041,2.505-1.133,2.825c2.185,1.381,4.117,3.28,5.205,5.307l0.057,0.113l-0.037,0.118
		c-0.34,0.807-0.979,1.975-1.551,2.676l-0.061,0.105h-0.146c-2.334,0.027-4.941-0.666-7.221-1.935
		c-0.205,0.271-1.725,2.281-1.931,2.552c1.792,1.848,3.153,4.189,3.706,6.5l0.035,0.119l-0.068,0.084
		c-0.52,0.707-1.477,1.645-2.174,2.207l-0.083,0.07l-0.171-0.035c-2.246-0.598-4.621-1.957-6.466-3.74
		c-0.273,0.205-2.158,1.678-2.438,1.887c1.206,2.209,1.938,4.751,1.938,7.049v0.318l-0.14,0.079
		c-0.695,0.561-1.85,1.229-2.674,1.566l-0.084,0.034l-0.137-0.045c-2.021-1.176-3.959-3.098-5.285-5.3
		c-0.318,0.142-2.611,1.122-2.927,1.26c0.315,1.227,0.501,2.511,0.537,3.778c0,1.28-0.222,2.562-0.537,3.719l-0.015,0.114
		l-0.124,0.065c-0.767,0.321-2.062,0.641-2.964,0.799l-0.141,0.02l-0.075-0.098c-1.741-1.656-3.076-4.014-3.778-6.474
		c-0.309,0.021-2.686,0.345-3.019,0.414c-0.042,2.581-0.751,5.198-1.979,7.229l-0.066,0.106l-0.141,0.019
		c-0.823,0.126-2.146,0.126-3.045,0l-0.112-0.019l-0.08-0.106c-1.19-2.03-1.901-4.647-1.957-7.229
		c-0.357-0.034-2.86-0.393-3.207-0.414c-0.686,2.446-2.029,4.788-3.726,6.466l-0.09,0.086l-0.141-0.021
		c-0.928-0.137-2.149-0.494-2.969-0.834l-0.098-0.046l-0.041-0.104c-0.344-1.154-0.524-2.447-0.524-3.729
		c0-1.257,0.18-2.515,0.498-3.741c-0.318-0.138-2.483-1.015-2.798-1.155c-1.338,2.238-3.273,4.185-5.314,5.32l-0.108,0.061
		l-0.128-0.035c-0.845-0.378-1.958-1.017-2.68-1.557l-0.088-0.088V89.51c0-2.326,0.709-4.886,1.922-7.126
		c-0.269-0.208-2.289-1.743-2.566-1.949c-1.85,1.782-4.206,3.126-6.484,3.709l-0.117,0.036l-0.124-0.082
		c-0.697-0.561-1.592-1.465-2.154-2.175L14.894,81.8l0.035-0.121c0.604-2.296,1.969-4.64,3.742-6.46
		c-0.205-0.275-1.732-2.256-1.949-2.553c-2.252,1.263-4.886,1.99-7.22,1.932H9.378l-0.082-0.08
		c-0.546-0.722-1.198-1.876-1.551-2.694l-0.052-0.122l0.052-0.109c1.176-2.059,3.097-3.959,5.292-5.274
		c-0.142-0.337-1.077-2.549-1.236-2.862c-2.495,0.622-5.205,0.641-7.487,0l-0.109-0.034l-0.068-0.103
		C3.828,62.55,3.49,61.254,3.35,60.343l-0.023-0.144l0.081-0.105c1.661-1.692,3.993-3.03,6.487-3.77
		c-0.027-0.35-0.392-2.865-0.428-3.213c-2.607-0.035-5.226-0.707-7.262-1.919l-0.102-0.065l-0.011-0.142
		c-0.057-0.423-0.072-0.976-0.072-1.536c0-0.547,0.015-1.082,0.072-1.539l0.011-0.141l0.102-0.056
		c2.036-1.2,4.655-1.896,7.262-1.935c0.053-0.345,0.362-2.79,0.401-3.119c-2.468-0.707-4.823-2.059-6.496-3.745l-0.069-0.082
		l0.024-0.131c0.106-0.939,0.459-2.197,0.81-2.977l0.039-0.113l0.122-0.034c2.253-0.666,4.979-0.646,7.483-0.032
		c0.139-0.304,1.053-2.51,1.19-2.84c-2.211-1.338-4.151-3.241-5.305-5.296l-0.059-0.13l0.059-0.124
		c0.363-0.824,1.014-1.941,1.527-2.643l0.083-0.106h0.14c2.364-0.032,4.972,0.689,7.22,1.936c0.211-0.252,1.747-2.327,1.955-2.603
		c-1.785-1.86-3.135-4.19-3.718-6.499l-0.026-0.1l0.047-0.102c0.573-0.715,1.52-1.646,2.211-2.193l0.113-0.069l0.103,0.021
		c2.325,0.594,4.665,1.977,6.489,3.75c0.267-0.211,2.093-1.619,2.365-1.825c-1.258-2.2-1.959-4.762-1.959-7.04V9.343l0.115-0.081
		c0.684-0.535,1.844-1.2,2.671-1.536l0.085-0.055l0.139,0.061c2.035,1.15,3.95,3.076,5.288,5.281
		c0.319-0.121,2.695-1.152,3.02-1.282c-0.309-1.23-0.503-2.502-0.484-3.764c0-1.312,0.159-2.56,0.506-3.712l0.016-0.142l0.123-0.032
		c0.767-0.321,2.045-0.666,2.942-0.804l0.144-0.017l0.105,0.09c1.693,1.648,3.044,4.006,3.756,6.495
		c0.348-0.035,2.843-0.35,3.178-0.411c0.053-2.562,0.754-5.179,1.979-7.212l0.051-0.107l0.127-0.036
		c0.895-0.104,2.212-0.104,3.078,0l0.114,0.036l0.072,0.107c1.23,2.033,1.941,4.649,1.941,7.19c0.378,0.083,2.814,0.397,3.161,0.433
		c0.729-2.489,2.069-4.829,3.776-6.484l0.077-0.084l0.114,0.036c0.926,0.102,2.186,0.447,2.992,0.8l0.099,0.039l0.042,0.14
		c0.346,1.142,0.516,2.384,0.516,3.676c-0.021,1.274-0.207,2.557-0.516,3.79c0.309,0.125,2.68,1.117,3.009,1.256
		c1.315-2.205,3.205-4.115,5.263-5.281l0.119-0.061l0.122,0.055c0.815,0.346,1.954,1,2.655,1.552l0.104,0.064v0.32
		c0,2.335-0.723,4.888-1.944,7.062c0.264,0.206,2.222,1.738,2.515,1.963c1.843-1.792,4.19-3.163,6.498-3.732l0.104-0.056
		l0.103,0.108c0.696,0.517,1.634,1.491,2.163,2.192l0.1,0.103l-0.043,0.119c-0.586,2.31-1.979,4.654-3.75,6.488
		c0.206,0.283,1.679,2.225,1.906,2.504c2.299-1.235,4.896-1.943,7.252-1.901h0.107l0.078,0.104c0.572,0.73,1.227,1.864,1.545,2.642
		l0.077,0.15l-0.077,0.112c-1.169,2.041-3.092,3.927-5.297,5.274c0.133,0.334,1.029,2.548,1.2,2.857
		c2.474-0.623,5.196-0.636,7.446,0l0.135,0.027l0.053,0.13c0.312,0.783,0.678,2.056,0.797,2.991l0.02,0.115l-0.091,0.092
		c-1.655,1.715-4.009,3.057-6.485,3.755c0.049,0.342,0.357,2.757,0.413,3.103c2.608,0.055,5.206,0.752,7.228,1.947l0.127,0.076
		l0.016,0.123C96.974,48.453,97,48.986,97,49.557 M25.639,21.847l3.901,4.345c0.546,0.586,1.146,0.514,1.935-0.103
		c4.931-3.868,11.253-6.153,17.995-6.153c6.746,0,13.074,2.277,18.053,6.153c0.779,0.574,1.36,0.689,1.932,0.103l3.903-4.345
		c0.442-0.481,0.442-1.144-0.403-1.852c-6.545-5.096-14.619-8.239-23.5-8.239c-8.828,0-17.021,3.144-23.448,8.262
		C25.164,20.704,25.203,21.366,25.639,21.847 M25.902,40.123c-0.43-0.278-0.888-0.596-1.263-0.43
		c-0.305,0.093-0.526,0.412-0.687,0.931c-1.83,6.279-1.83,11.601,0,17.797c0.124,0.403,0.263,0.806,0.629,0.907
		c0.301,0.124,0.743,0,1.32-0.397l12.079-8.228c0.448-0.301,0.722-0.731,0.722-1.162c0-0.469-0.274-0.879-0.722-1.193L25.902,40.123
		z M28.545,32.923c0.057,0.441,0.556,0.664,0.995,0.871l13.162,6.394c0.523,0.25,1.01,0.25,1.407,0.044
		c0.371-0.243,0.61-0.665,0.645-1.225l1.062-14.601c0.059-0.705-0.041-1.119-0.293-1.335c-0.278-0.239-0.691-0.172-1.088-0.099
		c-6.308,1.517-10.905,4.183-15.435,8.908C28.633,32.294,28.462,32.643,28.545,32.923 M28.736,66.309c0,0.25,0.17,0.562,0.489,0.893
		c4.532,4.768,9.123,7.42,15.425,8.898c0.403,0.123,0.799,0.183,1.078-0.035c0.284-0.213,0.365-0.65,0.319-1.342
		c0-0.02-1.072-14.629-1.072-14.629c-0.046-0.555-0.256-0.977-0.644-1.199c-0.391-0.231-0.882-0.231-1.407,0.008l-13.147,6.4
		c-0.459,0.213-0.957,0.454-1.025,0.885C28.751,66.216,28.736,66.271,28.736,66.309 M49.469,58.951c5.205,0,9.435-4.225,9.435-9.43
		c0-5.203-4.229-9.433-9.435-9.452c-5.204,0-9.432,4.249-9.432,9.452C40.037,54.727,44.265,58.951,49.469,58.951 M53.457,75.852
		c0.223,0.176,0.588,0.228,1.15,0.086C60.895,74.43,65.507,71.764,70,67.049c0.27-0.311,0.561-0.629,0.474-0.984
		c-0.081-0.34-0.37-0.648-0.983-0.937l-13.184-6.396c-0.499-0.236-0.984-0.236-1.385-0.025c-0.389,0.245-0.625,0.659-0.661,1.237
		l-1.065,14.592C53.184,75.012,53.128,75.559,53.457,75.852 M73.113,58.845c0.391,0.254,0.846,0.562,1.256,0.418
		c0.28-0.085,0.521-0.392,0.677-0.943c1.845-6.255,1.845-11.599,0-17.779c-0.112-0.389-0.294-0.789-0.618-0.935
		c-0.33-0.116-0.742,0.018-1.336,0.419l-12.084,8.218c-0.469,0.314-0.707,0.743-0.707,1.187c0,0.441,0.238,0.869,0.707,1.18
		L73.113,58.845z M70.449,32.69c0.014-0.25-0.141-0.566-0.49-0.911c-4.49-4.749-9.102-7.405-15.426-8.91
		c-0.354-0.091-0.768-0.176-1.04,0.066c-0.282,0.227-0.365,0.666-0.31,1.321l1.044,14.632c0.033,0.554,0.282,0.994,0.653,1.217
		c0.406,0.23,0.892,0.188,1.395-0.055l13.178-6.36c0.424-0.206,0.904-0.429,0.996-0.879C70.449,32.782,70.463,32.747,70.449,32.69
		 M14.181,58.805l5.608-1.629c0.525-0.154,0.958-0.705,0.917-1.391c-2.014-10.446,0.547-18.916,6.669-25.704
		c0.619-0.441,0.685-1.347,0.092-1.968l-4.076-4.098c-0.396-0.453-1.117-0.453-1.734,0.177C13.84,32.417,9.894,45.039,12.79,57.944
		C12.95,58.562,13.439,59.018,14.181,58.805 M83.904,61.807l-5.621-1.92c-0.296-0.108-1.062-0.108-1.464,0.881
		c-4.54,10.89-15.11,18.341-27.351,18.341c-12.254,0-23.022-7.622-27.366-18.512c-0.325-0.818-1.113-0.818-1.411-0.71l-5.592,1.92
		c-0.609,0.22-0.973,0.758-0.655,1.535c5.494,14.016,19.152,23.911,35.025,23.911c15.867,0,29.587-9.964,35.098-23.971
		C84.854,62.55,84.508,62.026,83.904,61.807 M77.406,24.135c-0.551-0.674-1.463-0.573-1.727-0.103l-4.064,4.081
		c-0.595,0.621-0.537,1.527,0.081,1.968c6.133,6.789,8.694,15.239,6.685,25.704c-0.047,0.686,0.387,1.236,0.922,1.391l5.619,1.629
		c0.746,0.213,1.225-0.242,1.385-0.883C89.198,45.039,85.24,32.374,77.406,24.135 M64.314,22.612l1.295-2.491l3.488-1.623
		c-0.365-0.264-0.762-0.448-1.132-0.69l-2.403,1.096l-0.443-2.611c-0.502-0.238-0.805-0.342-1.328-0.554l0.7,3.798l-1.294,2.459
		L64.314,22.612z M57.777,79.117c-1.742,0.383-3.083,0.699-4.81,0.967l0.16,1.003c0.638-0.101,1.224-0.177,1.896-0.261l0.87,4.83
		l1.281-0.243l-1.039-4.816c0.66-0.162,1.27-0.329,1.923-0.482L57.777,79.117z M40.672,79.963v0.326
		c-0.093,0.798-0.635,1.607-1.511,1.71l0.203,2.784c-0.407-0.092-0.867-0.227-1.302-0.411l-0.044-2.621l-1.179-0.503l-0.955,2.312
		c-0.387-0.127-0.771-0.251-1.149-0.438l1.211-2.812l0.145-0.348l0.984-2.322l2.68,1.035C40.351,78.889,40.625,79.419,40.672,79.963
		 M39.548,79.963c-0.037-0.168-0.103-0.303-0.309-0.396l-1.501-0.552l-0.339,0.948l-0.119,0.348l-0.01,0.021l1.365,0.51
		c0.376,0.168,0.736-0.166,0.867-0.531C39.548,80.209,39.584,80.084,39.548,79.963 M57.74,19.85
		c-0.479-0.139-0.835-0.197-1.36-0.348l0.971-3.313l0.709-2.362c1.026,0.255,2,0.587,2.975,0.904c0.55,0.169,0.845,0.794,0.9,1.458
		c0.038,0.903-0.411,1.882-1.322,2.088l0.354,2.669c-0.427-0.177-0.741-0.309-1.216-0.496l-0.309-2.334l-1.145-0.349L57.74,19.85z
		 M58.559,16.725l1.341,0.431c0.366,0.106,0.851-0.468,0.851-0.968c0-0.237-0.083-0.449-0.402-0.52
		c-0.494-0.19-0.834-0.275-1.374-0.412l-0.274,0.932L58.559,16.725z M52.062,82.805l1.293,3.142
		c-0.423,0.019-0.817,0.062-1.196,0.104l-0.4-1.016l-2.589,0.072l-0.297,1.062c-0.414-0.036-0.8-0.049-1.211-0.049l1.118-3.316
		l0.796-2.516l0.038-0.08l1.321-0.059l0.065,0.16L52.062,82.805z M51.277,83.949l-0.465-1.145l-0.468-1.236l-0.407,1.236
		l-0.401,1.22L51.277,83.949z M59.193,78.613l1.979,5.652c0.387-0.133,0.801-0.25,1.191-0.421l-1.923-5.627
		C59.914,78.396,59.673,78.469,59.193,78.613 M30.453,18.99l-0.331-0.595c0.87-0.553,1.809-1.032,2.71-1.515
		c1.064-0.586,2.564,0.835,2.459,2.11c-0.021,0.225-0.084,0.43-0.218,0.636l2.176,1.583c-0.411,0.191-0.722,0.355-1.209,0.568
		l-1.903-1.392l-1.052,0.562l1.118,1.85c-0.433,0.275-0.695,0.448-1.2,0.742L30.453,18.99z M31.767,18.709l0.165,0.281l0.604,1.046
		l1.256-0.659c0.12-0.059,0.187-0.206,0.207-0.387c0.026-0.567-0.385-1.335-0.979-0.976C32.554,18.256,32.271,18.423,31.767,18.709"
		/>
</g>
</svg>
