<?xml version="1.0" encoding="utf-8"?>
<!-- Generator: Adobe Illustrator 16.0.0, SVG Export Plug-In . SVG Version: 6.00 Build 0)  -->
<!DOCTYPE svg PUBLIC "-//W3C//DTD SVG 1.1//EN" "http://www.w3.org/Graphics/SVG/1.1/DTD/svg11.dtd">
<svg version="1.1" id="Layer_1" xmlns="http://www.w3.org/2000/svg" xmlns:xlink="http://www.w3.org/1999/xlink" x="0px" y="0px"
	 width="1000px" height="800px" viewBox="0 0 1000 800" enable-background="new 0 0 1000 800" xml:space="preserve">
<g>
	<g>
		<g>
			<defs>
				<rect id="SVGID_1_" x="273.094" y="19" width="377.729" height="377.768"/>
			</defs>
			<clipPath id="SVGID_2_">
				<use xlink:href="#SVGID_1_"  overflow="visible"/>
			</clipPath>
			<path clip-path="url(#SVGID_2_)" fill="#FFAF3E" d="M380.388,304.31l-12.599,14.945l-3.919-3.403l13.015-14.508
				c-2.053-1.912-3.632-3.631-5.634-5.412l2.904-2.91c4.963,4.69,9.327,8.321,14.802,12.729l-2.516,3.203
				C384.446,307.391,382.396,305.893,380.388,304.31 M355.139,267.134l-20.435,11.938c0.74,1.431,1.524,3.108,2.422,4.486
				l20.473-11.965C356.598,269.791,356.041,268.824,355.139,267.134 M368.256,286.19l-11.068,9.564l5.639-16.394
				c-1-1.407-1.458-2.385-2.502-3.677l-19.84,13.459c0.883,1.333,1.969,2.567,2.91,3.942l11.931-8.264l-5.594,16.519
				c0.972,1.088,1.943,2.761,3.315,3.874l18.358-15.742C370.386,288.389,369.158,287.422,368.256,286.19 M395.184,315.511
				c3.223,1.752,6.376,3.583,9.9,5.25l2.112-3.498c-4.879-2.519-9.466-5.406-13.567-8.253l-13.466,19.766
				c5.103,3.383,9.774,6.211,15.021,9.235l2.177-3.489l-10.859-6.402l3.663-5.151l7.197,4.321l2.09-3.362
				c-2.311-1.268-4.713-2.734-7.233-4.274L395.184,315.511z M461.794,241.825c-18.606,0-33.817-15.272-33.817-33.839
				c0-18.701,15.211-33.892,33.817-33.892c18.733,0,33.8,15.191,33.8,33.892C495.595,226.638,480.448,241.825,461.794,241.825
				 M462.213,230.635c12.353,0,22.502-10.146,22.502-22.508c0-10.268-7.139-19.202-16.976-21.654
				c-0.12-1.013-0.396-5.702-0.396-5.702h-11.349c0,0-0.26,5.097-0.352,6.11c-9.429,2.862-15.779,11.453-15.779,21.246
				C439.865,220.488,450.012,230.635,462.213,230.635 M412.506,80.183v-1.112c-0.122-6.12,4.567-11.164,10.738-11.659
				c6.519-0.63,12.302,4.158,12.85,10.712v0.947c0,6.116-4.607,11.337-10.881,11.917C418.881,91.549,413.062,86.78,412.506,80.183
				 M416.836,79.768c0.321,4.208,4.052,7.285,8.111,6.936c3.997-0.414,6.984-3.611,6.984-7.632c0.147-0.198,0-0.426,0-0.694
				c-0.35-4.235-3.994-7.208-8.218-6.806c-4.007,0.294-7.026,3.474-6.879,7.5L416.836,79.768L416.836,79.768z M466.098,85.617
				c-1.983-0.022-2.906-0.022-4.854-0.022l5.896-12.238l5.355-11.114l5.309,0.551l2.789,10.562l3.854,14.206
				c-1.779-0.333-3.175-0.6-4.855-0.701l-1.372-4.447c-3.505-0.547-6.676-0.712-9.923-0.855L466.098,85.617z M470.035,77.56
				c2.584,0.125,4.981,0.412,7.398,0.755l-1.27-4.958l-1.602-5.099l-2.402,5.099L470.035,77.56z M446.46,67.001l2.099,19.373
				l5.081-0.531l-1.989-19.232l7.691-0.477l-0.291-4.319c-8.591,0.497-12.134,0.846-20.644,2.113l0.573,4.1L446.46,67.001z
				 M447.264,329.281l-1.719,14.458l-6.947-15.857c-1.634-0.314-2.646-0.734-4.287-0.999l-5.447,23.387
				c1.676,0.451,3.294,0.633,5.041,0.934l2.918-14.359l7.042,16c1.596,0.242,3.398,0.745,5.27,0.694l2.603-24.153
				C450.365,329.307,448.744,329.531,447.264,329.281 M584.621,279.071l-17.372-9.567l-2.218,4.003l20.844,11.634l8.034-14.396
				l-3.591-1.922L584.621,279.071z M558.434,282.569l23.652,7.765c-0.561,0.703-1.003,1.378-1.497,2.081
				c-0.411,0.533-0.901,1.07-1.229,1.766l-4.147-1.493l-6.453,8.067l2.36,3.689c-0.968,1.098-2.05,2.284-3.28,3.5l-9.369-15.53
				l-3.459-5.72L558.434,282.569z M561.122,287.985l2.802,4.431l2.562,4.471l3.463-4.471l0.901-1.112L561.122,287.985z
				 M536.264,319.594c1.013,1.772,1.513,3.821,1.58,5.914c0,1.64-0.336,3.314-1.017,4.834c-1.104,2.202-2.748,4.178-5.02,5.494
				c-5.559,3.246-12.743,1.308-16.11-4.402c-0.123-0.328-0.266-0.693-0.489-1.092c-0.68-1.52-1.009-3.195-1.149-4.834
				c0.143-4.204,2.189-8.088,5.966-10.271C525.655,312.041,532.94,313.95,536.264,319.594 M533.588,325.508
				c0-1.421-0.367-2.693-1.042-3.921c-1.967-3.668-6.638-4.853-10.289-2.761c-2.564,1.375-3.87,3.988-3.87,6.683
				c0.079,1.229,0.367,2.61,1.104,3.773c0.2,0.367,0.45,0.743,0.816,1.147c2.282,2.729,6.311,3.36,9.414,1.561
				c0.856-0.422,1.528-0.976,2.087-1.561C532.94,329.046,533.588,327.206,533.588,325.508 M545.007,297.254l9.835,10.607
				l-16.519-4.873c-1.372,1.043-2.296,1.406-3.5,2.473l14.359,19.314c1.231-0.957,2.507-2.117,3.648-3.102l-8.723-11.616
				l16.68,5.022c1.146-0.995,2.784-2.117,3.912-3.528l-16.638-17.593C547.18,294.922,546.15,296.192,545.007,297.254
				 M650.821,208.127c0,2.2-0.104,4.415-0.352,6.179l-0.062,0.478l-0.506,0.261c-8.04,4.779-18.408,7.5-28.821,7.787
				c-0.24,1.318-1.37,10.718-1.562,12.04c9.703,2.797,19.106,8.102,25.674,14.88l0.261,0.418v0.43
				c-0.513,3.704-1.824,8.667-3.279,11.889l-0.166,0.509l-0.477,0.077c-9.095,2.62-19.818,2.521-29.731,0.068
				c-0.478,1.228-4.142,9.962-4.509,11.234c8.69,5.492,16.374,13.045,20.701,21.105l0.228,0.449l-0.146,0.471
				c-1.352,3.209-3.895,7.85-6.165,10.639l-0.245,0.42h-0.579c-9.282,0.109-19.655-2.647-28.715-7.691
				c-0.819,1.079-6.86,9.07-7.683,10.146c7.131,7.347,12.544,16.66,14.739,25.848l0.142,0.476l-0.271,0.337
				c-2.064,2.812-5.876,6.538-8.645,8.771l-0.332,0.28l-0.68-0.135c-8.933-2.38-18.38-7.787-25.717-14.88
				c-1.086,0.821-8.582,6.677-9.692,7.504c4.794,8.789,7.706,18.896,7.706,28.032v1.27l-0.554,0.313
				c-2.768,2.229-7.354,4.889-10.639,6.229l-0.329,0.139l-0.547-0.18c-8.04-4.681-15.746-12.32-21.02-21.079
				c-1.266,0.562-10.386,4.463-11.639,5.01c1.253,4.881,1.991,9.983,2.136,15.023c0,5.095-0.883,10.188-2.136,14.789l-0.058,0.457
				l-0.494,0.262c-3.052,1.276-8.198,2.549-11.788,3.175l-0.557,0.077l-0.302-0.386c-6.927-6.59-12.233-15.962-15.023-25.748
				c-1.229,0.087-10.68,1.371-12.005,1.647c-0.167,10.268-2.985,20.675-7.873,28.747l-0.267,0.424l-0.556,0.072
				c-3.277,0.5-8.538,0.5-12.112,0l-0.442-0.072l-0.317-0.424c-4.729-8.072-7.561-18.479-7.783-28.747
				c-1.419-0.139-11.372-1.562-12.754-1.647c-2.726,9.729-8.069,19.044-14.816,25.713l-0.356,0.343l-0.562-0.083
				c-3.69-0.543-8.548-1.968-11.809-3.314l-0.39-0.188l-0.162-0.416c-1.371-4.59-2.084-9.731-2.084-14.829
				c0-4.995,0.713-9.997,1.98-14.877c-1.269-0.547-9.875-4.036-11.127-4.594c-5.322,8.901-13.017,16.642-21.133,21.155l-0.431,0.242
				l-0.51-0.141c-3.362-1.502-7.79-4.043-10.658-6.188l-0.349-0.348v-0.968c0-9.251,2.818-19.428,7.645-28.337
				c-1.069-0.826-9.104-6.933-10.205-7.753c-7.357,7.089-16.725,12.43-25.787,14.751l-0.466,0.146l-0.495-0.325
				c-2.77-2.232-6.331-5.827-8.566-8.651l-0.307-0.491l0.14-0.479c2.402-9.133,7.829-18.451,14.882-25.691
				c-0.812-1.094-6.889-8.972-7.749-10.148c-8.958,5.02-19.434,7.916-28.712,7.684h-0.496l-0.326-0.323
				c-2.174-2.868-4.766-7.458-6.169-10.714l-0.206-0.483l0.206-0.437c4.677-8.185,12.317-15.744,21.046-20.976
				c-0.566-1.34-4.282-10.138-4.918-11.38c-9.92,2.471-20.697,2.543-29.772,0l-0.436-0.14l-0.27-0.405
				c-1.228-3.059-2.572-8.211-3.129-11.834l-0.094-0.569l0.322-0.422c6.605-6.73,15.877-12.052,25.799-14.993
				c-0.107-1.391-1.558-11.392-1.702-12.775c-10.367-0.137-20.782-2.813-28.88-7.632l-0.407-0.262l-0.042-0.561
				c-0.227-1.682-0.287-3.88-0.287-6.108c0-2.174,0.06-4.304,0.287-6.122l0.042-0.557l0.407-0.222
				c8.098-4.773,18.513-7.539,28.88-7.696c0.209-1.369,1.44-11.093,1.595-12.403c-9.813-2.812-19.18-8.185-25.833-14.89
				l-0.273-0.327l0.094-0.522c0.421-3.736,1.829-8.736,3.223-11.838l0.153-0.45l0.484-0.137c8.963-2.646,19.8-2.569,29.759-0.127
				c0.551-1.209,4.188-9.981,4.733-11.293c-8.792-5.323-16.508-12.892-21.098-21.064l-0.234-0.517l0.234-0.493
				c1.443-3.278,4.035-7.721,6.074-10.51l0.331-0.422h0.556c9.403-0.129,19.774,2.739,28.714,7.699
				c0.838-1.003,6.946-9.255,7.771-10.351c-7.098-7.4-12.466-16.665-14.784-25.845l-0.103-0.396l0.188-0.404
				c2.279-2.846,6.044-6.545,8.792-8.722l0.449-0.272l0.41,0.085c9.246,2.364,18.552,7.86,25.807,14.914
				c1.062-0.839,8.322-6.438,9.404-7.256c-5.001-8.748-7.79-18.939-7.79-27.996v-1.362l0.458-0.323
				c2.721-2.127,7.332-4.771,10.623-6.106l0.339-0.22l0.551,0.24c8.095,4.574,15.708,12.232,21.028,21.002
				c1.271-0.482,10.717-4.582,12.01-5.099c-1.229-4.891-2-9.951-1.926-14.967c0-5.218,0.633-10.181,2.011-14.763l0.062-0.565
				l0.488-0.129c3.053-1.277,8.133-2.648,11.702-3.195l0.573-0.068l0.419,0.357c6.732,6.556,12.104,15.934,14.938,25.83
				c1.384-0.14,11.305-1.391,12.64-1.633c0.211-10.191,3-20.596,7.869-28.68l0.204-0.426l0.508-0.141
				c3.556-0.416,8.796-0.416,12.24,0l0.452,0.141l0.287,0.426c4.896,8.084,7.727,18.489,7.727,28.594
				c1.5,0.329,11.188,1.58,12.567,1.72c2.903-9.896,8.231-19.204,15.021-25.786l0.306-0.333l0.452,0.142
				c3.687,0.406,8.689,1.776,11.9,3.183l0.394,0.153l0.166,0.555c1.375,4.542,2.049,9.481,2.049,14.62
				c-0.078,5.066-0.822,10.169-2.049,15.07c1.227,0.499,10.657,4.444,11.967,4.996c5.229-8.77,12.746-16.364,20.927-21.002
				l0.475-0.24l0.487,0.22c3.239,1.375,7.771,3.979,10.56,6.173l0.416,0.256v1.271c0,9.287-2.873,19.438-7.733,28.087
				c1.054,0.817,8.837,6.911,10.003,7.805c7.328-7.127,16.663-12.579,25.843-14.84l0.415-0.224l0.405,0.43
				c2.771,2.055,6.498,5.93,8.605,8.716l0.395,0.41l-0.172,0.472c-2.33,9.184-7.869,18.507-14.912,25.802
				c0.818,1.125,6.677,8.847,7.582,9.957c9.14-4.913,19.469-7.729,28.838-7.559h0.432l0.306,0.414
				c2.277,2.904,4.878,7.414,6.148,10.508l0.306,0.598l-0.306,0.448c-4.65,8.116-12.297,15.617-21.069,20.976
				c0.528,1.33,4.096,10.133,4.774,11.362c9.841-2.477,20.664-2.529,29.612,0l0.535,0.107l0.209,0.517
				c1.243,3.115,2.697,8.177,3.17,11.895l0.079,0.456l-0.362,0.365c-6.582,6.818-15.942,12.155-25.79,14.935
				c0.191,1.358,1.425,10.962,1.643,12.335c10.373,0.218,20.702,2.991,28.742,7.749l0.506,0.303l0.062,0.489
				C650.717,203.737,650.821,205.86,650.821,208.127 M367.028,97.93l15.513,17.28c2.173,2.332,4.556,2.045,7.693-0.408
				c19.606-15.38,44.751-24.472,71.56-24.472c26.831,0,51.999,9.057,71.793,24.472c3.104,2.283,5.412,2.739,7.687,0.408
				l15.521-17.28c1.761-1.916,1.761-4.548-1.602-7.363c-26.032-20.266-58.145-32.768-93.457-32.768
				c-35.108,0-67.692,12.502-93.253,32.856C365.138,93.382,365.295,96.014,367.028,97.93 M368.076,170.61
				c-1.708-1.108-3.529-2.372-5.022-1.711c-1.215,0.371-2.093,1.639-2.729,3.702c-7.277,24.972-7.277,46.138,0,70.777
				c0.493,1.604,1.044,3.205,2.502,3.609c1.198,0.492,2.954,0,5.25-1.583l48.037-32.721c1.779-1.197,2.872-2.907,2.872-4.62
				c0-1.861-1.092-3.492-2.872-4.748L368.076,170.61z M378.585,141.978c0.225,1.752,2.211,2.64,3.956,3.462l52.341,25.426
				c2.081,0.993,4.02,0.993,5.597,0.176c1.478-0.967,2.427-2.644,2.563-4.869l4.221-58.067c0.233-2.801-0.162-4.449-1.167-5.309
				c-1.104-0.951-2.748-0.684-4.326-0.394c-25.082,6.031-43.364,16.634-61.381,35.426
				C378.935,139.476,378.258,140.862,378.585,141.978 M379.345,274.746c0,0.993,0.677,2.231,1.944,3.55
				c18.025,18.958,36.28,29.508,61.342,35.39c1.604,0.488,3.179,0.726,4.287-0.144c1.13-0.848,1.453-2.585,1.27-5.333
				c0-0.083-4.264-58.18-4.264-58.18c-0.184-2.205-1.019-3.882-2.562-4.77c-1.557-0.92-3.505-0.92-5.596,0.033l-52.284,25.453
				c-1.827,0.848-3.804,1.806-4.076,3.52C379.406,274.376,379.345,274.597,379.345,274.746 M461.794,245.484
				c20.702,0,37.523-16.799,37.523-37.499c0-20.691-16.821-37.513-37.523-37.59c-20.692,0-37.506,16.898-37.506,37.59
				C424.289,228.685,441.104,245.484,461.794,245.484 M477.658,312.695c0.883,0.701,2.34,0.905,4.574,0.345
				c25.002-5.999,43.346-16.598,61.218-35.351c1.066-1.231,2.224-2.499,1.88-3.912c-0.322-1.354-1.469-2.58-3.907-3.727
				l-52.431-25.439c-1.985-0.94-3.914-0.94-5.509-0.101c-1.546,0.973-2.483,2.622-2.627,4.923l-4.239,58.026
				C476.573,309.358,476.349,311.53,477.658,312.695 M555.827,245.062c1.556,1.009,3.362,2.232,4.996,1.663
				c1.111-0.337,2.073-1.556,2.688-3.752c7.339-24.874,7.339-46.124,0-70.705c-0.444-1.544-1.166-3.135-2.458-3.718
				c-1.312-0.46-2.95,0.073-5.311,1.669L507.682,202.9c-1.86,1.251-2.811,2.959-2.811,4.721c0,1.754,0.948,3.458,2.811,4.688
				L555.827,245.062z M545.23,141.05c0.058-0.995-0.557-2.252-1.948-3.623c-17.855-18.885-36.193-29.449-61.349-35.436
				c-1.406-0.361-3.05-0.698-4.134,0.264c-1.125,0.902-1.453,2.648-1.229,5.252l4.147,58.192c0.133,2.202,1.125,3.952,2.598,4.838
				c1.617,0.917,3.547,0.749,5.551-0.218l52.402-25.293c1.688-0.817,3.599-1.708,3.959-3.496
				C545.23,141.417,545.288,141.274,545.23,141.05 M321.464,244.905l22.302-6.479c2.09-0.613,3.811-2.806,3.646-5.532
				c-8.009-41.542,2.174-75.222,26.521-102.219c2.461-1.754,2.727-5.359,0.368-7.825l-16.21-16.3
				c-1.578-1.802-4.441-1.802-6.896,0.705c-31.086,32.709-46.78,82.908-35.264,134.227
				C316.567,243.942,318.512,245.749,321.464,244.905 M598.742,256.84l-22.356-7.632c-1.175-0.432-4.223-0.432-5.818,3.498
				c-18.06,43.31-60.093,72.943-108.771,72.943c-48.731,0-91.553-30.315-108.829-73.62c-1.292-3.254-4.426-3.254-5.613-2.822
				l-22.239,7.632c-2.421,0.876-3.868,3.014-2.604,6.104c21.85,55.738,76.165,95.095,139.286,95.095
				c63.106,0,117.665-39.625,139.581-95.33C602.518,259.797,601.143,257.716,598.742,256.84 M572.9,107.027
				c-2.19-2.681-5.82-2.279-6.866-0.408l-16.165,16.23c-2.365,2.466-2.138,6.071,0.323,7.825
				c24.39,26.997,34.571,60.604,26.582,102.219c-0.185,2.727,1.536,4.919,3.666,5.532l22.348,6.479
				c2.966,0.844,4.87-0.963,5.509-3.51C619.795,190.163,604.054,139.792,572.9,107.027 M520.837,100.969l5.15-9.904l13.871-6.453
				c-1.453-1.05-3.031-1.78-4.501-2.743l-9.561,4.358l-1.761-10.383c-2-0.949-3.201-1.36-5.284-2.202l2.784,15.102l-5.146,9.781
				L520.837,100.969z M494.836,325.684c-6.927,1.522-12.258,2.781-19.124,3.848l0.637,3.985c2.537-0.4,4.864-0.701,7.542-1.04
				l3.461,19.209l5.098-0.967l-4.132-19.152c2.62-0.646,5.044-1.311,7.645-1.919L494.836,325.684z M426.812,329.046v1.296
				c-0.371,3.175-2.524,6.396-6.012,6.802l0.811,11.073c-1.618-0.368-3.448-0.9-5.18-1.635l-0.174-10.425l-4.688-1.998l-3.8,9.191
				c-1.539-0.502-3.066-0.994-4.569-1.735l4.815-11.188l0.574-1.383l3.914-9.236l10.657,4.116
				C425.535,324.775,426.629,326.883,426.812,329.046 M422.342,329.046c-0.145-0.668-0.409-1.201-1.227-1.574l-5.969-2.195
				l-1.352,3.771l-0.471,1.383l-0.039,0.084l5.43,2.031c1.497,0.664,2.929-0.662,3.447-2.115
				C422.342,330.023,422.489,329.531,422.342,329.046 M494.69,89.985c-1.904-0.553-3.32-0.783-5.41-1.382l3.858-13.177l2.82-9.394
				c4.08,1.014,7.954,2.335,11.829,3.595c2.188,0.674,3.356,3.159,3.582,5.799c0.146,3.591-1.639,7.486-5.26,8.304l1.404,10.617
				c-1.695-0.704-2.948-1.227-4.836-1.972l-1.229-9.283l-4.552-1.389L494.69,89.985z M497.946,77.56l5.331,1.715
				c1.454,0.42,3.382-1.863,3.382-3.849c0-0.942-0.328-1.784-1.597-2.069c-1.972-0.755-3.321-1.092-5.468-1.639l-1.095,3.708
				L497.946,77.56z M472.108,340.35l5.142,12.492c-1.68,0.073-3.249,0.242-4.757,0.416l-1.591-4.039l-10.297,0.287l-1.184,4.229
				c-1.646-0.146-3.179-0.196-4.814-0.196l4.442-13.188l3.162-10.007l0.154-0.318l5.252-0.232l0.263,0.638L472.108,340.35z
				 M468.99,344.897l-1.854-4.549l-1.857-4.917l-1.621,4.917l-1.596,4.85L468.99,344.897z M500.471,323.677l7.87,22.483
				c1.537-0.533,3.182-0.999,4.733-1.677l-7.646-22.376C503.336,322.812,502.377,323.108,500.471,323.677 M386.173,86.565
				l-1.313-2.365c3.461-2.198,7.191-4.104,10.777-6.025c4.233-2.331,10.195,3.32,9.779,8.391c-0.084,0.895-0.333,1.712-0.867,2.529
				l8.654,6.293c-1.635,0.761-2.87,1.411-4.812,2.259l-7.566-5.533l-4.186,2.232l4.446,7.357c-1.721,1.094-2.764,1.78-4.773,2.951
				L386.173,86.565z M391.398,85.45l0.652,1.116l2.401,4.162l4.996-2.622c0.476-0.234,0.741-0.818,0.819-1.541
				c0.104-2.254-1.529-5.308-3.894-3.881C394.53,83.649,393.404,84.311,391.398,85.45"/>
		</g>
	</g>
</g>
<path fill="#FFFFFF" d="M693.479,609.034l0.716,13.697c0.1,2.042-1.335,3.884-3.364,4.267c-5.779,1.072-13.746,2.374-18.734,2.374
	c-25.113,0-32.758-9.614-32.758-41.073v-48.062h-9.634c-2.287,0-4.147-1.857-4.147-4.152v-14.212c0-2.297,1.86-4.13,4.147-4.13
	h9.634v-16.896c0-1.923,1.294-3.589,3.139-4.024l16.638-4.053c1.23-0.297,2.524-0.031,3.526,0.755
	c1.001,0.793,1.604,1.983,1.604,3.26v20.959h25.336c2.304,0,4.134,1.833,4.134,4.13v14.212c0,2.295-1.83,4.152-4.134,4.152h-25.336
	v44.557c0,15.424,0.542,20.771,11.351,20.771c3.988,0,10.224-0.287,13.573-0.454C691.398,605.06,693.378,606.737,693.479,609.034
	 M614.89,571.705c0,39.694-15.092,57.404-48.914,57.404c-33.988,0-49.15-17.71-49.15-57.404c0-39.126,15.162-56.573,49.15-56.573
	C599.344,515.132,614.89,533.086,614.89,571.705 M589.566,571.705c0-24.393-6.625-33.857-23.593-33.857
	c-17.582,0-23.821,8.853-23.821,33.857c0,22.661,3.796,34.925,23.821,34.925C585.688,606.63,589.566,593.821,589.566,571.705
	 M986.65,519.344c-0.771-1.009-1.988-1.603-3.279-1.603h-16.148c-1.871,0-3.496,1.264-3.992,3.073l-21.66,81.672h-1.661
	l-21.679-81.672c-0.485-1.812-2.127-3.073-4.008-3.073h-16.132c-1.276,0-2.494,0.594-3.28,1.603
	c-0.774,1.031-1.055,2.334-0.736,3.567l23.848,91.585c1.193,4.545,5.395,12.24,13.714,12.24h4.622
	c-0.4,1.525-0.833,3.166-1.296,4.567l-0.208,0.692c-1.294,4.221-3.234,10.609-15.019,10.609l-20.644-1.26
	c-1.162-0.099-2.307,0.325-3.116,1.156c-0.855,0.84-1.325,1.973-1.266,3.151l0.503,10.807c0.091,1.82,1.368,3.364,3.157,3.814
	c6.083,1.51,17.686,3.258,27.237,3.629c0.464,0.03,0.879,0.03,1.312,0.03c15.574,0,26.131-10.076,31.445-29.907
	c6.192-23.208,13.927-53.089,19.564-74.906c2.565-9.812,4.763-18.281,6.351-24.305l3.104-11.889
	C987.706,521.678,987.424,520.375,986.65,519.344 M501.645,620.921c0.559,1.279,0.429,2.751-0.312,3.928
	c-0.771,1.188-2.065,1.89-3.479,1.89h-19.314c-1.634,0-3.137-0.972-3.78-2.467l-24.739-55.673
	c-12.306-0.085-22.993-0.737-28.761-1.146V622.6c0,2.295-1.838,4.139-4.125,4.139h-17.274c-2.304,0-4.159-1.844-4.159-4.139V482.953
	c0-2.117,1.587-3.883,3.692-4.113c22.167-2.511,39.901-2.766,46.479-2.766c2.272,0,3.478,0.017,3.478,0.017
	c42.527,0,51.455,25.111,51.455,46.149c0,17.581-8.393,30.273-25.65,38.833L501.645,620.921z M449.258,500.062h-9.101
	c-10.169,0-15.965,0.755-18.901,1.349v43.056c4.861,0.337,14.204,0.831,26.796,0.7c16.235-0.178,26.309-8.799,26.309-22.472
	C474.358,511.749,467.773,500.062,449.258,500.062 M795.083,552.029v72.267c0,1.2-0.531,2.349-1.419,3.118
	c-0.922,0.793-2.125,1.146-3.296,0.979c-8.459-1.179-12.48-3.837-16.484-6.898c-0.165,0.066-18.883,7.617-35.598,7.617
	c-20.129,0-31.683-12.704-31.683-34.911c0-21.688,10.571-31.275,36.498-33.219l27.074-2.181v-6.562
	c0-8.319-4.938-13.096-13.551-13.096c-11.856,0-28.776,1.396-37.8,2.194c-1.128,0.123-2.273-0.24-3.132-0.993
	c-0.827-0.73-1.359-1.816-1.398-2.942l-0.536-13.818c-0.088-2.096,1.411-3.931,3.479-4.245c8.062-1.288,28.151-4.204,40.705-4.204
	C783.28,515.132,795.083,526.863,795.083,552.029 M746.143,579.521c-9.773,0.925-14.421,5.395-14.421,13.997
	c0,5.292,1.46,14.229,11.155,14.229c11.5,0,27.134-4.346,27.301-4.39V578.26L746.143,579.521z M875.893,516.918
	c-10.983,0.654-21.815,6.939-28.563,11.731v-6.778c0-2.297-1.857-4.13-4.152-4.13h-16.632c-2.28,0-4.144,1.833-4.144,4.13V622.6
	c0,2.295,1.861,4.139,4.144,4.139h16.632c2.295,0,4.152-1.844,4.152-4.139v-69.614c3.752-3.137,15.362-11.839,29.192-13.063
	c2.13-0.191,3.774-1.972,3.774-4.121v-14.762c0-1.146-0.46-2.227-1.308-2.995C878.173,517.241,877.021,516.817,875.893,516.918"/>
<g>
	<path fill="#DC0325" d="M8.254,418.105l182.389-5.51l-5.507,76.778l-64.144-10.366l6.803,142.542l-69.328,1.943L56.2,477.714
		l-48.594,7.451L8.254,418.105z"/>
	<path fill="#5BC0BD" d="M214.937,624.791l-4.535-137.034l45.354-3.24l-1.295,22.354c22.677-12.311,44.706-13.606,65.764-3.563
		l-5.184,49.565c-15.874-15.226-36.283-12.958-60.58,6.804l2.591,64.47L214.937,624.791z"/>
	<path fill="#FFAE3D" d="M335.123,497.151l63.172-2.594l-0.972,132.823l-46.002-2.592L335.123,497.151z M366.547,466.051
		c-15.226,0-27.212-11.984-27.212-26.562c0-15.229,11.986-26.891,27.212-26.891c15.227,0,27.537,11.662,27.537,26.891
		C394.083,454.064,381.773,466.051,366.547,466.051z"/>
</g>
<g>
	<path fill="#DC0325" d="M502.922,675.355l26.008-5.66l15.604,70.983l15.758-70.524l27.231,7.188l-24.325,97.298l-38.552-0.459
		L502.922,675.355z"/>
	<path fill="#5BC0BD" d="M596.699,699.527c47.119-7.496,64.1,17.897,50.791,76.031l-12.545,1.071l-0.768-8.72
		c-25.854,15.298-38.553,12.392-37.938-8.567c0.609-21.11,13.156-26.312,37.633-15.452c0.613-16.979-10.555-22.486-33.504-16.367
		L596.699,699.527z M614.598,753.99v5.354l12.395-2.754v-3.366L614.598,753.99z"/>
	<path fill="#FFAE3D" d="M662.324,665.259l23.254-1.068l0.307,108.312l-24.936-0.306L662.324,665.259z"/>
	<path fill="#DC0325" d="M743.711,669.084l19.277-0.307l-1.686,104.336c-39.93,6.271-61.191-3.672-63.945-29.526
		c-2.604-26.007,12.545-37.787,45.74-35.339L743.711,669.084z M739.428,729.972c-12.697-5.508-18.355-2.142-17.287,10.099
		c1.227,12.237,6.732,16.367,16.678,12.237L739.428,729.972z"/>
	<path fill="#5BC0BD" d="M770.787,711.919l29.832-1.224l-0.459,62.724l-21.725-1.224L770.787,711.919z M785.625,697.232
		c-7.189,0-12.85-5.66-12.85-12.545c0-7.189,5.658-12.697,12.85-12.697s13.004,5.508,13.004,12.697
		C798.629,691.572,792.816,697.232,785.625,697.232z"/>
	<path fill="#FFAE3D" d="M809.336,706.871l19.889-7.038l12.852,37.176l20.191-37.479l20.5,8.106l-32.125,64.865l-19.734,0.306
		L809.336,706.871z"/>
	<path fill="#DC0325" d="M890.568,711.919l29.832-1.224l-0.459,62.724l-21.725-1.224L890.568,711.919z M905.408,697.232
		c-7.189,0-12.854-5.66-12.854-12.545c0-7.189,5.662-12.697,12.854-12.697c7.188,0,13.004,5.508,13.004,12.697
		C918.412,691.572,912.598,697.232,905.408,697.232z"/>
	<path fill="#5BC0BD" d="M930.342,699.527c47.119-7.496,64.104,17.897,50.791,76.031l-12.545,1.071l-0.766-8.72
		c-25.854,15.298-38.551,12.392-37.939-8.567c0.611-21.11,13.156-26.312,37.635-15.452c0.611-16.979-10.557-22.486-33.504-16.367
		L930.342,699.527z M948.24,753.99v5.354l12.393-2.754v-3.366L948.24,753.99z"/>
</g>
<g id="XMLID_148_">
	<g id="XMLID_151_">
		<g id="XMLID_169_">
			<g id="XMLID_170_">
				<path id="XMLID_171_" fill="#DC0325" d="M440.559,671.93c0,0-0.046,0.312-0.13,0.9c-0.055,0.301-0.073,0.667-0.084,1.109
					c-0.034,0.442-0.012,0.95,0.041,1.53c0.179,1.126,0.451,2.556,1.194,4.074c0.724,1.514,1.883,3.149,3.614,4.476
					c1.729,1.307,3.933,2.419,6.5,2.927c2.546,0.492,5.463,0.34,8.204-0.729c1.381-0.511,2.681-1.271,3.896-2.176
					c1.197-0.93,2.258-2.055,3.168-3.307c0.891-1.269,1.584-2.684,2.085-4.172c0.479-1.496,0.71-3.065,0.758-4.634
					c-0.047-1.569-0.276-3.139-0.756-4.636c-0.5-1.487-1.19-2.904-2.082-4.173c-0.91-1.255-1.969-2.379-3.168-3.31
					c-1.215-0.905-2.518-1.668-3.898-2.177c-2.738-1.077-5.661-1.229-8.208-0.735c-2.569,0.509-4.774,1.625-6.504,2.932
					c-1.733,1.324-2.894,2.963-3.617,4.479c-0.741,1.521-1.011,2.949-1.193,4.076c-0.049,0.58-0.071,1.087-0.037,1.533
					c0.011,0.44,0.031,0.808,0.086,1.108C440.513,671.614,440.559,671.93,440.559,671.93s0.078-0.307,0.224-0.879
					c0.06-0.283,0.181-0.623,0.334-1.014c0.129-0.396,0.333-0.829,0.577-1.295c0.795-1.927,2.839-4.224,5.683-5.711
					c1.427-0.745,3.138-1.154,4.889-1.151c1.764,0.021,3.541,0.466,5.141,1.269c0.799,0.416,1.523,0.963,2.208,1.554
					c0.667,0.614,1.243,1.32,1.747,2.075c0.481,0.77,0.841,1.604,1.108,2.468c0.245,0.872,0.342,1.776,0.353,2.686
					c-0.011,0.906-0.107,1.812-0.351,2.684c-0.267,0.862-0.626,1.7-1.107,2.472c-0.502,0.756-1.078,1.464-1.746,2.077
					c-0.686,0.589-1.411,1.14-2.21,1.554c-1.599,0.81-3.379,1.254-5.144,1.272c-1.752,0.003-3.463-0.411-4.893-1.157
					c-2.848-1.484-4.887-3.788-5.684-5.713c-0.244-0.467-0.448-0.902-0.575-1.297c-0.151-0.391-0.272-0.73-0.333-1.016
					C440.637,672.233,440.559,671.93,440.559,671.93z"/>
			</g>
		</g>
		<g id="XMLID_166_">
			<g id="XMLID_167_">
				<path id="XMLID_168_" fill="#DC0325" d="M494.838,681.357c0,0-0.259,0.396-0.744,1.139c-0.466,0.744-1.223,1.802-2.234,3.072
					c-1.937,2.558-5.239,5.992-9.978,8.087c-1.16,0.564-2.461,0.922-3.794,1.23c-1.357,0.235-2.767,0.408-4.231,0.365
					c-2.924-0.05-5.999-0.668-9.084-1.727c-6.167-2.163-12.337-6.017-17.77-10.719l-2.242-1.843
					c-0.779-0.661-1.646-1.224-2.464-1.835c-1.716-1.119-3.457-2.203-5.304-3.056c-3.65-1.781-7.544-2.914-11.357-3.458
					c-3.818-0.566-7.571-0.503-11.029,0.04c-3.462,0.511-6.619,1.5-9.4,2.652c-2.785,1.154-5.127,2.657-6.982,4.201
					c-1.859,1.548-3.261,3.104-4.303,4.44c-0.997,1.38-1.625,2.539-2.023,3.335c-0.371,0.806-0.569,1.236-0.569,1.236
					s0.3-0.364,0.867-1.045c0.583-0.661,1.475-1.598,2.731-2.62c2.389-2.172,6.475-4.444,11.632-5.933
					c5.156-1.552,11.584-1.736,17.979-0.376c3.19,0.729,6.396,1.823,9.403,3.409c1.523,0.754,2.953,1.703,4.371,2.663
					c0.674,0.533,1.394,1.008,2.036,1.58l2.096,1.791c6.053,5.025,13.021,9.309,20.522,11.286c3.717,1.024,7.578,1.363,11.185,0.953
					c1.805-0.185,3.53-0.627,5.147-1.139c1.599-0.59,3.108-1.231,4.433-2.055c2.689-1.58,4.683-3.609,6.12-5.536
					c1.438-1.941,2.412-3.758,3.166-5.251c0.676-1.541,1.136-2.759,1.396-3.609C494.691,681.806,494.838,681.357,494.838,681.357z"
					/>
			</g>
		</g>
		<g id="XMLID_163_">
			<g id="XMLID_164_">
				<path id="XMLID_165_" fill="#DC0325" d="M440.352,683.358c0,0-1.636,0.713-4.502,1.958c-0.715,0.33-1.447,0.781-2.267,1.265
					c-0.823,0.485-1.716,1.009-2.67,1.57c-0.958,0.563-1.854,1.337-2.86,2.093c-0.493,0.394-0.998,0.797-1.515,1.209
					c-0.468,0.468-0.938,0.956-1.416,1.462c-0.479,0.507-0.969,1.025-1.467,1.553c-0.512,0.522-0.913,1.15-1.392,1.742
					c-0.462,0.608-0.934,1.227-1.412,1.854c-0.438,0.654-0.826,1.356-1.248,2.061c-1.729,2.789-2.939,6.085-3.75,9.532
					c-0.814,3.462-1.065,7.057-1.133,10.608c-0.033,3.552,0.176,7.024,0.247,10.36c0.031,0.821,0.093,1.669,0.102,2.468l0.024,2.396
					c-0.026,1.335-0.229,2.694-0.562,4.067c-0.324,1.372-0.812,2.748-1.385,4.104c-0.563,1.356-1.223,2.694-1.939,4
					c-2.944,5.173-6.436,9.982-9.861,13.727c-3.427,3.739-6.277,7.039-8.529,9.072c-2.133,2.189-3.487,3.334-3.487,3.334
					s1.67-0.604,4.515-1.941c2.717-1.492,6.786-3.506,10.983-6.877c4.156-3.376,9.119-7.444,13.115-13.251
					c1.021-1.431,1.969-2.974,2.809-4.637c0.848-1.653,1.594-3.425,2.142-5.328c0.555-1.894,0.935-3.917,1.033-6.007l0.049-2.751
					c0.017-0.918-0.022-1.788-0.033-2.688c-0.179-3.533-0.459-6.924-0.574-10.144c-0.084-3.21-0.069-6.295,0.263-9.193
					c0.684-5.754,2.583-10.962,5.411-14.966c0.338-0.508,0.669-1.008,0.993-1.496c0.371-0.462,0.733-0.912,1.086-1.353
					c0.719-0.874,1.315-1.801,2.015-2.556c0.703-0.767,1.358-1.486,1.965-2.147c0.61-0.671,1.172-1.299,1.766-1.762
					C439.084,684.573,440.352,683.358,440.352,683.358z"/>
			</g>
		</g>
		<g id="XMLID_159_">
			<g id="XMLID_160_">
				<path id="XMLID_162_" fill="#DC0325" d="M420.921,712.939c0,0,0.023,0.346,0.068,0.994c0.035,0.33,0.172,0.718,0.295,1.203
					c0.219,0.432,0.416,1.01,0.825,1.518c0.792,1.036,2.015,2.124,3.58,3.04c1.561,0.921,3.436,1.689,5.506,2.272
					c4.138,1.159,8.987,2.161,14.015,2.957c2.495,0.441,5.058,0.86,7.41,1.478c1.168,0.307,2.267,0.688,3.123,1.118
					c0.429,0.215,0.77,0.446,0.985,0.646c0.087,0.095,0.229,0.184,0.233,0.255c0.021,0.036,0.047,0.065,0.08,0.094
					c0.013,0.029-0.001,0.059,0.012,0.079c0.011,0.033,0.042,0.007,0.059,0.083c0.014,0.074,0.032,0.147,0.054,0.221
					c0.059,0.116,0.064,0.355,0.096,0.557c0.042,0.188,0.032,0.448,0.037,0.693c0.016,0.236,0.008,0.498-0.019,0.774
					c-0.05,1.07-0.254,2.261-0.512,3.446c-0.517,2.379-1.237,4.79-1.977,7.134c-1.568,4.658-3.018,9.147-4.526,12.89
					c-1.51,3.738-2.488,7.027-3.382,9.23c-0.753,2.275-1.224,3.567-1.224,3.567s0.882-1.065,2.424-2.934
					c1.391-1.956,3.612-4.642,5.714-8.184c2.092-3.544,4.681-7.646,6.753-12.457c1.072-2.395,2.037-4.957,2.774-7.744
					c0.362-1.401,0.676-2.852,0.81-4.464c0.044-0.394,0.069-0.805,0.065-1.239c0.001-0.429,0.018-0.845-0.041-1.323
					c-0.047-0.469-0.067-0.911-0.208-1.439l-0.188-0.764c-0.064-0.255-0.22-0.569-0.341-0.851c-0.135-0.28-0.268-0.573-0.431-0.83
					c-0.172-0.244-0.353-0.484-0.536-0.721c-0.366-0.506-0.772-0.835-1.184-1.202c-0.819-0.686-1.66-1.167-2.461-1.542
					c-1.608-0.747-3.133-1.175-4.593-1.496c-2.922-0.628-5.66-0.879-8.285-1.052c-5.222-0.377-9.985-0.23-13.938-0.737
					c-1.969-0.245-3.757-0.483-5.281-0.865c-1.521-0.375-2.778-0.915-3.628-1.602c-0.49-0.29-0.79-0.675-1.125-0.98
					c-0.241-0.354-0.499-0.657-0.639-0.935C421.06,713.25,420.921,712.939,420.921,712.939z"/>
			</g>
		</g>
		<g id="XMLID_156_">
			<g id="XMLID_157_">
				<path id="XMLID_158_" fill="#5BC0BE" d="M444.979,690.689c0,0-0.538,0.072-1.474,0.2c-0.428,0.135-1.019,0.219-1.645,0.4
					c-0.619,0.189-1.313,0.432-2.004,0.793c-1.335,0.757-3.046,1.56-4.497,2.816c-1.519,1.195-2.842,2.73-4.12,4.284
					c-1.131,1.653-2.231,3.322-2.955,5.051c-0.818,1.677-1.14,3.458-1.566,4.877c-0.417,1.429-0.337,2.806-0.44,3.679
					c0.032,0.936,0.076,1.466,0.076,1.466s0.41-0.343,1.16-0.9c0.604-0.629,1.748-1.367,2.678-2.442
					c0.936-1.076,2.241-2.188,3.333-3.519c1.151-1.296,2.214-2.75,3.341-4.152c1.031-1.468,2.111-2.885,3.036-4.294
					c0.963-1.375,1.698-2.849,2.523-3.967c0.422-0.542,0.749-1.126,1.032-1.669c0.289-0.536,0.57-0.984,0.821-1.337
					C444.722,691.157,444.979,690.689,444.979,690.689z"/>
			</g>
		</g>
	</g>
</g>
<g id="XMLID_95_">
	<g id="XMLID_96_">
		<g id="XMLID_137_">
			<g id="XMLID_138_">
				<path id="XMLID_147_" fill="#5BC0BE" d="M272.892,702.061c0,0-0.447-0.273-1.23-0.755c-0.793-0.338-1.897-1.095-3.258-1.521
					c-1.36-0.415-2.92-1.14-4.623-1.524c-1.695-0.46-3.525-0.714-5.352-1.001c-1.844-0.146-3.681-0.336-5.44-0.278
					c-1.746-0.033-3.438,0.318-4.861,0.404c-1.423,0.097-2.682,0.583-3.532,0.724c-0.877,0.289-1.378,0.453-1.378,0.453
					s0.42,0.314,1.156,0.865c0.762,0.4,1.81,1.257,3.156,1.766c1.347,0.512,2.893,1.319,4.617,1.764
					c1.713,0.524,3.581,0.806,5.447,1.103c1.886,0.146,3.77,0.298,5.559,0.188c1.784-0.042,3.479-0.456,4.911-0.638
					c1.433-0.188,2.656-0.768,3.494-0.98C272.406,702.267,272.892,702.061,272.892,702.061z"/>
			</g>
		</g>
		<g id="XMLID_128_">
			<g id="XMLID_129_">
				<path id="XMLID_135_" fill="#5BC0BE" d="M322.366,709.689c0,0-1.29-0.206-3.544-0.563c-2.252-0.215-5.478-0.795-9.333-0.997
					c-3.854-0.193-8.359-0.64-13.174-0.724c-4.817-0.153-9.945-0.066-15.077,0.005c-5.126,0.217-10.253,0.403-15.053,0.826
					c-4.803,0.338-9.272,1.05-13.112,1.455c-3.837,0.412-7.023,1.181-9.259,1.517c-2.231,0.488-3.506,0.769-3.506,0.769
					s1.29,0.201,3.545,0.568c2.251,0.211,5.478,0.801,9.332,0.998c3.855,0.193,8.36,0.652,13.175,0.722
					c4.816,0.157,9.946,0.061,15.077-0.012c5.125-0.215,10.253-0.414,15.053-0.833c4.802-0.352,9.271-1.046,13.109-1.456
					c3.838-0.417,7.024-1.175,9.261-1.514C321.092,709.966,322.366,709.689,322.366,709.689z"/>
			</g>
		</g>
		<g id="XMLID_125_">
			<g id="XMLID_126_">
				<path id="XMLID_127_" fill="#DC0325" d="M294.452,668.013c0,0-0.184,0.181-0.532,0.512c-0.346,0.34-0.837,0.854-1.428,1.562
					c-1.017,1.463-2.631,3.757-3.174,7.014c-0.267,1.606-0.413,3.396-0.296,5.3c0.116,1.9,0.506,3.905,1.269,5.813
					c1.333,3.921,4.039,7.75,7.487,10.664c3.526,2.833,7.676,4.779,11.708,5.646c4.024,0.965,7.88,0.739,11.028,0.427
					c1.587-0.109,3.008-0.53,4.242-0.86c1.228-0.398,2.261-0.821,3.116-1.099c1.621-0.819,2.547-1.287,2.547-1.287
					s-1.024-0.008-2.816-0.022c-0.879,0.001-1.946-0.058-3.143-0.146c-1.206-0.16-2.528-0.241-3.956-0.436
					c-2.857-0.291-6.066-1.205-9.261-2.354c-3.174-1.225-6.363-2.847-8.967-5.104c-2.711-2.138-4.791-4.881-6.331-7.766
					c-1.594-2.88-2.593-5.821-2.721-8.517c-0.145-2.654,0.012-5.068,0.487-6.699c0.178-0.84,0.365-1.505,0.511-1.953
					C294.373,668.254,294.452,668.013,294.452,668.013z"/>
			</g>
		</g>
		<g id="XMLID_121_">
			<g id="XMLID_122_">
				<path id="XMLID_124_" fill="#DC0325" d="M324.701,659.294c0,0-0.025-0.315-0.074-0.915c-0.057-0.601-0.199-1.484-0.54-2.604
					c-0.428-1.072-1.012-2.4-2.018-3.764c-0.996-1.358-2.415-2.744-4.27-3.819c-1.844-1.082-4.062-1.963-6.572-2.379
					c-1.264-0.203-2.625-0.289-3.974-0.172c-1.359,0.093-2.736,0.356-4.089,0.809c-1.363,0.415-2.706,1.036-3.981,1.85
					c-1.281,0.8-2.489,1.828-3.509,3.085c-2.079,2.489-3.284,5.904-2.913,9.376c0.449,3.387,2.061,6.187,4.02,8.417
					c0.992,1.118,2.1,2.108,3.318,2.954c0.606,0.419,1.257,0.803,1.95,1.157c0.688,0.331,1.377,0.609,2.073,0.837
					c2.771,0.927,5.528,1.013,8.021,0.664c2.5-0.358,4.771-1.163,6.677-2.288c1.918-1.101,3.349-2.717,4.108-4.332
					c0.779-1.625,0.885-3.166,0.858-4.332c-0.104-1.19-0.397-2.048-0.598-2.618c-0.226-0.558-0.345-0.855-0.345-0.855
					s-0.001,0.314-0.006,0.91c-0.027,0.586-0.092,1.448-0.413,2.438c-0.231,0.994-0.776,2.122-1.702,3.063
					c-0.922,0.943-2.169,1.725-3.681,2.291c-3.005,1.172-7.291,0.933-10.714-0.57c-3.122-1.408-6.36-5.241-6.629-8.5
					c-0.067-0.399-0.07-0.784-0.041-1.157c-0.008-0.182,0.055-0.389,0.085-0.592c0.037-0.2,0.054-0.408,0.131-0.599
					c0.196-0.793,0.604-1.525,1.108-2.224c0.503-0.7,1.152-1.344,1.905-1.896c0.741-0.565,1.568-1.063,2.45-1.452
					c0.876-0.393,1.794-0.703,2.715-0.911c0.926-0.235,1.831-0.345,2.749-0.38c1.86-0.053,3.688,0.231,5.253,0.846
					c3.154,1.153,5.597,3.025,6.829,4.756c0.673,0.83,1.126,1.57,1.399,2.093C324.557,659.011,324.701,659.294,324.701,659.294z"/>
			</g>
		</g>
		<g id="XMLID_118_">
			<g id="XMLID_119_">
				<path id="XMLID_120_" fill="#DC0325" d="M291.223,663.672c0,0-0.589-0.028-1.694-0.08c-1.107-0.047-2.735-0.094-4.816-0.061
					c-4.123,0.228-10.156,0.522-17.125,2.443c-3.467,0.988-7.22,2.174-11.088,3.865c-1.935,0.838-3.895,1.814-5.845,2.992
					c-1.949,1.178-3.896,2.548-5.736,4.317c-0.921,0.895-1.83,1.865-2.64,3.062c-0.819,1.158-1.56,2.572-1.975,4.275
					c-0.425,1.684-0.415,3.731,0.256,5.587c0.785,2.071,2.045,3.354,3.197,4.415c2.354,1.994,4.667,3.148,6.942,4.229
					c2.277,1.052,4.53,1.93,6.76,2.772c4.487,1.588,8.896,3.005,13.045,4.55c4.107,1.538,8.132,3.207,10.914,5.242
					c1.358,1.038,2.188,2.077,2.524,2.954c0.052,0.114,0.043,0.233,0.083,0.352c0.019,0.134,0.091,0.192,0.082,0.408
					c0.006,0.37,0.063,0.73,0.021,1.125c-0.007,0.384-0.032,0.774-0.099,1.18c-0.037,0.396-0.125,0.801-0.213,1.206
					c-0.726,3.274-2.381,6.498-4.13,9.28c-3.597,5.572-7.094,10.212-9.764,13.218c-2.554,3.143-4.174,4.828-4.174,4.828
					s2.014-1.2,5.386-3.582c3.204-2.546,8.066-6.008,12.67-11.599c2.241-2.833,4.67-6.021,6.312-10.296
					c0.198-0.537,0.395-1.084,0.542-1.669c0.172-0.569,0.302-1.169,0.403-1.791c0.131-0.604,0.161-1.265,0.214-1.913
					c0.043-0.296-0.009-0.741-0.027-1.12c-0.038-0.392-0.047-0.796-0.13-1.18c-0.195-0.753-0.358-1.568-0.708-2.241
					c-0.159-0.35-0.324-0.705-0.499-1.049l-0.598-0.93c-0.822-1.236-1.796-2.204-2.79-3.106c-1.99-1.758-4.121-3.053-6.268-4.197
					c-2.153-1.138-4.343-2.103-6.542-3.003c-4.394-1.799-8.846-3.305-13.115-4.916c-2.146-0.762-4.251-1.541-6.205-2.393
					c-1.937-0.84-3.777-1.812-4.938-2.736c-0.539-0.442-0.868-0.865-0.895-0.907c-0.106-0.256-0.161-0.512-0.092-0.978
					c0.067-0.453,0.278-1.072,0.687-1.729c0.364-0.656,0.899-1.339,1.474-2.007c2.441-2.658,5.698-5.021,8.92-6.978
					c3.242-1.975,6.547-3.595,9.69-4.876c6.292-2.547,11.771-4.502,15.729-5.428c1.962-0.562,3.531-0.938,4.604-1.179
					C290.649,663.798,291.223,663.672,291.223,663.672z"/>
			</g>
		</g>
		<g id="XMLID_115_">
			<g id="XMLID_116_">
				<path id="XMLID_117_" fill="#DC0325" d="M333.84,714.291c0,0-0.709-0.044-2.036-0.123c-0.335-0.013-0.713-0.062-1.124-0.045
					c-0.412,0.015-0.863,0.032-1.351,0.054c-0.487,0.027-1.021,0.022-1.583,0.084c-0.561,0.077-1.154,0.16-1.784,0.251
					c-2.475,0.503-5.551,1.279-8.751,3.011c-3.194,1.694-6.576,4.256-9.311,7.895c-2.7,3.635-4.892,8.222-5.801,13.453
					c-0.136,0.647-0.16,1.312-0.241,1.981c-0.049,0.668-0.177,1.344-0.153,2.021c0.016,1.362-0.045,2.754,0.169,4.146
					c0.234,2.808,1.042,5.618,2.147,8.354c1.11,2.745,2.738,5.322,4.645,7.729c1.958,2.373,4.314,4.467,6.922,6.266
					c2.643,1.759,5.58,3.114,8.658,4.101c3.101,0.938,6.346,1.38,9.595,1.47c3.247-0.09,6.492-0.53,9.595-1.467
					c3.079-0.986,6.019-2.342,8.661-4.1c2.608-1.798,4.966-3.889,6.928-6.263c1.905-2.406,3.533-4.985,4.643-7.732
					c1.111-2.73,1.92-5.545,2.156-8.352c0.215-1.395,0.153-2.786,0.169-4.149c0.021-0.679-0.105-1.354-0.153-2.025
					c-0.083-0.666-0.106-1.334-0.243-1.981c-0.912-5.232-3.107-9.818-5.809-13.453c-2.731-3.644-6.116-6.204-9.312-7.896
					c-3.2-1.731-6.278-2.506-8.754-3.014c-0.629-0.088-1.225-0.171-1.786-0.249c-0.561-0.057-1.095-0.054-1.583-0.081
					c-0.487-0.021-0.938-0.036-1.351-0.053c-0.41-0.013-0.788,0.035-1.123,0.049C334.547,714.247,333.84,714.291,333.84,714.291
					s0.697,0.11,2.005,0.321c0.323,0.062,0.687,0.093,1.077,0.195s0.814,0.219,1.273,0.339c0.456,0.131,0.947,0.235,1.457,0.407
					c0.502,0.192,1.035,0.393,1.598,0.605c4.511,1.504,10.369,5.487,14.338,12.007c1.967,3.257,3.236,7.222,3.473,11.422
					c0.054,0.522-0.003,1.057,0.006,1.587c-0.026,0.531,0.032,1.065-0.054,1.599c-0.14,1.067-0.181,2.148-0.463,3.206
					c-0.372,2.146-1.18,4.227-2.114,6.249c-0.986,2.014-2.336,3.864-3.825,5.604c-1.548,1.703-3.355,3.186-5.311,4.471
					c-1.987,1.242-4.167,2.182-6.424,2.872c-2.283,0.645-4.656,0.915-7.036,0.956c-2.38-0.041-4.754-0.312-7.038-0.952
					c-2.259-0.693-4.438-1.63-6.427-2.871c-1.956-1.283-3.764-2.767-5.314-4.47c-1.489-1.74-2.84-3.592-3.826-5.604
					c-0.939-2.021-1.751-4.104-2.122-6.249c-0.283-1.061-0.324-2.143-0.464-3.208c-0.086-0.535-0.027-1.068-0.053-1.601
					c0.008-0.531-0.047-1.064,0.007-1.588c0.239-4.204,1.513-8.169,3.479-11.428c3.967-6.523,9.834-10.501,14.343-12.009
					c0.564-0.212,1.099-0.414,1.602-0.604c0.51-0.171,1.002-0.275,1.457-0.405c0.459-0.12,0.883-0.234,1.272-0.338
					c0.391-0.101,0.754-0.133,1.079-0.192C333.143,714.401,333.84,714.291,333.84,714.291z"/>
			</g>
		</g>
		<g id="XMLID_112_">
			<g id="XMLID_113_">
				<path id="XMLID_114_" fill="#DC0325" d="M236.572,714.291c0,0-0.709-0.044-2.036-0.123c-0.335-0.013-0.713-0.062-1.124-0.045
					c-0.412,0.015-0.863,0.032-1.35,0.054c-0.488,0.027-1.021,0.022-1.582,0.084c-0.561,0.077-1.155,0.16-1.785,0.251
					c-2.475,0.503-5.553,1.279-8.751,3.011c-3.194,1.694-6.578,4.256-9.312,7.895c-2.699,3.635-4.891,8.222-5.8,13.453
					c-0.137,0.647-0.161,1.312-0.242,1.981c-0.049,0.668-0.176,1.344-0.154,2.021c0.016,1.362-0.045,2.754,0.169,4.146
					c0.235,2.808,1.042,5.618,2.147,8.354c1.111,2.745,2.739,5.322,4.644,7.729c1.96,2.373,4.315,4.467,6.922,6.266
					c2.643,1.759,5.581,3.114,8.659,4.101c3.101,0.938,6.347,1.38,9.595,1.47c3.249-0.09,6.492-0.53,9.596-1.467
					c3.078-0.986,6.017-2.342,8.661-4.1c2.608-1.798,4.964-3.889,6.925-6.263c1.906-2.406,3.534-4.985,4.644-7.732
					c1.11-2.73,1.92-5.545,2.156-8.352c0.215-1.395,0.154-2.786,0.169-4.149c0.021-0.679-0.105-1.354-0.155-2.025
					c-0.082-0.666-0.105-1.334-0.242-1.981c-0.911-5.232-3.108-9.818-5.808-13.453c-2.731-3.644-6.116-6.204-9.312-7.896
					c-3.2-1.731-6.28-2.506-8.754-3.014c-0.629-0.088-1.226-0.171-1.786-0.249c-0.562-0.057-1.095-0.054-1.583-0.081
					c-0.487-0.021-0.937-0.036-1.351-0.053c-0.411-0.013-0.79,0.035-1.123,0.049C237.28,714.247,236.572,714.291,236.572,714.291
					s0.697,0.11,2.005,0.321c0.323,0.062,0.688,0.093,1.078,0.195c0.389,0.103,0.813,0.219,1.271,0.339
					c0.455,0.131,0.947,0.235,1.458,0.407c0.502,0.192,1.035,0.393,1.599,0.605c4.51,1.504,10.367,5.487,14.338,12.007
					c1.965,3.257,3.234,7.222,3.472,11.422c0.053,0.522-0.003,1.057,0.004,1.587c-0.024,0.531,0.034,1.065-0.051,1.599
					c-0.141,1.067-0.181,2.148-0.463,3.206c-0.372,2.146-1.18,4.227-2.113,6.249c-0.988,2.014-2.336,3.864-3.828,5.604
					c-1.547,1.703-3.355,3.186-5.308,4.471c-1.989,1.242-4.168,2.182-6.427,2.872c-2.28,0.645-4.653,0.915-7.035,0.956
					c-2.381-0.041-4.754-0.312-7.036-0.952c-2.26-0.693-4.439-1.63-6.429-2.871c-1.956-1.283-3.763-2.767-5.312-4.47
					c-1.492-1.74-2.841-3.592-3.828-5.604c-0.938-2.021-1.75-4.104-2.124-6.249c-0.282-1.061-0.322-2.143-0.463-3.208
					c-0.085-0.535-0.026-1.068-0.052-1.601c0.008-0.531-0.046-1.064,0.007-1.588c0.239-4.204,1.513-8.169,3.479-11.428
					c3.967-6.523,9.833-10.501,14.343-12.009c0.563-0.212,1.098-0.414,1.601-0.604c0.508-0.171,1.001-0.275,1.458-0.405
					c0.458-0.12,0.882-0.234,1.271-0.338c0.392-0.101,0.755-0.133,1.078-0.192C235.875,714.401,236.572,714.291,236.572,714.291z"/>
			</g>
		</g>
		<g id="XMLID_109_">
			<g id="XMLID_110_">
				<path id="XMLID_111_" fill="#5BC0BE" d="M334.537,699.461c0,0-0.337,0.057-0.893,0.105c-0.442,0.134-1.273,0.099-1.886,0.268
					c-0.599,0.196-1.459,0.164-2.104,0.377c-0.696,0.157-1.33,0.477-2.012,0.764c-0.614,0.414-1.296,0.774-1.863,1.336
					c-0.612,0.474-1.068,1.283-1.567,1.781c-0.487,0.504-0.771,1.319-1.039,1.704c-0.219,0.527-0.345,0.827-0.345,0.827
					s0.29,0.158,0.799,0.437c0.456,0.132,1.21,0.593,1.957,0.642c0.741,0.056,1.715,0.304,2.624,0.149
					c0.942-0.087,1.859-0.452,2.787-0.867c0.854-0.551,1.724-1.14,2.342-1.956c0.663-0.771,0.972-1.795,1.263-2.553
					c0.311-0.76,0.146-1.658,0.144-2.14C334.626,699.76,334.537,699.461,334.537,699.461z"/>
			</g>
		</g>
		<g id="XMLID_106_">
			<g id="XMLID_107_">
				<path id="XMLID_108_" fill="#5BC0BE" d="M316.717,710.188c0,0-0.896,0.432-2.469,1.188c-1.474,0.867-3.762,1.907-6.164,3.557
					c-2.398,1.651-5.327,3.445-8.188,5.685c-2.901,2.194-5.801,4.75-8.689,7.315c-2.778,2.684-5.553,5.367-7.95,8.084
					c-2.451,2.661-4.438,5.437-6.255,7.691c-1.82,2.251-3.005,4.438-3.973,5.829c-0.856,1.496-1.345,2.354-1.345,2.354
					s0.848-0.521,2.331-1.428c1.372-1.013,3.543-2.249,5.793-4.06c2.241-1.822,5.05-3.745,7.765-6.088
					c2.783-2.275,5.584-4.863,8.43-7.403c2.751-2.643,5.539-5.245,8.019-7.835c2.529-2.533,4.658-5.163,6.642-7.255
					c1.969-2.104,3.358-4.151,4.464-5.438C316.138,710.987,316.717,710.188,316.717,710.188z"/>
			</g>
		</g>
		<g id="XMLID_103_">
			<g id="XMLID_104_">
				<path id="XMLID_105_" fill="#5BC0BE" d="M257.986,704.98c0,0-0.564,0.479-1.55,1.321c-0.859,0.914-2.326,2.081-3.653,3.727
					c-1.316,1.65-3.049,3.469-4.556,5.608c-1.568,2.107-3.018,4.483-4.484,6.847c-1.335,2.438-2.698,4.859-3.755,7.253
					c-1.132,2.354-1.842,4.742-2.625,6.692c-0.782,1.952-1.058,3.789-1.429,4.977c-0.234,1.262-0.37,1.981-0.37,1.981
					s0.563-0.479,1.555-1.318c0.855-0.913,2.333-2.076,3.653-3.726c1.318-1.65,3.062-3.462,4.556-5.61
					c1.572-2.106,3.012-4.482,4.479-6.848c1.335-2.438,2.689-4.863,3.75-7.257c1.121-2.358,1.841-4.745,2.626-6.692
					c0.776-1.954,1.061-3.789,1.427-4.977C257.849,705.702,257.986,704.98,257.986,704.98z"/>
			</g>
		</g>
		<g id="XMLID_100_">
			<g id="XMLID_101_">
				<path id="XMLID_102_" fill="#5BC0BE" d="M291.155,668.457c0,0-0.681-0.021-1.875-0.058c-1.147,0.102-2.888,0.006-4.802,0.396
					c-1.913,0.389-4.223,0.694-6.546,1.42c-2.348,0.672-4.737,1.668-7.113,2.692c-2.305,1.167-4.604,2.351-6.611,3.721
					c-2.043,1.303-3.733,2.882-5.245,4.095c-1.519,1.209-2.531,2.604-3.336,3.41c-0.719,0.938-1.131,1.473-1.131,1.473
					s0.671-0.12,1.847-0.33c1.09-0.339,2.798-0.56,4.586-1.217c1.785-0.675,3.997-1.199,6.159-2.103
					c2.211-0.818,4.458-1.876,6.739-2.869c2.224-1.114,4.472-2.169,6.512-3.337c2.072-1.092,3.884-2.436,5.542-3.37
					c1.645-0.957,2.898-2.11,3.851-2.731C290.637,668.889,291.155,668.457,291.155,668.457z"/>
			</g>
		</g>
		<g id="XMLID_97_">
			<g id="XMLID_98_">
				<path id="XMLID_99_" fill="#5BC0BE" d="M336.922,745.155c0,0,0.038-0.633,0.103-1.744c-0.077-1.062,0.076-2.668-0.212-4.435
					c-0.3-1.764-0.436-3.892-0.963-6.045c-0.459-2.175-1.191-4.412-1.905-6.654c-0.855-2.197-1.685-4.4-2.699-6.388
					c-0.934-2.013-2.184-3.765-3.062-5.329c-0.882-1.565-2.025-2.73-2.633-3.61c-0.755-0.832-1.186-1.309-1.186-1.309
					s-0.035,0.635-0.104,1.745c0.079,1.061-0.084,2.671,0.211,4.435c0.299,1.765,0.422,3.897,0.96,6.046
					c0.456,2.176,1.198,4.41,1.913,6.652c0.856,2.195,1.693,4.396,2.706,6.385c0.946,2.01,2.183,3.765,3.062,5.332
					c0.889,1.562,2.023,2.729,2.636,3.608C336.496,744.68,336.922,745.155,336.922,745.155z"/>
			</g>
		</g>
	</g>
</g>
<g id="XMLID_67_">
	<g id="XMLID_92_">
		<g id="XMLID_93_">
			<path id="XMLID_94_" fill="#DC0325" d="M102.86,715.431c0,0-0.658,0.39-1.807,1.067c-0.579,0.279-1.243,0.735-1.999,1.191
				c-0.738,0.517-1.578,1.021-2.47,1.583c-1.819,1.057-3.689,2.649-5.657,4.251c-1.939,1.653-3.965,3.439-5.811,5.442
				c-1.954,1.896-3.708,4.015-5.412,6.002c-1.644,2.024-3.374,3.873-4.614,5.644c-1.243,1.757-2.565,3.14-3.289,4.222
				c-0.863,1.022-1.313,1.653-1.313,1.653s-0.004-0.776,0.089-2.151c0.233-1.312,0.362-3.324,1.144-5.5
				c0.772-2.164,1.614-4.798,3.104-7.312c1.404-2.569,3.334-5.06,5.485-7.362c2.243-2.208,4.716-4.229,7.327-5.646
				c2.575-1.484,5.292-2.223,7.531-2.801c1.115-0.318,2.205-0.39,3.143-0.464c0.942-0.016,1.763-0.027,2.438-0.036
				C102.092,715.352,102.86,715.431,102.86,715.431z"/>
		</g>
	</g>
	<g id="XMLID_89_">
		<g id="XMLID_90_">
			<path id="XMLID_91_" fill="#DC0325" d="M132.362,714.64c0,0,0.044,0.312,0.126,0.9c0.055,0.299,0.072,0.667,0.082,1.107
				c0.032,0.444,0.011,0.952-0.04,1.53c-0.175,1.129-0.438,2.557-1.154,4.075c-0.701,1.515-1.821,3.15-3.495,4.477
				c-1.671,1.307-3.801,2.419-6.284,2.928c-2.461,0.49-5.281,0.34-7.931-0.732c-1.334-0.509-2.592-1.268-3.767-2.174
				c-1.159-0.931-2.185-2.054-3.064-3.307c-0.861-1.269-1.53-2.686-2.015-4.171c-0.463-1.497-0.686-3.065-0.733-4.635
				c0.047-1.57,0.27-3.139,0.731-4.638c0.485-1.485,1.152-2.902,2.014-4.17c0.879-1.255,1.905-2.38,3.063-3.311
				c1.175-0.906,2.434-1.667,3.769-2.175c2.648-1.078,5.473-1.231,7.936-0.737c2.483,0.509,4.613,1.626,6.285,2.933
				c1.677,1.323,2.798,2.961,3.498,4.479c0.717,1.52,0.977,2.948,1.154,4.075c0.048,0.58,0.069,1.089,0.036,1.534
				c-0.01,0.44-0.029,0.81-0.084,1.107C132.407,714.326,132.362,714.64,132.362,714.64s-0.075-0.306-0.215-0.879
				c-0.058-0.283-0.175-0.624-0.323-1.015c-0.124-0.395-0.322-0.828-0.559-1.294c-0.767-1.927-2.744-4.222-5.493-5.709
				c-1.38-0.748-3.034-1.156-4.726-1.151c-1.704,0.022-3.424,0.464-4.969,1.268c-0.773,0.414-1.474,0.964-2.135,1.553
				c-0.645,0.614-1.204,1.321-1.688,2.074c-0.466,0.77-0.814,1.606-1.074,2.469c-0.237,0.872-0.33,1.775-0.341,2.686
				c0.011,0.907,0.104,1.812,0.339,2.685c0.259,0.861,0.606,1.698,1.072,2.469c0.484,0.757,1.042,1.464,1.688,2.079
				c0.66,0.59,1.362,1.141,2.137,1.554c1.543,0.811,3.267,1.254,4.971,1.273c1.695,0.001,3.349-0.41,4.73-1.158
				c2.753-1.484,4.725-3.787,5.495-5.713c0.236-0.467,0.432-0.901,0.556-1.295c0.145-0.392,0.264-0.732,0.32-1.018
				C132.288,714.944,132.362,714.64,132.362,714.64z"/>
		</g>
	</g>
	<g id="XMLID_86_">
		<g id="XMLID_87_">
			<path id="XMLID_88_" fill="#5BC0BE" d="M12.457,747.058c0,0,0.737-0.034,2.117-0.102c1.383-0.034,3.437-0.042,6.039,0.438
				c0.323,0.073,0.655,0.146,0.995,0.218c0.336,0.098,0.679,0.193,1.03,0.297c0.715,0.182,1.424,0.464,2.182,0.725
				c1.487,0.567,3.051,1.272,4.669,1.964c3.225,1.4,6.854,2.317,11.054,2.307c1.047,0.002,2.114,0.001,3.197-0.111
				c1.091-0.042,2.163-0.242,3.255-0.4c2.163-0.426,4.251-1.126,6.331-2.186c2.076-1.039,4.285-2.515,6.954-3.718
				c2.652-1.224,5.67-2.006,8.641-2.284c2.976-0.286,5.956-0.331,9.083,0.082c3.115,0.396,6.329,1.504,9.088,2.876
				c2.767,1.365,5.041,2.642,7.47,3.328c2.42,0.707,5.027,0.966,7.732,0.969c2.703-0.003,5.31-0.263,7.729-0.973
				c2.43-0.688,4.701-1.965,7.47-3.334c2.76-1.373,5.975-2.481,9.091-2.876c3.128-0.413,6.107-0.366,9.084-0.078
				c2.972,0.276,5.991,1.062,8.643,2.28c2.67,1.204,4.879,2.68,6.954,3.718c2.078,1.062,4.164,1.763,6.328,2.186
				c1.092,0.16,2.163,0.359,3.254,0.404c1.083,0.112,2.149,0.112,3.196,0.108c4.2,0.01,7.826-0.906,11.05-2.305
				c1.62-0.693,3.184-1.396,4.671-1.965c0.76-0.26,1.468-0.544,2.183-0.724c0.351-0.103,0.696-0.2,1.031-0.297
				c0.339-0.075,0.671-0.146,0.995-0.217c2.604-0.478,4.657-0.468,6.04-0.436c1.382,0.067,2.118,0.104,2.118,0.104
				s-0.73,0.085-2.1,0.245c-1.354,0.188-3.354,0.521-5.717,1.381c-0.295,0.099-0.601,0.201-0.912,0.307
				c-0.303,0.131-0.613,0.265-0.93,0.398c-0.641,0.25-1.277,0.611-1.949,0.949c-1.329,0.729-2.726,1.615-4.299,2.556
				c-1.576,0.939-3.393,1.856-5.424,2.539c-2.029,0.713-4.259,1.111-6.563,1.311c-1.151,0.083-2.33,0.167-3.536,0.144
				c-1.201,0.042-2.446-0.075-3.714-0.158c-2.534-0.267-5.214-0.909-7.736-1.952c-2.536-1.034-4.783-2.286-7.025-3.106
				c-2.234-0.849-4.553-1.315-7.065-1.459c-2.504-0.112-5.15-0.036-7.629,0.379c-2.5,0.417-4.758,1.253-7.165,2.49
				c-2.396,1.229-5.227,2.898-8.434,3.864c-3.191,0.981-6.479,1.322-9.637,1.362c-3.158-0.04-6.447-0.381-9.638-1.362
				c-3.207-0.962-6.037-2.635-8.434-3.864c-2.407-1.24-4.666-2.075-7.166-2.496c-2.479-0.415-5.125-0.492-7.63-0.382
				c-2.513,0.142-4.833,0.607-7.068,1.454c-2.244,0.818-4.49,2.071-7.025,3.104c-2.522,1.043-5.199,1.689-7.731,1.96
				c-1.268,0.084-2.512,0.199-3.714,0.16c-1.206,0.021-2.384-0.06-3.535-0.146c-2.304-0.198-4.534-0.598-6.562-1.312
				c-2.032-0.68-3.849-1.597-5.423-2.535c-1.576-0.94-2.971-1.825-4.301-2.555c-0.671-0.339-1.308-0.7-1.947-0.952
				c-0.319-0.137-0.629-0.268-0.934-0.398c-0.311-0.104-0.615-0.208-0.911-0.307c-2.364-0.856-4.364-1.188-5.72-1.375
				C13.188,747.143,12.457,747.058,12.457,747.058z"/>
		</g>
	</g>
	<g id="XMLID_83_">
		<g id="XMLID_84_">
			<path id="XMLID_85_" fill="#5BC0BE" d="M12.457,763.688c0,0,0.737-0.037,2.117-0.104c1.383-0.034,3.437-0.041,6.039,0.441
				c0.323,0.068,0.655,0.142,0.995,0.216c0.336,0.096,0.679,0.194,1.03,0.295c0.715,0.184,1.424,0.466,2.182,0.725
				c1.487,0.57,3.051,1.273,4.669,1.967c3.225,1.398,6.854,2.316,11.054,2.303c1.047,0.005,2.114,0.004,3.197-0.107
				c1.091-0.045,2.163-0.244,3.255-0.403c2.163-0.424,4.251-1.124,6.331-2.187c2.076-1.039,4.285-2.514,6.954-3.715
				c2.652-1.222,5.67-2.006,8.641-2.284c2.976-0.287,5.956-0.334,9.083,0.083c3.115,0.394,6.329,1.502,9.088,2.873
				c2.767,1.367,5.041,2.645,7.47,3.33c2.42,0.707,5.027,0.965,7.732,0.968c2.703-0.004,5.31-0.262,7.729-0.971
				c2.43-0.689,4.701-1.965,7.47-3.334c2.76-1.373,5.975-2.481,9.091-2.877c3.128-0.413,6.107-0.366,9.084-0.078
				c2.972,0.276,5.991,1.059,8.643,2.279c2.67,1.203,4.879,2.682,6.954,3.718c2.078,1.062,4.164,1.761,6.328,2.187
				c1.092,0.162,2.163,0.358,3.254,0.405c1.083,0.108,2.149,0.11,3.196,0.104c4.2,0.013,7.826-0.903,11.05-2.302
				c1.62-0.692,3.184-1.396,4.671-1.966c0.76-0.26,1.468-0.542,2.183-0.723c0.351-0.103,0.696-0.2,1.031-0.299
				c0.339-0.07,0.671-0.146,0.995-0.215c2.604-0.479,4.657-0.47,6.04-0.437c1.382,0.066,2.118,0.104,2.118,0.104
				s-0.73,0.084-2.1,0.244c-1.354,0.19-3.354,0.521-5.717,1.379c-0.295,0.103-0.601,0.203-0.912,0.31
				c-0.303,0.131-0.613,0.263-0.93,0.396c-0.641,0.252-1.277,0.613-1.949,0.95c-1.329,0.73-2.726,1.615-4.299,2.556
				c-1.576,0.939-3.393,1.856-5.424,2.538c-2.029,0.716-4.259,1.112-6.563,1.312c-1.151,0.085-2.33,0.168-3.536,0.144
				c-1.201,0.042-2.446-0.073-3.714-0.155c-2.534-0.271-5.214-0.912-7.736-1.954c-2.536-1.035-4.783-2.287-7.025-3.107
				c-2.234-0.847-4.553-1.312-7.065-1.461c-2.504-0.108-5.15-0.034-7.629,0.381c-2.5,0.42-4.758,1.254-7.165,2.49
				c-2.396,1.229-5.227,2.899-8.434,3.865c-3.191,0.982-6.479,1.323-9.637,1.362c-3.158-0.039-6.447-0.38-9.638-1.361
				c-3.207-0.966-6.037-2.636-8.434-3.867c-2.407-1.239-4.666-2.074-7.166-2.495c-2.479-0.416-5.125-0.491-7.63-0.382
				c-2.513,0.141-4.833,0.606-7.068,1.454c-2.244,0.817-4.49,2.071-7.025,3.106c-2.522,1.041-5.199,1.688-7.731,1.958
				c-1.268,0.084-2.512,0.199-3.714,0.158c-1.206,0.026-2.384-0.058-3.535-0.143c-2.304-0.198-4.534-0.598-6.562-1.312
				c-2.032-0.682-3.849-1.597-5.423-2.535c-1.576-0.941-2.971-1.824-4.301-2.557c-0.671-0.337-1.308-0.697-1.947-0.95
				c-0.319-0.136-0.629-0.268-0.934-0.397c-0.311-0.104-0.615-0.207-0.911-0.31c-2.364-0.854-4.364-1.184-5.72-1.373
				C13.188,763.771,12.457,763.688,12.457,763.688z"/>
		</g>
	</g>
	<g id="XMLID_80_">
		<g id="XMLID_81_">
			<path id="XMLID_82_" fill="#DC0325" d="M124.34,682.827c0,0-0.341,0.212-0.98,0.61c-0.632,0.402-1.577,0.951-2.72,1.724
				c-2.303,1.507-5.394,3.95-8.467,7.245c-3.062,3.302-5.766,7.879-6.9,13.106c-0.558,2.607-0.852,5.358-0.593,8.13
				c0.245,2.765,0.921,5.532,2.028,8.118c1.025,2.619,2.506,5.068,4.322,7.17c1.807,2.106,3.855,3.969,6.085,5.458
				c4.484,2.901,9.462,4.657,13.951,5.156c4.477,0.511,8.39,0.431,11.125,0.176c2.758-0.311,4.333-0.487,4.333-0.487
				s-1.47,0.651-4.043,1.793c-2.669,0.797-6.571,2.281-11.582,2.369c-1.242-0.051-2.55,0-3.903-0.114
				c-0.677-0.072-1.365-0.146-2.066-0.22c-0.35-0.044-0.708-0.065-1.059-0.13c-0.353-0.074-0.707-0.147-1.064-0.222
				c-0.718-0.155-1.445-0.311-2.181-0.47c-0.719-0.235-1.448-0.473-2.184-0.713c-0.366-0.127-0.742-0.24-1.107-0.389
				c-0.358-0.164-0.719-0.328-1.081-0.492c-0.717-0.35-1.472-0.646-2.169-1.067c-5.726-3.117-10.88-8.533-13.601-15.162
				c-1.33-3.312-2.119-6.85-2.294-10.367c-0.193-3.522,0.36-7.006,1.367-10.167c0.277-0.78,0.466-1.59,0.83-2.318
				c0.342-0.735,0.681-1.465,1.016-2.185c0.366-0.701,0.801-1.354,1.196-2.013c0.202-0.326,0.403-0.65,0.604-0.972
				c0.23-0.3,0.458-0.599,0.686-0.893c0.455-0.585,0.906-1.159,1.35-1.727c0.493-0.517,0.98-1.022,1.459-1.522
				c0.916-1.031,1.973-1.835,2.913-2.672c3.916-3.219,7.874-4.577,10.463-5.615c1.358-0.407,2.439-0.653,3.16-0.854
				C123.955,682.927,124.34,682.827,124.34,682.827z"/>
		</g>
	</g>
	<g id="XMLID_68_">
		<g id="XMLID_69_">
			<path id="XMLID_70_" fill="#5BC0BE" d="M100.309,725.656c0,0-0.318,0.293-0.806,0.84c-0.523,0.401-1.13,1.271-1.894,1.908
				c-0.782,0.639-1.504,1.632-2.368,2.425c-0.833,0.854-1.79,1.637-2.695,2.518c-1.004,0.776-1.953,1.66-3.012,2.382
				c-0.994,0.778-2.21,1.312-3.106,1.927c-0.896,0.609-1.97,0.874-2.568,1.185c-0.715,0.219-1.123,0.342-1.123,0.342
				s0.036-0.429,0.098-1.183c0.181-0.661,0.221-1.787,0.684-2.821c0.466-1.028,0.864-2.396,1.678-3.574
				c0.75-1.238,1.816-2.365,2.955-3.453c1.239-0.98,2.562-1.899,3.986-2.448c1.393-0.61,2.899-0.716,4.085-0.868
				c1.208-0.146,2.309,0.242,2.988,0.373C99.93,725.47,100.309,725.656,100.309,725.656z"/>
		</g>
	</g>
</g>
</svg>
