<?xml version="1.0" encoding="utf-8"?>
<!-- Generator: Adobe Illustrator 16.0.0, SVG Export Plug-In . SVG Version: 6.00 Build 0)  -->
<!DOCTYPE svg PUBLIC "-//W3C//DTD SVG 1.1//EN" "http://www.w3.org/Graphics/SVG/1.1/DTD/svg11.dtd">
<svg version="1.1" id="Layer_1" xmlns="http://www.w3.org/2000/svg" xmlns:xlink="http://www.w3.org/1999/xlink" x="0px" y="0px"
	 width="1000px" height="400px" viewBox="0 0 1000 400" enable-background="new 0 0 1000 400" xml:space="preserve">
<path fill="#FFFFFF" d="M692.479,212.034l0.715,13.697c0.1,2.042-1.335,3.884-3.364,4.267c-5.779,1.072-13.746,2.374-18.734,2.374
	c-25.114,0-32.758-9.614-32.758-41.073v-48.062h-9.634c-2.287,0-4.147-1.857-4.147-4.152v-14.212c0-2.297,1.86-4.13,4.147-4.13
	h9.634v-16.896c0-1.923,1.294-3.589,3.139-4.025l16.637-4.053c1.231-0.296,2.525-0.031,3.527,0.755
	c1.001,0.793,1.604,1.984,1.604,3.26v20.959h25.336c2.304,0,4.134,1.833,4.134,4.13v14.212c0,2.295-1.83,4.152-4.134,4.152h-25.336
	v44.557c0,15.424,0.542,20.77,11.351,20.77c3.988,0,10.223-0.287,13.573-0.454C690.399,208.06,692.378,209.737,692.479,212.034
	 M613.89,174.705c0,39.694-15.092,57.404-48.914,57.404c-33.989,0-49.151-17.71-49.151-57.404c0-39.126,15.162-56.573,49.151-56.573
	C598.344,118.132,613.89,136.086,613.89,174.705 M588.566,174.705c0-24.393-6.624-33.857-23.592-33.857
	c-17.582,0-23.822,8.852-23.822,33.857c0,22.661,3.796,34.925,23.822,34.925C584.688,209.63,588.566,196.821,588.566,174.705
	 M985.65,122.344c-0.77-1.009-1.988-1.603-3.279-1.603h-16.148c-1.871,0-3.496,1.264-3.992,3.073l-21.661,81.672h-1.661
	l-21.678-81.672c-0.486-1.811-2.127-3.073-4.008-3.073h-16.132c-1.276,0-2.494,0.594-3.281,1.603
	c-0.774,1.031-1.054,2.334-0.736,3.567l23.848,91.585c1.193,4.545,5.394,12.24,13.714,12.24h4.622
	c-0.401,1.526-0.833,3.166-1.296,4.568l-0.208,0.692c-1.294,4.221-3.235,10.609-15.019,10.609l-20.643-1.259
	c-1.162-0.099-2.307,0.325-3.116,1.156c-0.856,0.84-1.325,1.973-1.266,3.151l0.503,10.807c0.091,1.82,1.368,3.364,3.157,3.814
	c6.083,1.51,17.686,3.258,27.237,3.629c0.464,0.03,0.879,0.03,1.312,0.03c15.574,0,26.131-10.076,31.445-29.907
	c6.193-23.208,13.927-53.089,19.565-74.906c2.565-9.813,4.762-18.281,6.35-24.305l3.104-11.888
	C986.706,124.678,986.424,123.375,985.65,122.344 M500.645,223.921c0.558,1.279,0.428,2.751-0.313,3.928
	c-0.771,1.188-2.065,1.889-3.479,1.889h-19.314c-1.634,0-3.137-0.971-3.78-2.466l-24.739-55.673
	c-12.306-0.085-22.994-0.738-28.761-1.146V225.6c0,2.295-1.838,4.138-4.125,4.138h-17.275c-2.303,0-4.159-1.843-4.159-4.138V85.953
	c0-2.117,1.587-3.883,3.693-4.113c22.167-2.511,39.901-2.766,46.479-2.766c2.273,0,3.478,0.017,3.478,0.017
	c42.527,0,51.455,25.111,51.455,46.149c0,17.581-8.393,30.274-25.651,38.833L500.645,223.921z M448.258,103.062h-9.101
	c-10.169,0-15.965,0.755-18.901,1.349v43.056c4.861,0.337,14.204,0.831,26.796,0.7c16.235-0.178,26.308-8.799,26.308-22.472
	C473.358,114.749,466.773,103.062,448.258,103.062 M794.083,155.029v72.267c0,1.2-0.531,2.349-1.419,3.118
	c-0.922,0.793-2.125,1.146-3.296,0.979c-8.459-1.179-12.48-3.837-16.484-6.899c-0.165,0.067-18.883,7.617-35.598,7.617
	c-20.129,0-31.683-12.704-31.683-34.911c0-21.688,10.572-31.275,36.499-33.219l27.074-2.18v-6.563
	c0-8.319-4.938-13.095-13.551-13.095c-11.856,0-28.776,1.395-37.8,2.194c-1.128,0.123-2.273-0.24-3.132-0.993
	c-0.827-0.731-1.359-1.817-1.398-2.943l-0.536-13.818c-0.088-2.096,1.411-3.931,3.479-4.245c8.062-1.288,28.152-4.204,40.705-4.204
	C782.28,118.132,794.083,129.863,794.083,155.029 M745.143,182.521c-9.774,0.925-14.421,5.395-14.421,13.998
	c0,5.292,1.46,14.229,11.155,14.229c11.5,0,27.134-4.346,27.301-4.39V181.26L745.143,182.521z M874.893,119.918
	c-10.984,0.654-21.816,6.939-28.564,11.731v-6.778c0-2.297-1.857-4.13-4.152-4.13h-16.632c-2.28,0-4.144,1.833-4.144,4.13V225.6
	c0,2.295,1.862,4.138,4.144,4.138h16.632c2.295,0,4.152-1.843,4.152-4.138v-69.615c3.752-3.136,15.362-11.838,29.193-13.063
	c2.129-0.192,3.774-1.972,3.774-4.121v-14.762c0-1.146-0.46-2.226-1.308-2.995C877.173,120.241,876.021,119.817,874.893,119.918"/>
<g>
	<path fill="#DC0325" d="M7.254,21.105l182.389-5.509l-5.507,76.778l-64.144-10.366l6.803,142.542l-69.328,1.943L55.2,80.714
		L6.606,88.165L7.254,21.105z"/>
	<path fill="#5BC0BD" d="M213.937,227.791l-4.535-137.034l45.354-3.24l-1.295,22.354c22.677-12.311,44.706-13.606,65.764-3.563
		l-5.184,49.565c-15.874-15.226-36.283-12.958-60.58,6.804l2.591,64.469L213.937,227.791z"/>
	<path fill="#FFAE3D" d="M334.123,100.151l63.172-2.593l-0.972,132.823l-46.002-2.592L334.123,100.151z M365.547,69.051
		c-15.226,0-27.212-11.985-27.212-26.563c0-15.228,11.986-26.89,27.212-26.89s27.537,11.662,27.537,26.89
		C393.083,57.064,380.773,69.051,365.547,69.051z"/>
</g>
<g>
	<path fill="#DC0325" d="M501.922,278.355l26.008-5.66l15.604,70.984l15.758-70.525l27.232,7.189l-24.326,97.298l-38.552-0.459
		L501.922,278.355z"/>
	<path fill="#5BC0BD" d="M595.699,302.527c47.119-7.496,64.1,17.898,50.791,76.032l-12.545,1.071l-0.767-8.72
		c-25.854,15.298-38.553,12.392-37.938-8.567c0.61-21.111,13.156-26.312,37.633-15.452c0.613-16.979-10.555-22.487-33.504-16.368
		L595.699,302.527z M613.598,356.99v5.354l12.394-2.754v-3.366L613.598,356.99z"/>
	<path fill="#FFAE3D" d="M661.324,268.259l23.254-1.069l0.307,108.312l-24.936-0.306L661.324,268.259z"/>
	<path fill="#DC0325" d="M742.711,272.084l19.277-0.307l-1.685,104.336c-39.93,6.271-61.192-3.672-63.946-29.526
		c-2.603-26.007,12.545-37.787,45.741-35.339L742.711,272.084z M738.428,332.972c-12.697-5.508-18.356-2.142-17.287,10.098
		c1.226,12.238,6.732,16.368,16.677,12.238L738.428,332.972z"/>
	<path fill="#5BC0BD" d="M769.787,314.919l29.832-1.224l-0.459,62.724l-21.725-1.224L769.787,314.919z M784.625,300.232
		c-7.189,0-12.85-5.66-12.85-12.545c0-7.189,5.659-12.697,12.85-12.697c7.191,0,13.004,5.508,13.004,12.697
		C797.629,294.572,791.816,300.232,784.625,300.232z"/>
	<path fill="#FFAE3D" d="M808.336,309.871l19.889-7.038l12.851,37.176l20.192-37.48l20.5,8.107l-32.125,64.865l-19.735,0.306
		L808.336,309.871z"/>
	<path fill="#DC0325" d="M889.568,314.919l29.832-1.224l-0.459,62.724l-21.724-1.224L889.568,314.919z M904.408,300.232
		c-7.189,0-12.853-5.66-12.853-12.545c0-7.189,5.662-12.697,12.853-12.697c7.189,0,13.004,5.508,13.004,12.697
		C917.412,294.572,911.598,300.232,904.408,300.232z"/>
	<path fill="#5BC0BD" d="M929.342,302.527c47.119-7.496,64.103,17.898,50.791,76.032l-12.545,1.071l-0.766-8.72
		c-25.854,15.298-38.551,12.392-37.939-8.567c0.611-21.111,13.156-26.312,37.635-15.452c0.611-16.979-10.557-22.487-33.504-16.368
		L929.342,302.527z M947.24,356.99v5.354l12.393-2.754v-3.366L947.24,356.99z"/>
</g>
<g id="XMLID_148_">
	<g id="XMLID_151_">
		<g id="XMLID_169_">
			<g id="XMLID_170_">
				<path id="XMLID_171_" fill="#DC0325" d="M439.559,274.93c0,0-0.046,0.312-0.13,0.9c-0.055,0.301-0.073,0.667-0.084,1.109
					c-0.034,0.443-0.012,0.951,0.041,1.531c0.179,1.126,0.451,2.555,1.194,4.074c0.724,1.514,1.883,3.149,3.614,4.476
					c1.729,1.306,3.933,2.418,6.5,2.926c2.546,0.492,5.463,0.34,8.205-0.729c1.38-0.511,2.68-1.271,3.896-2.176
					c1.197-0.93,2.258-2.055,3.168-3.307c0.891-1.268,1.584-2.683,2.085-4.172c0.479-1.496,0.71-3.065,0.758-4.633
					c-0.047-1.57-0.277-3.139-0.756-4.636c-0.5-1.487-1.191-2.904-2.082-4.173c-0.91-1.255-1.969-2.379-3.168-3.31
					c-1.215-0.905-2.518-1.667-3.899-2.176c-2.738-1.077-5.661-1.23-8.208-0.736c-2.569,0.509-4.774,1.625-6.503,2.932
					c-1.734,1.324-2.894,2.963-3.618,4.479c-0.741,1.521-1.01,2.949-1.193,4.076c-0.049,0.58-0.071,1.087-0.037,1.533
					c0.011,0.44,0.031,0.808,0.086,1.108C439.513,274.614,439.559,274.93,439.559,274.93s0.078-0.307,0.223-0.879
					c0.06-0.283,0.181-0.623,0.334-1.014c0.129-0.396,0.333-0.829,0.577-1.295c0.795-1.927,2.839-4.223,5.683-5.711
					c1.427-0.745,3.138-1.154,4.889-1.151c1.763,0.021,3.541,0.466,5.14,1.268c0.799,0.416,1.524,0.963,2.208,1.554
					c0.667,0.614,1.243,1.32,1.747,2.075c0.482,0.77,0.841,1.605,1.109,2.468c0.245,0.872,0.341,1.776,0.352,2.686
					c-0.011,0.906-0.107,1.811-0.35,2.683c-0.267,0.863-0.626,1.7-1.108,2.472c-0.502,0.756-1.078,1.464-1.746,2.077
					c-0.685,0.589-1.411,1.14-2.21,1.554c-1.598,0.809-3.379,1.254-5.143,1.272c-1.752,0.003-3.463-0.411-4.893-1.157
					c-2.848-1.484-4.887-3.788-5.684-5.713c-0.244-0.467-0.448-0.902-0.575-1.297c-0.151-0.39-0.272-0.73-0.333-1.015
					C439.637,275.233,439.559,274.93,439.559,274.93z"/>
			</g>
		</g>
		<g id="XMLID_166_">
			<g id="XMLID_167_">
				<path id="XMLID_168_" fill="#DC0325" d="M493.838,284.357c0,0-0.259,0.396-0.744,1.139c-0.466,0.744-1.223,1.802-2.235,3.072
					c-1.936,2.558-5.239,5.993-9.977,8.087c-1.16,0.565-2.461,0.922-3.794,1.231c-1.358,0.235-2.767,0.408-4.232,0.365
					c-2.923-0.05-5.999-0.668-9.084-1.727c-6.167-2.163-12.336-6.016-17.769-10.718l-2.242-1.843
					c-0.78-0.661-1.646-1.224-2.464-1.835c-1.716-1.119-3.457-2.203-5.304-3.056c-3.65-1.781-7.544-2.914-11.357-3.458
					c-3.819-0.566-7.572-0.503-11.03,0.04c-3.462,0.511-6.619,1.5-9.4,2.653c-2.785,1.154-5.127,2.657-6.982,4.201
					c-1.86,1.548-3.261,3.103-4.303,4.44c-0.997,1.38-1.625,2.539-2.024,3.335c-0.371,0.806-0.569,1.237-0.569,1.237
					s0.3-0.365,0.867-1.045c0.583-0.661,1.475-1.598,2.732-2.62c2.388-2.172,6.474-4.445,11.632-5.933
					c5.156-1.552,11.583-1.736,17.979-0.376c3.19,0.729,6.396,1.823,9.403,3.409c1.524,0.754,2.954,1.703,4.371,2.663
					c0.674,0.533,1.394,1.008,2.037,1.58l2.095,1.791c6.053,5.026,13.021,9.309,20.523,11.286c3.717,1.025,7.578,1.364,11.184,0.954
					c1.805-0.185,3.531-0.627,5.148-1.139c1.598-0.59,3.108-1.232,4.432-2.055c2.69-1.58,4.683-3.609,6.121-5.536
					c1.438-1.941,2.412-3.758,3.166-5.251c0.675-1.541,1.135-2.759,1.396-3.609C493.691,284.806,493.838,284.357,493.838,284.357z"
					/>
			</g>
		</g>
		<g id="XMLID_163_">
			<g id="XMLID_164_">
				<path id="XMLID_165_" fill="#DC0325" d="M439.352,286.358c0,0-1.636,0.713-4.502,1.958c-0.715,0.331-1.448,0.782-2.267,1.265
					c-0.823,0.485-1.716,1.009-2.67,1.57c-0.958,0.564-1.854,1.337-2.86,2.093c-0.493,0.394-0.998,0.797-1.515,1.209
					c-0.468,0.468-0.938,0.956-1.416,1.462c-0.479,0.507-0.969,1.025-1.467,1.553c-0.511,0.522-0.913,1.15-1.391,1.742
					c-0.462,0.608-0.934,1.227-1.412,1.854c-0.438,0.655-0.827,1.357-1.249,2.061c-1.728,2.789-2.939,6.085-3.75,9.532
					c-0.814,3.462-1.065,7.057-1.132,10.609c-0.033,3.551,0.175,7.024,0.247,10.36c0.031,0.821,0.093,1.669,0.101,2.468l0.025,2.396
					c-0.027,1.335-0.229,2.695-0.563,4.068c-0.324,1.372-0.811,2.748-1.385,4.103c-0.563,1.357-1.222,2.695-1.939,4
					c-2.944,5.173-6.436,9.983-9.861,13.727c-3.427,3.739-6.278,7.039-8.53,9.072c-2.132,2.189-3.487,3.334-3.487,3.334
					s1.67-0.605,4.515-1.941c2.716-1.493,6.786-3.506,10.983-6.877c4.156-3.376,9.119-7.445,13.115-13.251
					c1.021-1.431,1.969-2.974,2.809-4.637c0.848-1.653,1.594-3.425,2.142-5.328c0.554-1.894,0.934-3.917,1.033-6.007l0.049-2.751
					c0.016-0.918-0.023-1.788-0.034-2.688c-0.178-3.533-0.459-6.923-0.574-10.143c-0.084-3.21-0.069-6.295,0.263-9.193
					c0.683-5.754,2.583-10.962,5.411-14.966c0.338-0.508,0.669-1.008,0.993-1.496c0.371-0.462,0.734-0.912,1.086-1.353
					c0.719-0.874,1.316-1.801,2.015-2.556c0.703-0.766,1.358-1.486,1.965-2.147c0.61-0.671,1.171-1.299,1.765-1.762
					C438.084,287.573,439.352,286.358,439.352,286.358z"/>
			</g>
		</g>
		<g id="XMLID_159_">
			<g id="XMLID_160_">
				<path id="XMLID_162_" fill="#DC0325" d="M419.921,315.939c0,0,0.023,0.346,0.068,0.995c0.035,0.33,0.172,0.717,0.295,1.203
					c0.219,0.431,0.416,1.009,0.825,1.517c0.792,1.036,2.015,2.124,3.58,3.04c1.561,0.921,3.436,1.69,5.506,2.273
					c4.138,1.159,8.988,2.161,14.015,2.957c2.495,0.441,5.058,0.86,7.41,1.477c1.168,0.307,2.267,0.688,3.123,1.119
					c0.429,0.214,0.77,0.446,0.985,0.645c0.087,0.095,0.23,0.184,0.234,0.255c0.021,0.036,0.047,0.065,0.08,0.094
					c0.013,0.029-0.001,0.058,0.012,0.079c0.01,0.033,0.042,0.007,0.058,0.083c0.014,0.074,0.033,0.147,0.054,0.22
					c0.059,0.117,0.065,0.356,0.096,0.557c0.042,0.188,0.032,0.448,0.037,0.694c0.016,0.236,0.008,0.498-0.019,0.774
					c-0.049,1.07-0.254,2.261-0.511,3.446c-0.517,2.379-1.238,4.79-1.977,7.134c-1.568,4.658-3.018,9.148-4.526,12.89
					c-1.51,3.738-2.489,7.027-3.382,9.23c-0.753,2.276-1.224,3.568-1.224,3.568s0.882-1.066,2.424-2.934
					c1.391-1.956,3.612-4.642,5.714-8.184c2.092-3.544,4.68-7.645,6.753-12.457c1.072-2.394,2.037-4.957,2.774-7.744
					c0.363-1.401,0.676-2.851,0.81-4.464c0.044-0.393,0.069-0.804,0.065-1.239c0.001-0.429,0.018-0.845-0.041-1.323
					c-0.047-0.469-0.067-0.911-0.208-1.44l-0.188-0.763c-0.065-0.255-0.22-0.57-0.341-0.851c-0.135-0.28-0.268-0.573-0.431-0.83
					c-0.172-0.244-0.352-0.484-0.536-0.721c-0.366-0.505-0.772-0.835-1.184-1.202c-0.819-0.685-1.66-1.167-2.46-1.542
					c-1.609-0.747-3.133-1.175-4.593-1.496c-2.922-0.628-5.66-0.879-8.285-1.052c-5.222-0.377-9.986-0.23-13.938-0.737
					c-1.969-0.245-3.757-0.483-5.281-0.865c-1.521-0.375-2.778-0.915-3.628-1.602c-0.49-0.29-0.79-0.675-1.125-0.98
					c-0.241-0.354-0.499-0.657-0.639-0.935C420.06,316.25,419.921,315.939,419.921,315.939z"/>
			</g>
		</g>
		<g id="XMLID_156_">
			<g id="XMLID_157_">
				<path id="XMLID_158_" fill="#5BC0BE" d="M443.978,293.689c0,0-0.538,0.073-1.473,0.201c-0.428,0.134-1.019,0.218-1.645,0.4
					c-0.619,0.189-1.313,0.432-2.004,0.793c-1.334,0.757-3.045,1.559-4.497,2.816c-1.518,1.196-2.841,2.731-4.12,4.285
					c-1.131,1.653-2.231,3.322-2.955,5.05c-0.818,1.677-1.14,3.458-1.566,4.877c-0.417,1.429-0.337,2.806-0.441,3.679
					c0.033,0.936,0.076,1.466,0.076,1.466s0.411-0.343,1.161-0.901c0.604-0.628,1.748-1.367,2.677-2.442
					c0.936-1.076,2.242-2.188,3.333-3.518c1.152-1.296,2.214-2.75,3.341-4.153c1.031-1.468,2.112-2.885,3.036-4.294
					c0.963-1.375,1.699-2.848,2.524-3.967c0.422-0.542,0.749-1.126,1.032-1.669c0.289-0.536,0.57-0.984,0.821-1.336
					C443.722,294.157,443.978,293.689,443.978,293.689z"/>
			</g>
		</g>
	</g>
</g>
<g id="XMLID_95_">
	<g id="XMLID_96_">
		<g id="XMLID_137_">
			<g id="XMLID_138_">
				<path id="XMLID_147_" fill="#5BC0BE" d="M271.892,305.061c0,0-0.447-0.274-1.23-0.755c-0.793-0.338-1.897-1.095-3.258-1.522
					c-1.36-0.415-2.92-1.139-4.623-1.524c-1.695-0.46-3.525-0.714-5.352-1.001c-1.844-0.146-3.681-0.336-5.44-0.279
					c-1.746-0.033-3.438,0.319-4.861,0.405c-1.423,0.096-2.682,0.583-3.532,0.723c-0.877,0.289-1.378,0.453-1.378,0.453
					s0.42,0.315,1.156,0.866c0.762,0.4,1.81,1.256,3.156,1.765c1.347,0.512,2.893,1.32,4.617,1.764
					c1.713,0.524,3.581,0.806,5.447,1.102c1.886,0.146,3.769,0.298,5.559,0.189c1.784-0.042,3.479-0.456,4.911-0.638
					c1.433-0.188,2.656-0.767,3.494-0.98C271.406,305.267,271.892,305.061,271.892,305.061z"/>
			</g>
		</g>
		<g id="XMLID_128_">
			<g id="XMLID_129_">
				<path id="XMLID_135_" fill="#5BC0BE" d="M321.366,312.689c0,0-1.29-0.206-3.544-0.563c-2.252-0.215-5.477-0.795-9.333-0.997
					c-3.854-0.193-8.359-0.64-13.174-0.724c-4.817-0.153-9.945-0.066-15.077,0.005c-5.126,0.217-10.253,0.403-15.053,0.826
					c-4.803,0.338-9.272,1.05-13.112,1.455c-3.837,0.412-7.023,1.181-9.259,1.517c-2.231,0.488-3.506,0.768-3.506,0.768
					s1.29,0.202,3.545,0.569c2.251,0.211,5.478,0.801,9.332,0.998c3.855,0.193,8.36,0.652,13.175,0.722
					c4.816,0.157,9.946,0.06,15.077-0.012c5.125-0.215,10.253-0.414,15.053-0.833c4.802-0.352,9.272-1.046,13.11-1.456
					c3.838-0.417,7.024-1.175,9.26-1.514C320.092,312.966,321.366,312.689,321.366,312.689z"/>
			</g>
		</g>
		<g id="XMLID_125_">
			<g id="XMLID_126_">
				<path id="XMLID_127_" fill="#DC0325" d="M293.452,271.013c0,0-0.184,0.18-0.532,0.511c-0.346,0.34-0.837,0.854-1.428,1.562
					c-1.017,1.463-2.631,3.757-3.174,7.014c-0.267,1.606-0.413,3.396-0.296,5.299c0.116,1.901,0.506,3.906,1.269,5.814
					c1.333,3.921,4.039,7.75,7.487,10.664c3.526,2.833,7.676,4.779,11.707,5.645c4.025,0.965,7.88,0.74,11.029,0.427
					c1.587-0.109,3.007-0.53,4.242-0.86c1.227-0.399,2.261-0.821,3.116-1.099c1.621-0.819,2.547-1.287,2.547-1.287
					s-1.024-0.008-2.816-0.022c-0.879,0.001-1.947-0.058-3.143-0.146c-1.206-0.16-2.528-0.241-3.956-0.436
					c-2.857-0.291-6.066-1.205-9.261-2.354c-3.174-1.225-6.363-2.847-8.967-5.105c-2.711-2.137-4.79-4.88-6.33-7.765
					c-1.594-2.88-2.593-5.821-2.721-8.517c-0.145-2.654,0.012-5.068,0.487-6.699c0.178-0.84,0.365-1.505,0.511-1.953
					C293.373,271.254,293.452,271.013,293.452,271.013z"/>
			</g>
		</g>
		<g id="XMLID_121_">
			<g id="XMLID_122_">
				<path id="XMLID_124_" fill="#DC0325" d="M323.701,262.294c0,0-0.025-0.316-0.074-0.915c-0.057-0.601-0.199-1.485-0.54-2.605
					c-0.428-1.072-1.012-2.4-2.018-3.763c-0.996-1.359-2.415-2.744-4.269-3.82c-1.844-1.082-4.063-1.963-6.572-2.379
					c-1.264-0.203-2.625-0.289-3.974-0.171c-1.359,0.092-2.736,0.356-4.089,0.808c-1.363,0.415-2.706,1.036-3.981,1.85
					c-1.281,0.8-2.489,1.828-3.509,3.085c-2.079,2.489-3.284,5.904-2.913,9.376c0.449,3.387,2.06,6.186,4.019,8.417
					c0.992,1.118,2.1,2.108,3.319,2.954c0.606,0.419,1.256,0.803,1.95,1.157c0.687,0.331,1.377,0.61,2.073,0.837
					c2.771,0.927,5.528,1.013,8.022,0.664c2.5-0.358,4.77-1.163,6.676-2.288c1.918-1.1,3.349-2.717,4.109-4.332
					c0.779-1.625,0.884-3.166,0.858-4.332c-0.104-1.19-0.397-2.048-0.598-2.618c-0.225-0.558-0.344-0.856-0.344-0.856
					s-0.001,0.315-0.006,0.911c-0.028,0.585-0.092,1.448-0.413,2.438c-0.232,0.994-0.777,2.122-1.702,3.063
					c-0.922,0.944-2.169,1.725-3.681,2.291c-3.005,1.172-7.291,0.933-10.714-0.57c-3.122-1.408-6.36-5.241-6.629-8.5
					c-0.067-0.399-0.07-0.784-0.041-1.157c-0.008-0.182,0.055-0.389,0.085-0.592c0.037-0.2,0.054-0.408,0.131-0.598
					c0.196-0.793,0.604-1.526,1.108-2.224c0.503-0.7,1.153-1.344,1.906-1.897c0.741-0.565,1.568-1.063,2.45-1.452
					c0.876-0.392,1.794-0.703,2.715-0.911c0.925-0.235,1.831-0.345,2.749-0.38c1.86-0.053,3.687,0.232,5.253,0.846
					c3.154,1.153,5.596,3.025,6.829,4.756c0.672,0.83,1.126,1.57,1.399,2.093C323.557,262.011,323.701,262.294,323.701,262.294z"/>
			</g>
		</g>
		<g id="XMLID_118_">
			<g id="XMLID_119_">
				<path id="XMLID_120_" fill="#DC0325" d="M290.223,266.672c0,0-0.589-0.028-1.694-0.08c-1.107-0.047-2.735-0.094-4.816-0.061
					c-4.123,0.228-10.156,0.523-17.125,2.444c-3.467,0.988-7.22,2.173-11.088,3.865c-1.935,0.838-3.895,1.814-5.845,2.992
					c-1.949,1.178-3.896,2.548-5.736,4.317c-0.921,0.895-1.83,1.866-2.64,3.062c-0.819,1.158-1.56,2.572-1.975,4.275
					c-0.425,1.684-0.415,3.732,0.256,5.587c0.785,2.072,2.045,3.354,3.197,4.415c2.354,1.994,4.667,3.149,6.942,4.229
					c2.277,1.052,4.53,1.93,6.76,2.772c4.487,1.588,8.896,3.005,13.045,4.55c4.107,1.538,8.132,3.207,10.914,5.242
					c1.358,1.038,2.188,2.077,2.524,2.954c0.052,0.115,0.043,0.234,0.083,0.352c0.019,0.134,0.091,0.192,0.082,0.408
					c0.006,0.37,0.063,0.731,0.021,1.125c-0.007,0.384-0.032,0.775-0.099,1.18c-0.037,0.396-0.125,0.801-0.213,1.206
					c-0.726,3.274-2.381,6.498-4.13,9.28c-3.597,5.572-7.094,10.212-9.764,13.218c-2.554,3.143-4.174,4.828-4.174,4.828
					s2.014-1.2,5.386-3.582c3.204-2.546,8.066-6.008,12.67-11.599c2.241-2.833,4.67-6.021,6.312-10.296
					c0.198-0.537,0.395-1.084,0.542-1.668c0.172-0.57,0.302-1.169,0.403-1.791c0.131-0.604,0.161-1.265,0.214-1.913
					c0.043-0.296-0.009-0.742-0.027-1.121c-0.038-0.391-0.047-0.796-0.13-1.179c-0.195-0.753-0.358-1.569-0.708-2.241
					c-0.159-0.35-0.324-0.706-0.499-1.049l-0.598-0.93c-0.822-1.236-1.796-2.204-2.79-3.106c-1.99-1.758-4.121-3.053-6.268-4.198
					c-2.153-1.137-4.343-2.102-6.542-3.003c-4.394-1.798-8.846-3.304-13.115-4.916c-2.146-0.761-4.251-1.541-6.205-2.392
					c-1.937-0.84-3.777-1.812-4.938-2.736c-0.539-0.443-0.868-0.866-0.895-0.908c-0.106-0.256-0.161-0.511-0.092-0.977
					c0.067-0.453,0.278-1.072,0.687-1.729c0.364-0.656,0.899-1.339,1.474-2.007c2.441-2.658,5.698-5.021,8.92-6.977
					c3.242-1.975,6.547-3.595,9.69-4.876c6.292-2.547,11.772-4.502,15.729-5.428c1.962-0.562,3.531-0.938,4.604-1.179
					C289.649,266.798,290.223,266.672,290.223,266.672z"/>
			</g>
		</g>
		<g id="XMLID_115_">
			<g id="XMLID_116_">
				<path id="XMLID_117_" fill="#DC0325" d="M332.84,317.291c0,0-0.709-0.044-2.036-0.123c-0.335-0.013-0.713-0.062-1.124-0.045
					c-0.412,0.015-0.864,0.032-1.351,0.054c-0.487,0.027-1.021,0.022-1.583,0.084c-0.56,0.077-1.154,0.16-1.784,0.251
					c-2.475,0.503-5.551,1.279-8.751,3.01c-3.194,1.695-6.576,4.256-9.311,7.895c-2.7,3.635-4.891,8.222-5.8,13.453
					c-0.136,0.648-0.16,1.312-0.242,1.981c-0.048,0.668-0.176,1.344-0.153,2.022c0.016,1.362-0.045,2.754,0.169,4.146
					c0.234,2.808,1.042,5.619,2.148,8.354c1.11,2.745,2.738,5.322,4.644,7.729c1.958,2.373,4.314,4.466,6.922,6.265
					c2.643,1.759,5.58,3.114,8.658,4.101c3.101,0.938,6.346,1.38,9.595,1.469c3.247-0.089,6.492-0.53,9.595-1.466
					c3.079-0.987,6.018-2.342,8.661-4.1c2.608-1.798,4.965-3.889,6.927-6.263c1.906-2.406,3.534-4.985,4.643-7.732
					c1.111-2.731,1.92-5.545,2.156-8.352c0.215-1.394,0.154-2.786,0.169-4.149c0.022-0.679-0.105-1.354-0.153-2.025
					c-0.083-0.666-0.107-1.334-0.243-1.982c-0.912-5.232-3.108-9.818-5.809-13.453c-2.731-3.644-6.116-6.204-9.312-7.897
					c-3.201-1.731-6.279-2.505-8.754-3.013c-0.629-0.088-1.225-0.171-1.786-0.249c-0.561-0.057-1.095-0.054-1.583-0.081
					c-0.488-0.021-0.938-0.036-1.351-0.053c-0.41-0.013-0.788,0.035-1.123,0.049C333.547,317.247,332.84,317.291,332.84,317.291
					s0.697,0.11,2.005,0.321c0.323,0.062,0.686,0.093,1.077,0.196c0.39,0.102,0.814,0.218,1.273,0.339
					c0.456,0.13,0.948,0.235,1.457,0.407c0.502,0.192,1.035,0.392,1.598,0.605c4.511,1.504,10.369,5.488,14.338,12.007
					c1.967,3.257,3.236,7.222,3.473,11.422c0.053,0.522-0.003,1.057,0.005,1.587c-0.026,0.531,0.033,1.065-0.053,1.599
					c-0.14,1.067-0.181,2.148-0.463,3.206c-0.372,2.145-1.18,4.226-2.114,6.249c-0.987,2.013-2.336,3.864-3.826,5.603
					c-1.547,1.703-3.355,3.186-5.31,4.471c-1.988,1.242-4.167,2.181-6.424,2.872c-2.283,0.644-4.656,0.915-7.036,0.956
					c-2.38-0.041-4.754-0.312-7.038-0.952c-2.259-0.694-4.439-1.63-6.427-2.871c-1.956-1.284-3.764-2.767-5.314-4.47
					c-1.49-1.74-2.84-3.592-3.827-5.605c-0.939-2.021-1.751-4.103-2.122-6.249c-0.283-1.06-0.324-2.142-0.464-3.208
					c-0.086-0.535-0.027-1.068-0.052-1.6c0.008-0.531-0.047-1.065,0.007-1.588c0.239-4.204,1.512-8.169,3.479-11.428
					c3.967-6.523,9.834-10.501,14.343-12.009c0.564-0.212,1.098-0.414,1.601-0.603c0.51-0.171,1.002-0.276,1.457-0.405
					c0.459-0.121,0.883-0.235,1.273-0.338c0.391-0.101,0.754-0.133,1.079-0.193C332.143,317.401,332.84,317.291,332.84,317.291z"/>
			</g>
		</g>
		<g id="XMLID_112_">
			<g id="XMLID_113_">
				<path id="XMLID_114_" fill="#DC0325" d="M235.572,317.291c0,0-0.709-0.044-2.036-0.123c-0.335-0.013-0.713-0.062-1.124-0.045
					c-0.412,0.015-0.863,0.032-1.35,0.054c-0.488,0.027-1.021,0.022-1.582,0.084c-0.561,0.077-1.155,0.16-1.785,0.251
					c-2.475,0.503-5.553,1.279-8.751,3.01c-3.194,1.695-6.578,4.256-9.312,7.895c-2.699,3.635-4.891,8.222-5.8,13.453
					c-0.137,0.648-0.161,1.312-0.242,1.981c-0.049,0.668-0.176,1.344-0.154,2.022c0.016,1.362-0.045,2.754,0.169,4.146
					c0.235,2.808,1.042,5.619,2.147,8.354c1.111,2.745,2.739,5.322,4.644,7.729c1.96,2.373,4.315,4.466,6.922,6.265
					c2.643,1.759,5.581,3.114,8.659,4.101c3.101,0.938,6.347,1.38,9.595,1.469c3.249-0.089,6.492-0.53,9.596-1.466
					c3.078-0.987,6.017-2.342,8.661-4.1c2.608-1.798,4.964-3.889,6.925-6.263c1.906-2.406,3.534-4.985,4.644-7.732
					c1.11-2.731,1.92-5.545,2.156-8.352c0.215-1.394,0.154-2.786,0.169-4.149c0.021-0.679-0.105-1.354-0.155-2.025
					c-0.082-0.666-0.105-1.334-0.242-1.982c-0.911-5.232-3.108-9.818-5.808-13.453c-2.731-3.644-6.116-6.204-9.312-7.897
					c-3.2-1.731-6.28-2.505-8.754-3.013c-0.629-0.088-1.226-0.171-1.786-0.249c-0.562-0.057-1.095-0.054-1.583-0.081
					c-0.487-0.021-0.937-0.036-1.351-0.053c-0.411-0.013-0.79,0.035-1.123,0.049C236.28,317.247,235.572,317.291,235.572,317.291
					s0.697,0.11,2.005,0.321c0.323,0.062,0.688,0.093,1.078,0.196c0.389,0.102,0.814,0.218,1.271,0.339
					c0.455,0.13,0.947,0.235,1.458,0.407c0.502,0.192,1.035,0.392,1.599,0.605c4.51,1.504,10.367,5.488,14.338,12.007
					c1.965,3.257,3.234,7.222,3.472,11.422c0.053,0.522-0.003,1.057,0.004,1.587c-0.024,0.531,0.034,1.065-0.051,1.599
					c-0.141,1.067-0.181,2.148-0.463,3.206c-0.372,2.145-1.18,4.226-2.113,6.249c-0.988,2.013-2.336,3.864-3.828,5.603
					c-1.547,1.703-3.355,3.186-5.308,4.471c-1.989,1.242-4.168,2.181-6.427,2.872c-2.28,0.644-4.653,0.915-7.035,0.956
					c-2.381-0.041-4.754-0.312-7.036-0.952c-2.26-0.694-4.439-1.63-6.429-2.871c-1.956-1.284-3.763-2.767-5.312-4.47
					c-1.492-1.74-2.841-3.592-3.828-5.605c-0.938-2.021-1.75-4.103-2.124-6.249c-0.282-1.06-0.322-2.142-0.463-3.208
					c-0.085-0.535-0.026-1.068-0.052-1.6c0.008-0.531-0.046-1.065,0.007-1.588c0.239-4.204,1.513-8.169,3.479-11.428
					c3.967-6.523,9.833-10.501,14.343-12.009c0.564-0.212,1.098-0.414,1.601-0.603c0.508-0.171,1.001-0.276,1.458-0.405
					c0.458-0.121,0.882-0.235,1.271-0.338c0.392-0.101,0.755-0.133,1.078-0.193C234.875,317.401,235.572,317.291,235.572,317.291z"
					/>
			</g>
		</g>
		<g id="XMLID_109_">
			<g id="XMLID_110_">
				<path id="XMLID_111_" fill="#5BC0BE" d="M333.537,302.461c0,0-0.337,0.057-0.892,0.105c-0.443,0.134-1.274,0.099-1.886,0.268
					c-0.599,0.196-1.459,0.164-2.105,0.377c-0.696,0.157-1.33,0.476-2.011,0.764c-0.615,0.414-1.296,0.774-1.864,1.336
					c-0.612,0.473-1.068,1.283-1.567,1.781c-0.487,0.504-0.771,1.319-1.039,1.704c-0.219,0.527-0.345,0.827-0.345,0.827
					s0.29,0.158,0.799,0.437c0.456,0.131,1.21,0.592,1.957,0.641c0.741,0.056,1.715,0.304,2.624,0.15
					c0.942-0.087,1.859-0.453,2.787-0.868c0.855-0.55,1.724-1.139,2.342-1.956c0.663-0.77,0.972-1.795,1.263-2.552
					c0.31-0.76,0.145-1.659,0.143-2.14C333.626,302.76,333.537,302.461,333.537,302.461z"/>
			</g>
		</g>
		<g id="XMLID_106_">
			<g id="XMLID_107_">
				<path id="XMLID_108_" fill="#5BC0BE" d="M315.717,313.188c0,0-0.897,0.431-2.469,1.187c-1.474,0.867-3.762,1.907-6.164,3.557
					c-2.399,1.651-5.327,3.445-8.188,5.684c-2.901,2.195-5.801,4.75-8.689,7.316c-2.778,2.683-5.553,5.367-7.95,8.084
					c-2.451,2.661-4.438,5.436-6.255,7.691c-1.82,2.251-3.005,4.438-3.973,5.829c-0.856,1.496-1.345,2.354-1.345,2.354
					s0.848-0.521,2.331-1.428c1.372-1.013,3.543-2.249,5.793-4.06c2.241-1.822,5.05-3.745,7.765-6.088
					c2.783-2.275,5.584-4.863,8.43-7.403c2.751-2.642,5.539-5.245,8.018-7.835c2.53-2.533,4.659-5.163,6.642-7.255
					c1.969-2.103,3.358-4.151,4.464-5.438C315.138,313.987,315.717,313.188,315.717,313.188z"/>
			</g>
		</g>
		<g id="XMLID_103_">
			<g id="XMLID_104_">
				<path id="XMLID_105_" fill="#5BC0BE" d="M256.986,307.98c0,0-0.564,0.48-1.55,1.322c-0.859,0.914-2.326,2.081-3.653,3.726
					c-1.316,1.651-3.049,3.469-4.556,5.609c-1.568,2.107-3.018,4.483-4.484,6.846c-1.335,2.438-2.698,4.86-3.755,7.253
					c-1.132,2.354-1.842,4.743-2.625,6.693c-0.782,1.952-1.058,3.789-1.429,4.976c-0.234,1.262-0.37,1.982-0.37,1.982
					s0.563-0.48,1.555-1.319c0.855-0.913,2.333-2.076,3.653-3.725c1.318-1.651,3.062-3.462,4.556-5.611
					c1.572-2.106,3.012-4.482,4.479-6.847c1.335-2.438,2.689-4.864,3.75-7.257c1.121-2.359,1.841-4.745,2.626-6.693
					c0.776-1.954,1.061-3.789,1.427-4.976C256.849,308.702,256.986,307.98,256.986,307.98z"/>
			</g>
		</g>
		<g id="XMLID_100_">
			<g id="XMLID_101_">
				<path id="XMLID_102_" fill="#5BC0BE" d="M290.155,271.457c0,0-0.681-0.021-1.875-0.058c-1.147,0.102-2.888,0.006-4.802,0.396
					c-1.913,0.389-4.223,0.694-6.546,1.42c-2.348,0.672-4.737,1.668-7.113,2.692c-2.305,1.167-4.604,2.351-6.611,3.721
					c-2.043,1.303-3.733,2.882-5.245,4.095c-1.519,1.209-2.531,2.604-3.336,3.41c-0.719,0.938-1.131,1.473-1.131,1.473
					s0.671-0.121,1.847-0.331c1.09-0.338,2.798-0.559,4.586-1.216c1.785-0.675,3.997-1.2,6.159-2.103
					c2.211-0.818,4.458-1.876,6.739-2.869c2.224-1.114,4.472-2.169,6.512-3.337c2.072-1.092,3.884-2.435,5.542-3.37
					c1.645-0.957,2.898-2.11,3.851-2.731C289.637,271.889,290.155,271.457,290.155,271.457z"/>
			</g>
		</g>
		<g id="XMLID_97_">
			<g id="XMLID_98_">
				<path id="XMLID_99_" fill="#5BC0BE" d="M335.922,348.155c0,0,0.038-0.633,0.102-1.744c-0.077-1.061,0.077-2.668-0.212-4.434
					c-0.299-1.764-0.435-3.892-0.962-6.045c-0.459-2.175-1.192-4.412-1.906-6.655c-0.855-2.197-1.684-4.4-2.699-6.387
					c-0.933-2.013-2.183-3.765-3.062-5.329c-0.882-1.566-2.026-2.731-2.633-3.611c-0.755-0.832-1.186-1.308-1.186-1.308
					s-0.035,0.634-0.104,1.745c0.079,1.06-0.084,2.671,0.211,4.434c0.299,1.765,0.422,3.898,0.96,6.046
					c0.456,2.176,1.198,4.41,1.913,6.653c0.856,2.195,1.693,4.396,2.706,6.384c0.946,2.01,2.183,3.765,3.062,5.332
					c0.889,1.562,2.024,2.729,2.636,3.609C335.496,347.68,335.922,348.155,335.922,348.155z"/>
			</g>
		</g>
	</g>
</g>
<g id="XMLID_67_">
	<g id="XMLID_92_">
		<g id="XMLID_93_">
			<path id="XMLID_94_" fill="#DC0325" d="M101.86,318.431c0,0-0.658,0.389-1.807,1.067c-0.579,0.279-1.243,0.735-1.999,1.191
				c-0.738,0.517-1.578,1.021-2.47,1.583c-1.819,1.057-3.689,2.65-5.657,4.251c-1.939,1.654-3.965,3.44-5.811,5.443
				c-1.954,1.896-3.708,4.014-5.412,6.002c-1.644,2.024-3.374,3.873-4.614,5.643c-1.243,1.757-2.565,3.14-3.289,4.222
				c-0.863,1.022-1.313,1.653-1.313,1.653s-0.004-0.776,0.089-2.151c0.233-1.312,0.362-3.324,1.144-5.5
				c0.772-2.164,1.614-4.798,3.104-7.313c1.404-2.569,3.334-5.059,5.485-7.362c2.243-2.208,4.716-4.228,7.327-5.646
				c2.575-1.485,5.292-2.223,7.531-2.801c1.115-0.319,2.205-0.39,3.143-0.464c0.942-0.016,1.763-0.027,2.438-0.036
				C101.092,318.352,101.86,318.431,101.86,318.431z"/>
		</g>
	</g>
	<g id="XMLID_89_">
		<g id="XMLID_90_">
			<path id="XMLID_91_" fill="#DC0325" d="M131.362,317.64c0,0,0.044,0.312,0.126,0.9c0.055,0.299,0.072,0.667,0.082,1.107
				c0.032,0.445,0.011,0.953-0.04,1.531c-0.175,1.129-0.437,2.556-1.154,4.075c-0.701,1.515-1.821,3.15-3.495,4.476
				c-1.671,1.307-3.801,2.419-6.284,2.928c-2.461,0.49-5.281,0.34-7.931-0.732c-1.334-0.509-2.592-1.268-3.767-2.174
				c-1.159-0.931-2.185-2.054-3.064-3.307c-0.861-1.268-1.53-2.685-2.015-4.171c-0.463-1.497-0.686-3.065-0.733-4.634
				c0.047-1.571,0.27-3.139,0.731-4.638c0.485-1.485,1.152-2.902,2.014-4.17c0.879-1.255,1.905-2.38,3.063-3.311
				c1.175-0.906,2.434-1.667,3.769-2.174c2.648-1.079,5.473-1.232,7.936-0.738c2.483,0.509,4.613,1.626,6.285,2.933
				c1.677,1.323,2.798,2.961,3.498,4.478c0.717,1.52,0.977,2.949,1.154,4.076c0.048,0.58,0.069,1.088,0.036,1.534
				c-0.01,0.44-0.029,0.809-0.084,1.107C131.407,317.326,131.362,317.64,131.362,317.64s-0.075-0.306-0.215-0.879
				c-0.058-0.283-0.175-0.624-0.323-1.015c-0.124-0.394-0.322-0.828-0.559-1.294c-0.767-1.927-2.744-4.222-5.493-5.709
				c-1.38-0.748-3.034-1.156-4.726-1.151c-1.704,0.022-3.424,0.464-4.969,1.267c-0.773,0.414-1.474,0.964-2.135,1.553
				c-0.645,0.614-1.204,1.321-1.688,2.074c-0.466,0.77-0.814,1.607-1.074,2.469c-0.237,0.872-0.33,1.776-0.341,2.686
				c0.011,0.907,0.104,1.811,0.339,2.684c0.259,0.862,0.606,1.699,1.072,2.469c0.484,0.757,1.042,1.464,1.688,2.079
				c0.66,0.59,1.362,1.141,2.137,1.554c1.543,0.81,3.267,1.254,4.971,1.273c1.695,0.001,3.349-0.41,4.73-1.158
				c2.753-1.484,4.725-3.787,5.495-5.713c0.236-0.467,0.432-0.901,0.556-1.295c0.145-0.391,0.264-0.732,0.32-1.017
				C131.288,317.944,131.362,317.64,131.362,317.64z"/>
		</g>
	</g>
	<g id="XMLID_86_">
		<g id="XMLID_87_">
			<path id="XMLID_88_" fill="#5BC0BE" d="M11.457,350.058c0,0,0.737-0.035,2.117-0.102c1.383-0.034,3.437-0.042,6.039,0.439
				c0.323,0.073,0.655,0.145,0.995,0.217c0.336,0.098,0.679,0.194,1.03,0.297c0.715,0.182,1.424,0.464,2.182,0.725
				c1.487,0.567,3.051,1.272,4.669,1.964c3.225,1.4,6.854,2.317,11.054,2.306c1.047,0.002,2.114,0.001,3.197-0.111
				c1.091-0.042,2.163-0.242,3.255-0.4c2.163-0.426,4.251-1.126,6.331-2.186c2.076-1.039,4.285-2.515,6.954-3.718
				c2.652-1.223,5.67-2.006,8.641-2.284c2.976-0.286,5.956-0.331,9.083,0.082c3.115,0.396,6.329,1.504,9.088,2.876
				c2.767,1.365,5.041,2.642,7.47,3.328c2.42,0.707,5.027,0.966,7.732,0.969c2.703-0.003,5.31-0.263,7.729-0.973
				c2.43-0.688,4.701-1.964,7.47-3.334c2.76-1.373,5.975-2.481,9.091-2.876c3.128-0.413,6.107-0.366,9.084-0.078
				c2.972,0.277,5.991,1.062,8.643,2.281c2.67,1.204,4.879,2.679,6.954,3.717c2.078,1.062,4.164,1.763,6.328,2.186
				c1.092,0.16,2.163,0.359,3.254,0.404c1.083,0.113,2.149,0.113,3.196,0.109c4.2,0.009,7.826-0.907,11.05-2.305
				c1.62-0.693,3.184-1.397,4.671-1.965c0.76-0.26,1.468-0.544,2.183-0.724c0.351-0.102,0.696-0.2,1.031-0.296
				c0.339-0.076,0.671-0.146,0.995-0.217c2.604-0.478,4.657-0.468,6.04-0.436c1.382,0.068,2.118,0.104,2.118,0.104
				s-0.73,0.085-2.1,0.245c-1.354,0.188-3.354,0.521-5.717,1.381c-0.295,0.098-0.601,0.201-0.912,0.306
				c-0.303,0.131-0.613,0.265-0.93,0.399c-0.641,0.25-1.277,0.611-1.949,0.949c-1.329,0.73-2.726,1.615-4.299,2.556
				c-1.576,0.939-3.393,1.856-5.424,2.539c-2.029,0.713-4.259,1.111-6.563,1.31c-1.151,0.083-2.33,0.167-3.536,0.144
				c-1.201,0.042-2.446-0.075-3.714-0.158c-2.534-0.267-5.214-0.91-7.736-1.952c-2.536-1.035-4.783-2.287-7.025-3.107
				c-2.234-0.848-4.553-1.315-7.065-1.459c-2.504-0.112-5.15-0.036-7.629,0.379c-2.5,0.417-4.758,1.253-7.165,2.49
				c-2.396,1.229-5.227,2.899-8.434,3.864c-3.191,0.982-6.479,1.323-9.637,1.363c-3.158-0.04-6.447-0.381-9.638-1.363
				c-3.207-0.961-6.037-2.634-8.434-3.864c-2.407-1.24-4.666-2.075-7.166-2.496c-2.479-0.415-5.125-0.492-7.63-0.382
				c-2.513,0.142-4.833,0.608-7.068,1.454c-2.244,0.819-4.49,2.072-7.025,3.105c-2.522,1.043-5.199,1.689-7.731,1.96
				c-1.268,0.084-2.512,0.199-3.714,0.16c-1.206,0.022-2.384-0.06-3.535-0.145c-2.304-0.199-4.534-0.598-6.562-1.312
				c-2.032-0.68-3.849-1.597-5.423-2.535c-1.576-0.941-2.971-1.825-4.301-2.555c-0.671-0.339-1.308-0.7-1.947-0.952
				c-0.319-0.137-0.629-0.267-0.934-0.398c-0.311-0.104-0.615-0.208-0.911-0.307c-2.364-0.856-4.364-1.187-5.72-1.375
				C12.188,350.143,11.457,350.058,11.457,350.058z"/>
		</g>
	</g>
	<g id="XMLID_83_">
		<g id="XMLID_84_">
			<path id="XMLID_85_" fill="#5BC0BE" d="M11.457,366.687c0,0,0.737-0.037,2.117-0.103c1.383-0.034,3.437-0.041,6.039,0.441
				c0.323,0.069,0.655,0.142,0.995,0.216c0.336,0.096,0.679,0.195,1.03,0.295c0.715,0.184,1.424,0.466,2.182,0.725
				c1.487,0.57,3.051,1.273,4.669,1.967c3.225,1.398,6.854,2.316,11.054,2.302c1.047,0.005,2.114,0.004,3.197-0.107
				c1.091-0.045,2.163-0.244,3.255-0.403c2.163-0.424,4.251-1.124,6.331-2.187c2.076-1.039,4.285-2.514,6.954-3.715
				c2.652-1.221,5.67-2.006,8.641-2.284c2.976-0.287,5.956-0.334,9.083,0.083c3.115,0.394,6.329,1.502,9.088,2.873
				c2.767,1.367,5.041,2.645,7.47,3.33c2.42,0.707,5.027,0.965,7.732,0.968c2.703-0.004,5.31-0.262,7.729-0.971
				c2.43-0.689,4.701-1.965,7.47-3.334c2.76-1.373,5.975-2.481,9.091-2.877c3.128-0.413,6.107-0.366,9.084-0.078
				c2.972,0.277,5.991,1.059,8.643,2.28c2.67,1.203,4.879,2.681,6.954,3.717c2.078,1.063,4.164,1.761,6.328,2.187
				c1.092,0.162,2.163,0.358,3.254,0.405c1.083,0.108,2.149,0.11,3.196,0.105c4.2,0.012,7.826-0.904,11.05-2.302
				c1.62-0.693,3.184-1.396,4.671-1.966c0.76-0.26,1.468-0.542,2.183-0.723c0.351-0.102,0.696-0.2,1.031-0.298
				c0.339-0.071,0.671-0.146,0.995-0.215c2.604-0.479,4.657-0.47,6.04-0.437c1.382,0.067,2.118,0.104,2.118,0.104
				s-0.73,0.084-2.1,0.244c-1.354,0.19-3.354,0.521-5.717,1.379c-0.295,0.102-0.601,0.203-0.912,0.309
				c-0.303,0.131-0.613,0.263-0.93,0.397c-0.641,0.252-1.277,0.613-1.949,0.95c-1.329,0.73-2.726,1.615-4.299,2.556
				c-1.576,0.939-3.393,1.856-5.424,2.538c-2.029,0.715-4.259,1.112-6.563,1.311c-1.151,0.085-2.33,0.168-3.536,0.144
				c-1.201,0.042-2.446-0.073-3.714-0.156c-2.534-0.27-5.214-0.912-7.736-1.954c-2.536-1.035-4.783-2.287-7.025-3.107
				c-2.234-0.847-4.553-1.313-7.065-1.461c-2.504-0.108-5.15-0.034-7.629,0.381c-2.5,0.42-4.758,1.254-7.165,2.49
				c-2.396,1.229-5.227,2.9-8.434,3.865c-3.191,0.983-6.479,1.324-9.637,1.363c-3.158-0.039-6.447-0.38-9.638-1.362
				c-3.207-0.965-6.037-2.635-8.434-3.867c-2.407-1.239-4.666-2.074-7.166-2.495c-2.479-0.416-5.125-0.491-7.63-0.382
				c-2.513,0.141-4.833,0.607-7.068,1.454c-2.244,0.818-4.49,2.072-7.025,3.107c-2.522,1.041-5.199,1.688-7.731,1.958
				c-1.268,0.084-2.512,0.199-3.714,0.158c-1.206,0.026-2.384-0.058-3.535-0.143c-2.304-0.198-4.534-0.597-6.562-1.311
				c-2.032-0.682-3.849-1.597-5.423-2.535c-1.576-0.942-2.971-1.825-4.301-2.557c-0.671-0.337-1.308-0.697-1.947-0.95
				c-0.319-0.136-0.629-0.268-0.934-0.398c-0.311-0.104-0.615-0.207-0.911-0.309c-2.364-0.854-4.364-1.184-5.72-1.373
				C12.188,366.771,11.457,366.687,11.457,366.687z"/>
		</g>
	</g>
	<g id="XMLID_80_">
		<g id="XMLID_81_">
			<path id="XMLID_82_" fill="#DC0325" d="M123.34,285.827c0,0-0.341,0.212-0.98,0.61c-0.632,0.403-1.577,0.952-2.72,1.724
				c-2.303,1.507-5.394,3.95-8.467,7.245c-3.062,3.302-5.766,7.879-6.9,13.107c-0.558,2.607-0.852,5.358-0.593,8.13
				c0.245,2.764,0.921,5.532,2.028,8.118c1.025,2.619,2.506,5.068,4.322,7.17c1.807,2.106,3.855,3.968,6.085,5.458
				c4.484,2.901,9.462,4.657,13.951,5.156c4.477,0.511,8.39,0.431,11.125,0.176c2.758-0.311,4.333-0.488,4.333-0.488
				s-1.47,0.652-4.043,1.793c-2.669,0.797-6.571,2.282-11.582,2.369c-1.242-0.05-2.55,0-3.903-0.114
				c-0.677-0.072-1.365-0.146-2.066-0.22c-0.35-0.044-0.708-0.065-1.059-0.129c-0.353-0.075-0.707-0.148-1.064-0.222
				c-0.718-0.155-1.445-0.311-2.181-0.47c-0.719-0.235-1.448-0.473-2.184-0.713c-0.366-0.127-0.742-0.24-1.107-0.388
				c-0.358-0.164-0.719-0.329-1.081-0.493c-0.717-0.349-1.472-0.645-2.169-1.067c-5.726-3.117-10.88-8.533-13.601-15.162
				c-1.33-3.312-2.119-6.85-2.294-10.367c-0.193-3.523,0.36-7.006,1.367-10.167c0.277-0.781,0.466-1.59,0.83-2.319
				c0.342-0.735,0.681-1.465,1.016-2.184c0.366-0.701,0.801-1.354,1.196-2.013c0.202-0.326,0.403-0.65,0.604-0.972
				c0.23-0.299,0.458-0.598,0.686-0.892c0.455-0.585,0.906-1.159,1.35-1.727c0.493-0.516,0.981-1.022,1.459-1.522
				c0.916-1.032,1.973-1.835,2.913-2.672c3.916-3.219,7.874-4.577,10.463-5.615c1.358-0.408,2.439-0.654,3.16-0.854
				C122.955,285.927,123.34,285.827,123.34,285.827z"/>
		</g>
	</g>
	<g id="XMLID_68_">
		<g id="XMLID_69_">
			<path id="XMLID_70_" fill="#5BC0BE" d="M99.309,328.656c0,0-0.318,0.293-0.806,0.84c-0.523,0.401-1.13,1.271-1.894,1.908
				c-0.782,0.639-1.504,1.632-2.368,2.425c-0.833,0.854-1.79,1.637-2.695,2.518c-1.004,0.776-1.953,1.66-3.012,2.381
				c-0.994,0.779-2.21,1.312-3.106,1.927c-0.897,0.61-1.97,0.874-2.568,1.185c-0.715,0.219-1.123,0.342-1.123,0.342
				s0.036-0.429,0.098-1.183c0.181-0.661,0.221-1.787,0.684-2.821c0.466-1.029,0.864-2.396,1.678-3.575
				c0.75-1.238,1.816-2.365,2.955-3.453c1.239-0.98,2.562-1.899,3.986-2.448c1.393-0.61,2.899-0.716,4.085-0.868
				c1.208-0.146,2.309,0.242,2.988,0.373C98.93,328.47,99.309,328.656,99.309,328.656z"/>
		</g>
	</g>
</g>
</svg>
