<?xml version="1.0" encoding="utf-8"?>
<!-- Generator: Adobe Illustrator 16.0.0, SVG Export Plug-In . SVG Version: 6.00 Build 0)  -->
<!DOCTYPE svg PUBLIC "-//W3C//DTD SVG 1.1//EN" "http://www.w3.org/Graphics/SVG/1.1/DTD/svg11.dtd">
<svg version="1.1" id="Layer_1" xmlns="http://www.w3.org/2000/svg" xmlns:xlink="http://www.w3.org/1999/xlink" x="0px" y="0px"
	 width="500px" height="200px" viewBox="0 0 500 200" enable-background="new 0 0 500 200" xml:space="preserve">
<g>
	<path fill="#FFFFFF" d="M148.677,121.292l0.335,6.502c0.052,0.972-0.63,1.845-1.593,2.027c-2.746,0.509-6.53,1.125-8.897,1.125
		c-11.926,0-15.558-4.562-15.558-19.502V88.625h-4.567c-1.088,0-1.972-0.882-1.972-1.97v-6.751c0-1.088,0.884-1.958,1.972-1.958
		h4.567v-8.027c0-0.911,0.617-1.7,1.494-1.914l7.898-1.926c0.587-0.136,1.2-0.007,1.675,0.363c0.476,0.38,0.762,0.943,0.762,1.549
		v9.955h12.03c1.095,0,1.964,0.871,1.964,1.958v6.751c0,1.088-0.87,1.97-1.964,1.97h-12.03v21.158c0,7.321,0.254,9.852,5.391,9.852
		c1.892,0,4.849-0.128,6.445-0.207C147.689,119.404,148.629,120.2,148.677,121.292 M111.358,103.559
		c0,18.856-7.164,27.269-23.225,27.269c-16.142,0-23.341-8.412-23.341-27.269c0-18.575,7.2-26.861,23.341-26.861
		C103.978,76.698,111.358,85.227,111.358,103.559 M99.337,103.559c0-11.573-3.149-16.071-11.204-16.071
		c-8.349,0-11.311,4.203-11.311,16.071c0,10.766,1.801,16.592,11.311,16.592C97.494,120.15,99.337,114.068,99.337,103.559
		 M287.886,78.704c-0.368-0.482-0.944-0.759-1.557-0.759h-7.669c-0.887,0-1.664,0.598-1.898,1.457l-10.282,38.779h-0.791
		l-10.296-38.779c-0.228-0.859-1.005-1.457-1.898-1.457h-7.657c-0.612,0-1.187,0.276-1.565,0.759
		c-0.368,0.489-0.497,1.11-0.346,1.693l11.328,43.488c0.564,2.156,2.556,5.811,6.505,5.811h2.193
		c-0.188,0.723-0.391,1.506-0.612,2.172l-0.098,0.328c-0.613,2.008-1.537,5.036-7.133,5.036l-9.799-0.6
		c-0.555-0.046-1.097,0.151-1.483,0.553c-0.406,0.395-0.628,0.937-0.596,1.49l0.239,5.136c0.04,0.865,0.645,1.6,1.496,1.815
		c2.893,0.713,8.401,1.545,12.936,1.718c0.217,0.014,0.414,0.014,0.624,0.014c7.392,0,12.4-4.782,14.933-14.198
		c2.938-11.021,6.608-25.204,9.285-35.569c1.218-4.658,2.26-8.679,3.014-11.54l1.475-5.643
		C288.39,79.814,288.248,79.191,287.886,78.704 M57.586,126.937c0.265,0.605,0.208,1.306-0.148,1.866
		c-0.369,0.562-0.984,0.893-1.651,0.893h-9.175c-0.774,0-1.488-0.46-1.791-1.174L33.074,102.09
		c-5.844-0.041-10.918-0.352-13.655-0.542v26.182c0,1.087-0.873,1.968-1.96,1.968H9.253c-1.09,0-1.97-0.881-1.97-1.968V61.421
		c0-1.002,0.75-1.843,1.751-1.952c10.524-1.189,18.942-1.313,22.064-1.313c1.081,0,1.657,0.007,1.657,0.007
		c20.188,0,24.431,11.925,24.431,21.916c0,8.346-3.985,14.373-12.18,18.436L57.586,126.937z M32.716,69.545h-4.325
		c-4.827,0-7.582,0.362-8.972,0.642V90.63c2.305,0.163,6.746,0.398,12.722,0.332c7.709-0.079,12.491-4.174,12.491-10.672
		C44.632,75.094,41.503,69.545,32.716,69.545 M196.922,94.22v34.315c0,0.572-0.252,1.117-0.674,1.483
		c-0.439,0.375-1.006,0.541-1.563,0.465c-4.017-0.564-5.927-1.818-7.828-3.275c-0.077,0.031-8.964,3.619-16.902,3.619
		c-9.559,0-15.042-6.036-15.042-16.579c0-10.299,5.019-14.854,17.326-15.772l12.859-1.037v-3.117c0-3.947-2.346-6.218-6.436-6.218
		c-5.629,0-13.665,0.659-17.95,1.043c-0.535,0.056-1.08-0.113-1.485-0.472c-0.394-0.346-0.644-0.863-0.664-1.394l-0.253-6.564
		c-0.041-0.997,0.671-1.869,1.652-2.017c3.826-0.613,13.371-2.002,19.324-2.002C191.32,76.698,196.922,82.273,196.922,94.22
		 M173.683,107.28c-4.64,0.439-6.846,2.56-6.846,6.645c0,2.511,0.694,6.755,5.295,6.755c5.461,0,12.884-2.062,12.965-2.085v-11.922
		L173.683,107.28z M235.294,77.55c-5.222,0.313-10.364,3.296-13.569,5.568v-3.215c0-1.087-0.878-1.958-1.969-1.958h-7.896
		c-1.087,0-1.968,0.871-1.968,1.958v47.827c0,1.087,0.88,1.966,1.968,1.966h7.896c1.09,0,1.969-0.879,1.969-1.966V94.673
		c1.785-1.485,7.298-5.623,13.867-6.201c1.01-0.09,1.794-0.938,1.794-1.955v-7.009c0-0.545-0.219-1.058-0.625-1.424
		C236.375,77.705,235.832,77.502,235.294,77.55"/>
	<path fill="#FFAF3E" d="M362.143,146.559l-6.082,7.215l-1.895-1.639l6.285-7.007c-0.995-0.926-1.754-1.758-2.719-2.614l1.401-1.404
		c2.389,2.261,4.5,4.019,7.143,6.145l-1.21,1.549C364.101,148.048,363.111,147.322,362.143,146.559 M349.951,128.615l-9.867,5.757
		c0.354,0.689,0.738,1.502,1.167,2.168l9.889-5.779C350.655,129.893,350.381,129.43,349.951,128.615 M356.28,137.812l-5.341,4.617
		l2.719-7.914c-0.482-0.678-0.702-1.153-1.21-1.776l-9.577,6.499c0.432,0.646,0.957,1.238,1.411,1.905l5.757-3.989l-2.703,7.977
		c0.468,0.524,0.942,1.331,1.605,1.867l8.858-7.602C357.31,138.87,356.72,138.407,356.28,137.812 M369.282,151.97
		c1.561,0.843,3.079,1.729,4.786,2.536l1.019-1.693c-2.358-1.217-4.57-2.607-6.55-3.982l-6.507,9.542
		c2.467,1.635,4.72,2.996,7.251,4.458l1.052-1.685l-5.244-3.088l1.77-2.49l3.475,2.092l1.013-1.626
		c-1.118-0.611-2.283-1.318-3.498-2.069L369.282,151.97z M401.449,116.392c-8.988,0-16.33-7.372-16.33-16.34
		c0-9.029,7.342-16.364,16.33-16.364c9.046,0,16.319,7.334,16.319,16.364C417.769,109.056,410.455,116.392,401.449,116.392
		 M401.65,110.985c5.962,0,10.867-4.897,10.867-10.868c0-4.957-3.452-9.27-8.199-10.453c-0.058-0.492-0.19-2.755-0.19-2.755h-5.48
		c0,0-0.122,2.46-0.169,2.949c-4.548,1.383-7.615,5.531-7.615,10.259C390.863,106.088,395.76,110.985,401.65,110.985
		 M377.647,38.341v-0.535c-0.062-2.958,2.207-5.392,5.185-5.632c3.147-0.304,5.94,2.008,6.209,5.174v0.458
		c0,2.949-2.232,5.476-5.257,5.752C380.723,43.827,377.914,41.526,377.647,38.341 M379.739,38.138
		c0.152,2.037,1.96,3.519,3.916,3.352c1.93-0.199,3.376-1.74,3.376-3.684c0.064-0.101,0-0.21,0-0.336
		c-0.173-2.046-1.93-3.48-3.967-3.287c-1.937,0.141-3.399,1.676-3.325,3.624V38.138z M403.523,40.967
		c-0.958-0.011-1.401-0.011-2.341-0.011l2.845-5.908l2.586-5.368l2.564,0.264l1.345,5.104l1.859,6.859
		c-0.86-0.162-1.533-0.292-2.348-0.339l-0.659-2.149c-1.692-0.262-3.222-0.344-4.789-0.414L403.523,40.967z M405.425,37.076
		c1.246,0.059,2.406,0.196,3.572,0.362l-0.613-2.39l-0.771-2.463l-1.159,2.463L405.425,37.076z M394.045,31.977l1.01,9.354
		l2.455-0.259l-0.957-9.285l3.711-0.228l-0.139-2.083c-4.148,0.236-5.859,0.406-9.969,1.019l0.276,1.979L394.045,31.977z
		 M394.436,158.616L393.6,165.6l-3.356-7.658c-0.784-0.153-1.273-0.352-2.066-0.482l-2.633,11.29
		c0.817,0.221,1.594,0.305,2.435,0.455l1.411-6.936l3.4,7.728c0.769,0.115,1.646,0.356,2.538,0.337l1.264-11.664
		C395.934,158.632,395.147,158.739,394.436,158.616 M460.755,134.372l-8.386-4.615l-1.078,1.927l10.069,5.62l3.874-6.949
		l-1.729-0.925L460.755,134.372z M448.104,136.062l11.419,3.751c-0.262,0.339-0.477,0.662-0.72,1.005
		c-0.194,0.257-0.436,0.515-0.593,0.854l-2-0.719l-3.117,3.891l1.141,1.783c-0.468,0.53-0.99,1.104-1.583,1.692l-4.526-7.501
		l-1.672-2.762L448.104,136.062z M449.406,138.68l1.354,2.139l1.237,2.157l1.672-2.157l0.435-0.537L449.406,138.68z M437.407,153.94
		c0.482,0.856,0.727,1.843,0.764,2.858c0,0.789-0.166,1.594-0.497,2.333c-0.534,1.062-1.324,2.013-2.418,2.653
		c-2.685,1.563-6.151,0.628-7.783-2.131c-0.055-0.158-0.129-0.331-0.235-0.522c-0.33-0.739-0.489-1.544-0.554-2.333
		c0.064-2.035,1.057-3.907,2.882-4.966C432.284,150.292,435.802,151.215,437.407,153.94 M436.112,156.799
		c0-0.688-0.175-1.3-0.501-1.897c-0.954-1.771-3.208-2.344-4.965-1.332c-1.24,0.661-1.873,1.93-1.873,3.229
		c0.035,0.595,0.179,1.257,0.533,1.817c0.1,0.178,0.216,0.36,0.396,0.557c1.103,1.316,3.053,1.622,4.544,0.751
		c0.411-0.202,0.741-0.471,1.01-0.751C435.802,158.506,436.112,157.613,436.112,156.799 M441.624,143.152l4.754,5.123l-7.978-2.355
		c-0.662,0.505-1.106,0.686-1.696,1.193l6.938,9.33c0.596-0.461,1.208-1.021,1.766-1.495l-4.213-5.613l8.05,2.428
		c0.556-0.484,1.348-1.022,1.889-1.706l-8.029-8.493C442.676,142.027,442.183,142.636,441.624,143.152 M492.717,100.117
		c0,1.066-0.05,2.132-0.165,2.982l-0.029,0.233l-0.253,0.128c-3.875,2.305-8.884,3.618-13.908,3.76
		c-0.12,0.633-0.664,5.174-0.761,5.811c4.688,1.354,9.229,3.911,12.398,7.186l0.125,0.204v0.206
		c-0.245,1.788-0.878,4.186-1.584,5.741l-0.076,0.245l-0.226,0.035c-4.393,1.264-9.571,1.218-14.361,0.032
		c-0.231,0.595-1.998,4.812-2.179,5.428c4.195,2.649,7.909,6.297,9.995,10.189l0.113,0.217l-0.072,0.23
		c-0.65,1.548-1.878,3.788-2.981,5.135l-0.116,0.203h-0.275c-4.484,0.05-9.488-1.279-13.865-3.712
		c-0.399,0.521-3.315,4.374-3.712,4.896c3.442,3.546,6.058,8.044,7.116,12.48l0.064,0.233l-0.123,0.159
		c-1.001,1.362-2.841,3.153-4.179,4.235l-0.158,0.138l-0.322-0.066c-4.322-1.153-8.88-3.763-12.423-7.188
		c-0.527,0.397-4.142,3.226-4.683,3.623c2.315,4.247,3.725,9.128,3.725,13.541v0.612l-0.267,0.15
		c-1.337,1.074-3.559,2.358-5.14,3.005l-0.158,0.069l-0.264-0.086c-3.886-2.262-7.604-5.952-10.151-10.177
		c-0.607,0.269-5.016,2.154-5.614,2.42c0.599,2.35,0.956,4.816,1.023,7.251c0,2.459-0.425,4.92-1.023,7.137l-0.035,0.223
		l-0.233,0.131c-1.473,0.61-3.961,1.224-5.694,1.526l-0.267,0.035l-0.147-0.179c-3.345-3.185-5.906-7.706-7.252-12.438
		c-0.599,0.046-5.16,0.666-5.801,0.798c-0.079,4.956-1.439,9.983-3.803,13.883l-0.122,0.204l-0.271,0.036
		c-1.588,0.238-4.123,0.238-5.852,0l-0.207-0.036l-0.159-0.204c-2.283-3.899-3.652-8.927-3.759-13.883
		c-0.678-0.063-5.488-0.753-6.155-0.798c-1.314,4.699-3.899,9.203-7.154,12.415l-0.172,0.166l-0.268-0.039
		c-1.786-0.264-4.134-0.946-5.703-1.597l-0.19-0.093l-0.077-0.201c-0.661-2.211-1.008-4.7-1.008-7.159
		c0-2.412,0.347-4.829,0.957-7.18c-0.61-0.267-4.774-1.952-5.371-2.223c-2.57,4.299-6.287,8.034-10.205,10.215l-0.209,0.115
		l-0.248-0.062c-1.622-0.728-3.763-1.956-5.145-2.99l-0.167-0.172v-0.461c0-4.471,1.357-9.385,3.689-13.687
		c-0.516-0.4-4.39-3.345-4.927-3.746c-3.551,3.425-8.074,6.007-12.444,7.128l-0.229,0.07l-0.241-0.157
		c-1.331-1.081-3.052-2.816-4.134-4.178l-0.143-0.239l0.061-0.23c1.163-4.406,3.777-8.907,7.182-12.407
		c-0.39-0.527-3.326-4.329-3.739-4.9c-4.326,2.421-9.382,3.826-13.863,3.711h-0.24l-0.152-0.156
		c-1.052-1.384-2.305-3.604-2.982-5.175l-0.1-0.237l0.1-0.208c2.262-3.953,5.95-7.597,10.162-10.125
		c-0.274-0.649-2.067-4.897-2.377-5.496c-4.782,1.197-9.988,1.225-14.372,0l-0.211-0.067l-0.129-0.195
		c-0.597-1.481-1.243-3.963-1.512-5.714l-0.049-0.274l0.159-0.208c3.186-3.247,7.665-5.816,12.457-7.239
		c-0.054-0.668-0.754-5.501-0.823-6.165c-5.006-0.066-10.036-1.359-13.946-3.687l-0.2-0.129l-0.013-0.267
		c-0.116-0.812-0.146-1.874-0.146-2.946c0-1.051,0.029-2.081,0.146-2.957l0.013-0.271l0.2-0.107c3.91-2.308,8.94-3.643,13.946-3.715
		c0.1-0.661,0.695-5.354,0.77-5.989c-4.738-1.361-9.262-3.953-12.473-7.19l-0.137-0.158l0.047-0.251
		c0.208-1.807,0.889-4.218,1.561-5.719l0.07-0.218l0.238-0.067c4.324-1.274,9.557-1.238,14.367-0.058
		c0.266-0.587,2.022-4.819,2.291-5.453c-4.251-2.571-7.98-6.224-10.195-10.171l-0.112-0.25l0.112-0.239
		c0.694-1.583,1.947-3.729,2.933-5.075l0.16-0.204h0.274c4.537-0.063,9.541,1.324,13.859,3.718c0.407-0.484,3.353-4.471,3.755-5.001
		c-3.427-3.568-6.021-8.044-7.144-12.477l-0.047-0.19l0.098-0.196c1.094-1.376,2.908-3.16,4.242-4.207l0.206-0.133l0.203,0.042
		c4.466,1.139,8.964,3.793,12.464,7.201c0.51-0.406,4.019-3.109,4.54-3.503c-2.413-4.225-3.763-9.145-3.763-13.518v-0.659
		l0.219-0.154c1.318-1.031,3.544-2.305,5.128-2.951l0.17-0.104l0.262,0.113c3.911,2.21,7.588,5.907,10.156,10.14
		c0.61-0.232,5.179-2.211,5.804-2.463c-0.599-2.354-0.972-4.804-0.936-7.224c0-2.518,0.311-4.919,0.973-7.127l0.03-0.277
		l0.235-0.063c1.475-0.616,3.929-1.276,5.65-1.541l0.276-0.033l0.202,0.173c3.255,3.164,5.847,7.695,7.212,12.469
		c0.666-0.066,5.462-0.672,6.103-0.785c0.101-4.918,1.447-9.944,3.795-13.849l0.109-0.208l0.241-0.065
		c1.716-0.205,4.245-0.205,5.907,0l0.221,0.065l0.141,0.208c2.357,3.905,3.729,8.93,3.729,13.804
		c0.721,0.158,5.397,0.764,6.071,0.83c1.396-4.775,3.968-9.274,7.244-12.448l0.145-0.162l0.224,0.066
		c1.778,0.199,4.199,0.859,5.748,1.538l0.193,0.078l0.072,0.269c0.669,2.191,0.994,4.576,0.994,7.058
		c-0.044,2.445-0.4,4.907-0.994,7.275c0.594,0.244,5.148,2.146,5.783,2.412c2.521-4.233,6.153-7.9,10.104-10.14l0.228-0.113
		l0.233,0.104c1.567,0.667,3.757,1.92,5.104,2.982l0.198,0.123v0.616c0,4.482-1.391,9.384-3.734,13.561
		c0.504,0.395,4.267,3.334,4.829,3.768c3.543-3.442,8.046-6.077,12.479-7.164l0.196-0.111l0.198,0.209
		c1.336,0.989,3.138,2.862,4.159,4.208l0.188,0.196l-0.08,0.229c-1.129,4.434-3.799,8.937-7.205,12.458
		c0.399,0.542,3.227,4.269,3.662,4.808c4.414-2.372,9.4-3.731,13.928-3.65h0.201l0.152,0.198c1.097,1.406,2.354,3.582,2.966,5.073
		l0.151,0.292l-0.151,0.214c-2.246,3.917-5.934,7.543-10.171,10.129c0.255,0.641,1.976,4.893,2.308,5.486
		c4.745-1.193,9.974-1.22,14.299,0l0.257,0.052l0.097,0.25c0.604,1.505,1.308,3.946,1.536,5.741l0.036,0.222l-0.177,0.176
		c-3.179,3.289-7.698,5.868-12.455,7.208c0.098,0.657,0.691,5.295,0.8,5.957c5.005,0.104,9.994,1.443,13.87,3.741l0.252,0.148
		l0.03,0.235C492.667,97.996,492.717,99.026,492.717,100.117 M355.69,46.909l7.489,8.346c1.048,1.124,2.202,0.988,3.716-0.196
		c9.463-7.425,21.611-11.817,34.554-11.817c12.956,0,25.106,4.372,34.663,11.817c1.496,1.104,2.612,1.319,3.714,0.196l7.495-8.346
		c0.845-0.922,0.845-2.193-0.779-3.554c-12.566-9.786-28.074-15.823-45.121-15.823c-16.952,0-32.682,6.037-45.026,15.868
		C354.782,44.716,354.851,45.987,355.69,46.909 M356.198,82.002c-0.825-0.535-1.704-1.143-2.424-0.823
		c-0.592,0.178-1.016,0.79-1.326,1.789c-3.507,12.054-3.507,22.277,0,34.17c0.241,0.774,0.508,1.549,1.21,1.744
		c0.58,0.24,1.43,0,2.54-0.769l23.191-15.795c0.857-0.579,1.383-1.405,1.383-2.231c0-0.896-0.526-1.688-1.383-2.294L356.198,82.002z
		 M361.271,68.178c0.107,0.846,1.068,1.281,1.908,1.676l25.274,12.274c1.006,0.48,1.941,0.48,2.705,0.085
		c0.71-0.464,1.17-1.276,1.231-2.349l2.047-28.039c0.106-1.352-0.081-2.146-0.571-2.562c-0.532-0.461-1.324-0.331-2.081-0.193
		c-12.119,2.914-20.941,8.033-29.642,17.106C361.436,66.971,361.112,67.64,361.271,68.178 M361.638,132.288
		c0,0.475,0.325,1.071,0.938,1.713c8.704,9.151,17.515,14.247,29.62,17.084c0.771,0.238,1.53,0.353,2.071-0.069
		c0.551-0.406,0.702-1.248,0.608-2.566c0-0.047-2.053-28.102-2.053-28.102c-0.088-1.058-0.492-1.872-1.237-2.297
		c-0.757-0.446-1.691-0.446-2.708,0.014l-25.242,12.291c-0.877,0.406-1.835,0.874-1.966,1.699
		C361.667,132.108,361.638,132.212,361.638,132.288 M401.449,118.157c9.988,0,18.12-8.115,18.12-18.105
		c0-9.992-8.132-18.116-18.12-18.151c-9.989,0-18.112,8.16-18.112,18.151C383.337,110.042,391.46,118.157,401.449,118.157
		 M409.104,150.609c0.427,0.339,1.131,0.439,2.212,0.166c12.075-2.896,20.927-8.017,29.554-17.068
		c0.519-0.597,1.082-1.21,0.912-1.89c-0.158-0.652-0.71-1.243-1.891-1.798l-25.312-12.286c-0.958-0.453-1.891-0.453-2.668-0.042
		c-0.739,0.466-1.192,1.26-1.261,2.372l-2.046,28.019C408.586,149,408.475,150.047,409.104,150.609 M446.85,117.953
		c0.752,0.486,1.627,1.079,2.412,0.803c0.54-0.163,1.003-0.75,1.301-1.815c3.543-12.005,3.543-22.269,0-34.136
		c-0.216-0.744-0.565-1.514-1.187-1.791c-0.633-0.229-1.428,0.034-2.562,0.805l-23.211,15.777c-0.897,0.605-1.354,1.432-1.354,2.28
		s0.457,1.669,1.354,2.262L446.85,117.953z M441.734,67.732c0.03-0.482-0.266-1.087-0.941-1.747
		c-8.621-9.124-17.472-14.224-29.618-17.113c-0.681-0.178-1.474-0.336-1.997,0.128c-0.549,0.435-0.703,1.276-0.592,2.532
		l2.003,28.101c0.064,1.062,0.54,1.907,1.253,2.335c0.776,0.441,1.714,0.359,2.679-0.108l25.306-12.212
		c0.808-0.39,1.729-0.823,1.908-1.686C441.734,67.91,441.765,67.839,441.734,67.732 M333.689,117.877l10.772-3.128
		c1.007-0.296,1.837-1.358,1.757-2.674c-3.867-20.06,1.045-36.32,12.806-49.355c1.188-0.848,1.313-2.59,0.179-3.78l-7.827-7.869
		c-0.765-0.869-2.146-0.869-3.331,0.34c-15.009,15.792-22.585,40.032-17.025,64.812C331.326,117.41,332.266,118.283,333.689,117.877
		 M467.571,123.642l-10.797-3.688c-0.563-0.211-2.04-0.211-2.811,1.69c-8.714,20.91-29.017,35.223-52.515,35.223
		c-23.535,0-44.204-14.641-52.552-35.547c-0.619-1.577-2.138-1.577-2.709-1.366l-10.739,3.688c-1.163,0.423-1.862,1.452-1.253,2.947
		c10.546,26.915,36.772,45.913,67.253,45.913c30.467,0,56.814-19.127,67.394-46.026
		C469.395,125.062,468.728,124.064,467.571,123.642 M455.096,51.305c-1.059-1.298-2.81-1.102-3.317-0.198l-7.803,7.834
		c-1.142,1.19-1.03,2.931,0.152,3.78c11.777,13.035,16.7,29.262,12.837,49.356c-0.083,1.313,0.744,2.377,1.769,2.673l10.785,3.128
		c1.442,0.406,2.36-0.467,2.667-1.693C477.733,91.444,470.133,67.124,455.096,51.305 M429.957,48.377l2.485-4.782l6.7-3.115
		c-0.705-0.506-1.468-0.86-2.174-1.325l-4.616,2.103l-0.851-5.013c-0.965-0.458-1.545-0.656-2.55-1.067l1.348,7.295l-2.489,4.723
		L429.957,48.377z M417.4,156.88c-3.342,0.731-5.918,1.342-9.231,1.859l0.306,1.923c1.227-0.194,2.352-0.339,3.644-0.503
		l1.672,9.275l2.463-0.465l-2-9.246c1.268-0.317,2.435-0.635,3.691-0.93L417.4,156.88z M384.554,158.506v0.626
		c-0.172,1.53-1.217,3.085-2.902,3.281l0.394,5.346c-0.782-0.176-1.661-0.435-2.495-0.789l-0.095-5.033l-2.26-0.965l-1.831,4.439
		c-0.741-0.248-1.481-0.482-2.202-0.839l2.318-5.401l0.279-0.665l1.889-4.458l5.145,1.984
		C383.941,156.441,384.468,157.459,384.554,158.506 M382.4,158.506c-0.071-0.32-0.201-0.581-0.598-0.76l-2.878-1.062l-0.651,1.823
		l-0.23,0.666l-0.021,0.043l2.626,0.979c0.72,0.315,1.415-0.321,1.667-1.022C382.4,158.977,382.474,158.739,382.4,158.506
		 M417.328,43.075c-0.918-0.265-1.599-0.38-2.61-0.666l1.866-6.365l1.359-4.536c1.971,0.489,3.84,1.127,5.709,1.735
		c1.062,0.326,1.626,1.523,1.735,2.799c0.072,1.732-0.792,3.617-2.54,4.011l0.679,5.126c-0.821-0.34-1.427-0.594-2.338-0.953
		l-0.595-4.479l-2.192-0.676L417.328,43.075z M418.906,37.076l2.57,0.83c0.706,0.2,1.636-0.901,1.636-1.862
		c0-0.454-0.159-0.865-0.777-0.996c-0.944-0.365-1.6-0.531-2.637-0.793l-0.526,1.79L418.906,37.076z M406.425,163.96l2.487,6.035
		c-0.815,0.033-1.57,0.114-2.299,0.198l-0.767-1.947l-4.974,0.137l-0.568,2.038c-0.795-0.068-1.538-0.09-2.327-0.09l2.147-6.371
		l1.526-4.828l0.073-0.155l2.537-0.116l0.126,0.312L406.425,163.96z M404.92,166.157l-0.893-2.197l-0.899-2.372l-0.777,2.372
		l-0.771,2.345L404.92,166.157z M420.121,155.914l3.806,10.857c0.734-0.26,1.533-0.483,2.283-0.814l-3.688-10.804
		C421.507,155.499,421.042,155.636,420.121,155.914 M364.937,41.424l-0.635-1.144c1.672-1.059,3.473-1.981,5.2-2.906
		c2.045-1.129,4.926,1.6,4.725,4.049c-0.039,0.43-0.158,0.827-0.417,1.221l4.173,3.036c-0.788,0.369-1.38,0.682-2.322,1.094
		l-3.651-2.673l-2.017,1.081l2.146,3.55c-0.83,0.531-1.336,0.858-2.312,1.429L364.937,41.424z M367.453,40.886l0.321,0.538
		l1.158,2.009l2.415-1.264c0.224-0.115,0.352-0.396,0.396-0.746c0.05-1.088-0.742-2.564-1.884-1.875
		C368.969,40.015,368.422,40.336,367.453,40.886"/>
</g>
</svg>
