<?xml version="1.0" encoding="utf-8"?>
<!-- Generator: Adobe Illustrator 16.0.0, SVG Export Plug-In . SVG Version: 6.00 Build 0)  -->
<!DOCTYPE svg PUBLIC "-//W3C//DTD SVG 1.1//EN" "http://www.w3.org/Graphics/SVG/1.1/DTD/svg11.dtd">
<svg version="1.1" id="Layer_1" xmlns="http://www.w3.org/2000/svg" xmlns:xlink="http://www.w3.org/1999/xlink" x="0px" y="0px"
	 width="1000px" height="300px" viewBox="0 0 1000 300" enable-background="new 0 0 1000 300" xml:space="preserve">
<g id="XMLID_148_">
	<g id="XMLID_151_">
		<g id="XMLID_169_">
			<g id="XMLID_170_">
				<path id="XMLID_171_" fill="#DC0325" d="M889.486,70.718c0,0-0.093,0.651-0.27,1.873c-0.115,0.621-0.153,1.385-0.176,2.301
					c-0.07,0.923-0.023,1.978,0.084,3.18c0.375,2.341,0.937,5.307,2.479,8.46c1.504,3.144,3.909,6.542,7.507,9.295
					c3.588,2.712,8.167,5.023,13.496,6.079c5.287,1.019,11.348,0.706,17.041-1.518c2.865-1.058,5.566-2.639,8.089-4.517
					c2.488-1.93,4.691-4.267,6.582-6.867c1.851-2.633,3.288-5.572,4.328-8.659c0.996-3.111,1.477-6.368,1.575-9.627
					c-0.099-3.259-0.578-6.516-1.571-9.627c-1.04-3.088-2.476-6.03-4.324-8.665c-1.888-2.604-4.09-4.941-6.58-6.873
					c-2.523-1.881-5.226-3.462-8.095-4.517c-5.688-2.238-11.758-2.555-17.046-1.529c-5.335,1.057-9.913,3.376-13.503,6.089
					c-3.603,2.75-6.011,6.149-7.515,9.298c-1.539,3.158-2.099,6.125-2.478,8.466c-0.104,1.204-0.146,2.257-0.078,3.182
					c0.024,0.917,0.064,1.68,0.181,2.303C889.391,70.065,889.486,70.718,889.486,70.718s0.162-0.635,0.464-1.823
					c0.122-0.589,0.377-1.295,0.693-2.106c0.267-0.819,0.691-1.72,1.198-2.688c1.652-4.001,5.896-8.768,11.803-11.856
					c2.963-1.552,6.516-2.4,10.152-2.393c3.659,0.043,7.354,0.964,10.674,2.63c1.659,0.863,3.164,2.001,4.587,3.226
					c1.386,1.275,2.582,2.744,3.626,4.311c1.001,1.599,1.746,3.334,2.305,5.125c0.508,1.809,0.707,3.688,0.732,5.574
					c-0.025,1.884-0.225,3.763-0.729,5.574c-0.556,1.792-1.301,3.529-2.301,5.13c-1.041,1.569-2.237,3.039-3.626,4.316
					c-1.422,1.225-2.928,2.365-4.591,3.226c-3.316,1.68-7.019,2.603-10.681,2.642c-3.641,0.006-7.191-0.851-10.16-2.402
					c-5.915-3.083-10.147-7.865-11.804-11.864c-0.507-0.97-0.93-1.872-1.193-2.691c-0.313-0.812-0.567-1.52-0.69-2.109
					C889.648,71.351,889.486,70.718,889.486,70.718z"/>
			</g>
		</g>
		<g id="XMLID_166_">
			<g id="XMLID_167_">
				<path id="XMLID_168_" fill="#DC0325" d="M1002.207,90.299c0,0-0.537,0.821-1.543,2.363c-0.968,1.549-2.539,3.743-4.642,6.381
					c-4.021,5.311-10.881,12.444-20.72,16.797c-2.41,1.172-5.111,1.912-7.881,2.555c-2.82,0.486-5.744,0.845-8.789,0.758
					c-6.069-0.101-12.457-1.385-18.866-3.584c-12.804-4.491-25.616-12.494-36.898-22.257l-4.654-3.826
					c-1.62-1.375-3.418-2.543-5.117-3.813c-3.563-2.327-7.178-4.574-11.014-6.344c-7.582-3.702-15.667-6.054-23.587-7.183
					c-7.93-1.174-15.723-1.043-22.903,0.083c-7.19,1.059-13.747,3.114-19.523,5.511c-5.783,2.394-10.647,5.517-14.499,8.728
					c-3.863,3.211-6.771,6.441-8.937,9.217c-2.069,2.868-3.376,5.274-4.205,6.929c-0.769,1.674-1.182,2.565-1.182,2.565
					s0.625-0.754,1.802-2.168c1.209-1.373,3.062-3.317,5.672-5.442c4.96-4.509,13.444-9.228,24.157-12.318
					c10.711-3.221,24.056-3.606,37.338-0.781c6.626,1.515,13.282,3.787,19.527,7.081c3.165,1.565,6.134,3.533,9.077,5.529
					c1.4,1.106,2.893,2.091,4.228,3.282l4.351,3.72c12.572,10.438,27.043,19.327,42.622,23.436
					c7.72,2.128,15.736,2.834,23.225,1.983c3.749-0.385,7.333-1.303,10.69-2.369c3.32-1.222,6.456-2.559,9.206-4.265
					c5.586-3.281,9.723-7.494,12.711-11.495c2.985-4.033,5.009-7.804,6.574-10.906c1.4-3.198,2.356-5.729,2.9-7.492
					C1001.902,91.229,1002.207,90.299,1002.207,90.299z"/>
			</g>
		</g>
		<g id="XMLID_163_">
			<g id="XMLID_164_">
				<path id="XMLID_165_" fill="#DC0325" d="M889.058,94.453c0,0-3.4,1.48-9.351,4.068c-1.484,0.685-3.008,1.623-4.706,2.625
					c-1.712,1.005-3.564,2.095-5.544,3.259c-1.992,1.174-3.854,2.779-5.94,4.348c-1.024,0.817-2.071,1.654-3.147,2.513
					c-0.972,0.968-1.947,1.983-2.939,3.033c-0.995,1.053-2.012,2.129-3.047,3.226c-1.062,1.083-1.895,2.39-2.889,3.618
					c-0.959,1.262-1.938,2.545-2.932,3.848c-0.908,1.361-1.715,2.819-2.594,4.275c-3.587,5.794-6.103,12.64-7.787,19.801
					c-1.689,7.188-2.212,14.656-2.351,22.033c-0.066,7.371,0.363,14.586,0.513,21.515c0.062,1.705,0.193,3.464,0.209,5.123
					l0.053,4.974c-0.056,2.773-0.473,5.599-1.167,8.451c-0.675,2.849-1.684,5.707-2.876,8.52c-1.171,2.816-2.54,5.594-4.027,8.306
					c-6.116,10.742-13.366,20.729-20.479,28.504c-7.117,7.766-13.037,14.618-17.714,18.841c-4.426,4.547-7.24,6.924-7.24,6.924
					s3.469-1.257,9.377-4.03c5.64-3.1,14.094-7.281,22.808-14.283c8.632-7.01,18.939-15.46,27.238-27.516
					c2.117-2.972,4.09-6.176,5.832-9.628c1.761-3.435,3.311-7.113,4.447-11.065c1.153-3.935,1.94-8.136,2.146-12.476l0.104-5.712
					c0.031-1.906-0.053-3.716-0.076-5.58c-0.368-7.339-0.952-14.377-1.189-21.067c-0.175-6.666-0.146-13.072,0.545-19.086
					c1.42-11.952,5.366-22.767,11.237-31.083c0.702-1.057,1.392-2.095,2.063-3.109c0.771-0.958,1.523-1.892,2.256-2.807
					c1.493-1.815,2.735-3.739,4.188-5.306c1.455-1.593,2.816-3.084,4.075-4.463c1.267-1.393,2.434-2.696,3.668-3.658
					C886.424,96.974,889.058,94.453,889.058,94.453z"/>
			</g>
		</g>
		<g id="XMLID_159_">
			<g id="XMLID_160_">
				<path id="XMLID_162_" fill="#DC0325" d="M848.705,155.886c0,0,0.047,0.718,0.139,2.066c0.073,0.685,0.357,1.486,0.616,2.498
					c0.451,0.895,0.86,2.093,1.709,3.148c1.647,2.152,4.186,4.411,7.435,6.313c3.242,1.914,7.136,3.512,11.435,4.722
					c8.594,2.406,18.666,4.485,29.104,6.139c5.182,0.919,10.504,1.79,15.388,3.067c2.427,0.635,4.707,1.431,6.484,2.326
					c0.893,0.441,1.599,0.925,2.046,1.334c0.181,0.202,0.478,0.385,0.485,0.533c0.044,0.074,0.098,0.135,0.167,0.192
					c0.027,0.062-0.002,0.121,0.026,0.164c0.02,0.07,0.089,0.017,0.12,0.173c0.027,0.155,0.068,0.308,0.111,0.458
					c0.123,0.244,0.135,0.74,0.199,1.155c0.086,0.393,0.066,0.934,0.078,1.442c0.03,0.491,0.017,1.033-0.039,1.608
					c-0.104,2.224-0.527,4.693-1.06,7.152c-1.074,4.944-2.574,9.953-4.108,14.819c-3.254,9.675-6.266,18.997-9.398,26.766
					c-3.136,7.765-5.168,14.594-7.021,19.171c-1.565,4.727-2.542,7.411-2.542,7.411s1.833-2.217,5.035-6.095
					c2.887-4.059,7.5-9.639,11.866-16.994c4.344-7.359,9.718-15.876,14.023-25.871c2.228-4.971,4.23-10.289,5.762-16.082
					c0.753-2.907,1.404-5.919,1.682-9.27c0.091-0.813,0.145-1.667,0.136-2.573c0.004-0.891,0.039-1.751-0.084-2.747
					c-0.099-0.974-0.139-1.889-0.433-2.991l-0.389-1.585c-0.137-0.525-0.456-1.185-0.706-1.764c-0.282-0.583-0.56-1.192-0.894-1.728
					c-0.36-0.506-0.732-1.004-1.116-1.494c-0.76-1.049-1.604-1.733-2.458-2.495c-1.701-1.425-3.449-2.427-5.109-3.204
					c-3.34-1.551-6.504-2.439-9.538-3.11c-6.067-1.299-11.755-1.821-17.206-2.18c-10.843-0.786-20.737-0.479-28.946-1.532
					c-4.09-0.507-7.8-1.003-10.965-1.795c-3.158-0.781-5.77-1.902-7.534-3.33c-1.021-0.6-1.642-1.4-2.337-2.031
					c-0.501-0.738-1.036-1.365-1.326-1.942C848.996,156.528,848.705,155.886,848.705,155.886z"/>
			</g>
		</g>
		<g id="XMLID_156_">
			<g id="XMLID_157_">
				<path id="XMLID_158_" fill="#5BC0BE" d="M898.662,109.678c0,0-1.113,0.152-3.058,0.417c-0.89,0.279-2.114,0.452-3.414,0.833
					c-1.288,0.393-2.728,0.899-4.163,1.646c-2.77,1.569-6.322,3.239-9.341,5.848c-3.151,2.484-5.896,5.676-8.553,8.899
					c-2.35,3.436-4.633,6.901-6.138,10.49c-1.698,3.478-2.365,7.178-3.252,10.125c-0.867,2.967-0.699,5.828-0.914,7.639
					c0.068,1.944,0.154,3.043,0.154,3.043s0.855-0.712,2.412-1.87c1.255-1.302,3.629-2.839,5.559-5.071
					c1.945-2.235,4.658-4.542,6.923-7.303c2.39-2.692,4.599-5.713,6.939-8.625c2.138-3.049,4.384-5.991,6.304-8.917
					c2-2.856,3.527-5.916,5.24-8.242c0.877-1.125,1.554-2.334,2.144-3.466c0.602-1.113,1.185-2.043,1.706-2.773
					C898.133,110.649,898.662,109.678,898.662,109.678z"/>
			</g>
		</g>
	</g>
</g>
<g id="XMLID_95_">
	<g id="XMLID_96_">
		<g id="XMLID_137_">
			<g id="XMLID_138_">
				<path id="XMLID_147_" fill="#5BC0BE" d="M541.293,133.292c0,0-0.929-0.569-2.553-1.567c-1.648-0.7-3.942-2.271-6.767-3.162
					c-2.824-0.863-6.064-2.363-9.6-3.167c-3.521-0.954-7.32-1.481-11.113-2.079c-3.829-0.304-7.646-0.696-11.299-0.578
					c-3.625-0.069-7.137,0.659-10.095,0.842c-2.955,0.196-5.567,1.208-7.334,1.498c-1.823,0.601-2.862,0.942-2.862,0.942
					s0.874,0.654,2.4,1.799c1.584,0.833,3.76,2.609,6.557,3.666c2.797,1.059,6.007,2.741,9.585,3.66
					c3.557,1.089,7.438,1.674,11.313,2.289c3.917,0.304,7.827,0.619,11.545,0.395c3.704-0.089,7.226-0.95,10.199-1.327
					c2.974-0.391,5.516-1.587,7.256-2.035C540.286,133.718,541.293,133.292,541.293,133.292z"/>
			</g>
		</g>
		<g id="XMLID_128_">
			<g id="XMLID_129_">
				<path id="XMLID_135_" fill="#5BC0BE" d="M644.038,149.135c0,0-2.679-0.425-7.361-1.17c-4.677-0.446-11.375-1.651-19.381-2.071
					c-8.005-0.402-17.36-1.329-27.358-1.503c-10.002-0.317-20.654-0.135-31.31,0.012c-10.646,0.449-21.294,0.835-31.262,1.718
					c-9.972,0.7-19.256,2.174-27.228,3.021c-7.97,0.855-14.586,2.448-19.228,3.146c-4.634,1.018-7.283,1.593-7.283,1.593
					s2.679,0.425,7.364,1.185c4.674,0.438,11.373,1.662,19.378,2.072c8.006,0.401,17.362,1.355,27.36,1.5
					c10.002,0.327,20.653,0.123,31.31-0.023c10.646-0.448,21.293-0.857,31.262-1.729c9.972-0.73,19.256-2.177,27.226-3.023
					c7.971-0.869,14.587-2.44,19.23-3.146C641.391,149.71,644.038,149.135,644.038,149.135z"/>
			</g>
		</g>
		<g id="XMLID_125_">
			<g id="XMLID_126_">
				<path id="XMLID_127_" fill="#DC0325" d="M586.067,62.587c0,0-0.384,0.369-1.105,1.061c-0.718,0.702-1.737,1.77-2.966,3.244
					c-2.11,3.035-5.46,7.799-6.591,14.562c-0.552,3.34-0.856,7.058-0.615,11.007c0.242,3.946,1.052,8.11,2.634,12.075
					c2.77,8.141,8.389,16.094,15.551,22.144c7.321,5.883,15.938,9.926,24.31,11.724c8.359,2.001,16.365,1.535,22.904,0.887
					c3.294-0.23,6.244-1.103,8.807-1.788c2.548-0.833,4.698-1.706,6.472-2.281c3.364-1.7,5.29-2.674,5.29-2.674
					s-2.129-0.016-5.85-0.048c-1.825,0.004-4.043-0.119-6.526-0.303c-2.504-0.333-5.251-0.501-8.214-0.902
					c-5.935-0.607-12.599-2.5-19.232-4.892c-6.594-2.542-13.216-5.911-18.624-10.601c-5.629-4.438-9.945-10.132-13.144-16.127
					c-3.308-5.979-5.385-12.089-5.648-17.685c-0.304-5.513,0.023-10.523,1.01-13.916c0.371-1.742,0.76-3.122,1.062-4.052
					C585.902,63.087,586.067,62.587,586.067,62.587z"/>
			</g>
		</g>
		<g id="XMLID_121_">
			<g id="XMLID_122_">
				<path id="XMLID_124_" fill="#DC0325" d="M648.887,44.481c0,0-0.054-0.66-0.154-1.902c-0.12-1.25-0.413-3.087-1.122-5.412
					c-0.886-2.226-2.103-4.984-4.189-7.815c-2.065-2.823-5.015-5.697-8.865-7.933c-3.83-2.247-8.44-4.072-13.648-4.941
					c-2.626-0.42-5.451-0.597-8.253-0.353c-2.822,0.19-5.681,0.738-8.489,1.679c-2.833,0.861-5.622,2.15-8.271,3.84
					c-2.658,1.661-5.167,3.794-7.287,6.407c-4.316,5.166-6.818,12.259-6.047,19.469c0.935,7.038,4.278,12.846,8.345,17.481
					c2.062,2.323,4.362,4.378,6.894,6.132c1.259,0.871,2.608,1.67,4.051,2.406c1.427,0.688,2.862,1.266,4.307,1.738
					c5.752,1.924,11.477,2.101,16.659,1.377c5.193-0.742,9.906-2.415,13.864-4.748c3.982-2.285,6.955-5.646,8.533-8.998
					c1.617-3.372,1.837-6.574,1.782-8.997c-0.215-2.472-0.824-4.254-1.241-5.438c-0.466-1.158-0.714-1.777-0.714-1.777
					s-0.004,0.657-0.012,1.891c-0.059,1.214-0.192,3.009-0.856,5.066c-0.484,2.065-1.615,4.406-3.536,6.36
					c-1.914,1.963-4.506,3.58-7.644,4.759c-6.241,2.434-15.142,1.936-22.253-1.185c-6.483-2.924-13.206-10.882-13.766-17.651
					c-0.139-0.829-0.146-1.63-0.085-2.404c-0.016-0.377,0.115-0.81,0.178-1.226c0.076-0.417,0.111-0.849,0.274-1.242
					c0.404-1.648,1.251-3.171,2.3-4.618c1.044-1.456,2.394-2.793,3.961-3.944c1.539-1.172,3.257-2.206,5.085-3.015
					c1.821-0.813,3.726-1.46,5.639-1.892c1.919-0.488,3.802-0.714,5.709-0.786c3.862-0.113,7.657,0.479,10.91,1.751
					c6.548,2.398,11.62,6.286,14.182,9.88c1.395,1.722,2.338,3.261,2.903,4.345C648.588,43.893,648.887,44.481,648.887,44.481z"/>
			</g>
		</g>
		<g id="XMLID_118_">
			<g id="XMLID_119_">
				<path id="XMLID_120_" fill="#DC0325" d="M579.363,53.569c0,0-1.225-0.056-3.518-0.163c-2.3-0.099-5.682-0.199-10.002-0.129
					c-8.562,0.474-21.091,1.085-35.564,5.08c-7.199,2.049-14.994,4.507-23.026,8.022c-4.019,1.742-8.09,3.769-12.14,6.213
					c-4.047,2.452-8.09,5.294-11.912,8.966c-1.912,1.859-3.797,3.876-5.481,6.362c-1.701,2.406-3.239,5.342-4.101,8.879
					c-0.884,3.496-0.865,7.75,0.531,11.603c1.629,4.305,4.247,6.964,6.641,9.17c4.888,4.143,9.693,6.539,14.415,8.778
					c4.729,2.184,9.407,4.007,14.037,5.759c9.319,3.298,18.474,6.238,27.092,9.45c8.529,3.192,16.887,6.66,22.665,10.885
					c2.82,2.158,4.543,4.312,5.241,6.137c0.106,0.238,0.091,0.486,0.17,0.727c0.04,0.277,0.19,0.402,0.171,0.851
					c0.012,0.769,0.131,1.518,0.043,2.335c-0.016,0.797-0.066,1.61-0.206,2.448c-0.077,0.823-0.259,1.666-0.442,2.509
					c-1.505,6.799-4.943,13.491-8.579,19.269c-7.466,11.573-14.73,21.206-20.273,27.45c-5.304,6.526-8.668,10.029-8.668,10.029
					s4.182-2.494,11.184-7.443c6.653-5.285,16.75-12.474,26.312-24.086c4.656-5.884,9.7-12.503,13.107-21.38
					c0.414-1.119,0.821-2.25,1.128-3.464c0.356-1.183,0.626-2.426,0.834-3.718c0.274-1.257,0.333-2.626,0.444-3.975
					c0.091-0.615-0.02-1.544-0.058-2.329c-0.077-0.812-0.094-1.65-0.269-2.447c-0.407-1.563-0.746-3.258-1.473-4.654
					c-0.33-0.729-0.67-1.465-1.033-2.179l-1.243-1.93c-1.707-2.569-3.729-4.577-5.793-6.453c-4.135-3.65-8.558-6.338-13.017-8.718
					c-4.472-2.359-9.019-4.366-13.585-6.237c-9.125-3.731-18.371-6.859-27.235-10.206c-4.456-1.579-8.827-3.202-12.886-4.969
					c-4.021-1.742-7.844-3.759-10.257-5.684c-1.118-0.92-1.801-1.799-1.857-1.884c-0.22-0.531-0.334-1.059-0.192-2.027
					c0.14-0.94,0.578-2.226,1.426-3.588c0.756-1.363,1.867-2.779,3.062-4.171c5.069-5.517,11.831-10.425,18.525-14.485
					c6.732-4.1,13.596-7.464,20.122-10.128c13.069-5.287,24.449-9.347,32.667-11.268c4.074-1.17,7.331-1.948,9.561-2.448
					C578.171,53.833,579.363,53.569,579.363,53.569z"/>
			</g>
		</g>
		<g id="XMLID_115_">
			<g id="XMLID_116_">
				<path id="XMLID_117_" fill="#DC0325" d="M667.865,158.688c0,0-1.473-0.087-4.23-0.254c-0.694-0.024-1.479-0.125-2.332-0.096
					c-0.856,0.034-1.793,0.071-2.805,0.111c-1.013,0.058-2.121,0.052-3.285,0.175c-1.162,0.163-2.398,0.337-3.706,0.521
					c-5.14,1.05-11.528,2.658-18.175,6.255c-6.634,3.519-13.656,8.835-19.337,16.394c-5.605,7.55-10.155,17.072-12.045,27.934
					c-0.281,1.35-0.331,2.731-0.504,4.119c-0.099,1.386-0.364,2.789-0.317,4.201c0.034,2.826-0.094,5.719,0.35,8.608
					c0.487,5.831,2.166,11.668,4.461,17.346c2.308,5.7,5.688,11.051,9.644,16.052c4.07,4.926,8.962,9.271,14.375,13.009
					c5.489,3.65,11.59,6.467,17.98,8.519c6.441,1.948,13.18,2.864,19.927,3.047c6.744-0.183,13.482-1.099,19.926-3.043
					c6.393-2.052,12.497-4.864,17.986-8.512c5.416-3.736,10.311-8.08,14.383-13.007c3.958-5.001,7.338-10.356,9.644-16.059
					c2.306-5.675,3.986-11.516,4.478-17.348c0.445-2.892,0.318-5.784,0.35-8.612c0.049-1.412-0.218-2.816-0.318-4.205
					c-0.173-1.385-0.22-2.77-0.504-4.119c-1.895-10.866-6.455-20.388-12.063-27.938c-5.673-7.566-12.7-12.887-19.339-16.402
					c-6.646-3.596-13.041-5.2-18.181-6.256c-1.307-0.183-2.542-0.353-3.708-0.516c-1.165-0.119-2.274-0.113-3.288-0.171
					c-1.012-0.04-1.945-0.075-2.803-0.107c-0.853-0.027-1.639,0.073-2.333,0.098C669.335,158.6,667.865,158.688,667.865,158.688
					s1.447,0.234,4.163,0.671c0.672,0.127,1.427,0.192,2.24,0.404c0.807,0.214,1.688,0.452,2.643,0.706
					c0.943,0.27,1.966,0.488,3.022,0.847c1.044,0.396,2.15,0.813,3.32,1.256c9.367,3.125,21.532,11.398,29.774,24.936
					c4.083,6.763,6.72,14.996,7.212,23.719c0.108,1.086-0.007,2.195,0.012,3.297c-0.054,1.104,0.067,2.212-0.108,3.318
					c-0.292,2.217-0.376,4.464-0.962,6.659c-0.772,4.454-2.451,8.774-4.391,12.976c-2.051,4.182-4.852,8.024-7.947,11.635
					c-3.214,3.537-6.967,6.615-11.025,9.285c-4.128,2.578-8.652,4.526-13.343,5.968c-4.739,1.331-9.668,1.896-14.61,1.983
					c-4.944-0.088-9.875-0.651-14.615-1.979c-4.69-1.441-9.217-3.386-13.348-5.961c-4.06-2.667-7.815-5.747-11.033-9.283
					c-3.097-3.614-5.899-7.458-7.949-11.641c-1.949-4.2-3.633-8.521-4.404-12.976c-0.588-2.2-0.674-4.448-0.964-6.663
					c-0.178-1.111-0.057-2.218-0.107-3.323c0.016-1.101-0.098-2.213,0.013-3.299c0.498-8.728,3.142-16.963,7.225-23.727
					c8.239-13.551,20.423-21.809,29.785-24.941c1.173-0.44,2.282-0.858,3.325-1.252c1.057-0.354,2.081-0.573,3.024-0.841
					c0.955-0.254,1.836-0.488,2.646-0.702c0.811-0.21,1.566-0.275,2.238-0.402C666.416,158.923,667.865,158.688,667.865,158.688z"/>
			</g>
		</g>
		<g id="XMLID_112_">
			<g id="XMLID_113_">
				<path id="XMLID_114_" fill="#DC0325" d="M465.868,158.688c0,0-1.473-0.087-4.229-0.254c-0.696-0.024-1.479-0.125-2.333-0.096
					c-0.856,0.034-1.794,0.071-2.803,0.111c-1.014,0.058-2.121,0.052-3.286,0.175c-1.164,0.163-2.399,0.337-3.706,0.521
					c-5.139,1.05-11.532,2.658-18.175,6.255c-6.632,3.519-13.658,8.835-19.335,16.394c-5.605,7.55-10.158,17.072-12.046,27.934
					c-0.283,1.35-0.332,2.731-0.502,4.119c-0.102,1.386-0.365,2.789-0.319,4.201c0.031,2.826-0.094,5.719,0.351,8.608
					c0.486,5.831,2.164,11.668,4.46,17.346c2.307,5.7,5.687,11.051,9.642,16.052c4.072,4.926,8.963,9.271,14.375,13.009
					c5.487,3.65,11.589,6.467,17.98,8.519c6.442,1.948,13.182,2.864,19.926,3.047c6.744-0.183,13.482-1.099,19.926-3.043
					c6.394-2.052,12.496-4.864,17.988-8.512c5.415-3.736,10.31-8.08,14.381-13.007c3.96-5.001,7.338-10.356,9.645-16.059
					c2.306-5.675,3.988-11.516,4.478-17.348c0.447-2.892,0.319-5.784,0.352-8.612c0.043-1.412-0.219-2.816-0.321-4.205
					c-0.17-1.385-0.219-2.77-0.504-4.119c-1.894-10.866-6.455-20.388-12.061-27.938c-5.674-7.566-12.703-12.887-19.339-16.402
					c-6.648-3.596-13.043-5.2-18.182-6.256c-1.308-0.183-2.543-0.353-3.708-0.516c-1.165-0.119-2.274-0.113-3.287-0.171
					c-1.011-0.04-1.947-0.075-2.805-0.107c-0.854-0.027-1.639,0.073-2.332,0.098C467.339,158.6,465.868,158.688,465.868,158.688
					s1.447,0.234,4.166,0.671c0.669,0.127,1.425,0.192,2.238,0.404c0.806,0.214,1.688,0.452,2.64,0.706
					c0.945,0.27,1.968,0.488,3.026,0.847c1.042,0.396,2.151,0.813,3.321,1.256c9.367,3.125,21.527,11.398,29.774,24.936
					c4.082,6.763,6.717,14.996,7.21,23.719c0.11,1.086-0.005,2.195,0.011,3.297c-0.051,1.104,0.069,2.212-0.107,3.318
					c-0.293,2.217-0.376,4.464-0.962,6.659c-0.771,4.454-2.449,8.774-4.39,12.976c-2.052,4.182-4.853,8.024-7.949,11.635
					c-3.213,3.537-6.967,6.615-11.022,9.285c-4.129,2.578-8.654,4.526-13.345,5.968c-4.737,1.331-9.666,1.896-14.611,1.983
					c-4.945-0.088-9.874-0.651-14.612-1.979c-4.693-1.441-9.218-3.386-13.35-5.961c-4.06-2.667-7.815-5.747-11.031-9.283
					c-3.098-3.614-5.9-7.458-7.949-11.641c-1.95-4.2-3.635-8.521-4.409-12.976c-0.586-2.2-0.669-4.448-0.962-6.663
					c-0.177-1.111-0.055-2.218-0.107-3.323c0.017-1.101-0.095-2.213,0.013-3.299c0.497-8.728,3.142-16.963,7.227-23.727
					c8.238-13.551,20.419-21.809,29.785-24.941c1.17-0.44,2.279-0.858,3.323-1.252c1.058-0.354,2.082-0.573,3.027-0.841
					c0.952-0.254,1.833-0.488,2.643-0.702c0.813-0.21,1.568-0.275,2.239-0.402C464.419,158.923,465.868,158.688,465.868,158.688z"/>
			</g>
		</g>
		<g id="XMLID_109_">
			<g id="XMLID_110_">
				<path id="XMLID_111_" fill="#5BC0BE" d="M669.312,127.896c0,0-0.699,0.115-1.853,0.217c-0.918,0.278-2.646,0.206-3.915,0.555
					c-1.242,0.411-3.032,0.341-4.371,0.784c-1.447,0.327-2.761,0.986-4.176,1.588c-1.277,0.857-2.693,1.603-3.871,2.771
					c-1.272,0.982-2.219,2.665-3.254,3.7c-1.012,1.047-1.603,2.744-2.161,3.539c-0.453,1.093-0.714,1.718-0.714,1.718
					s0.602,0.329,1.657,0.905c0.947,0.273,2.516,1.229,4.066,1.333c1.539,0.113,3.562,0.63,5.447,0.313
					c1.957-0.182,3.859-0.944,5.788-1.805c1.777-1.139,3.579-2.365,4.866-4.062c1.374-1.599,2.016-3.727,2.62-5.3
					c0.644-1.577,0.302-3.444,0.298-4.444C669.497,128.517,669.312,127.896,669.312,127.896z"/>
			</g>
		</g>
		<g id="XMLID_106_">
			<g id="XMLID_107_">
				<path id="XMLID_108_" fill="#5BC0BE" d="M632.303,150.171c0,0-1.861,0.896-5.124,2.464c-3.062,1.801-7.813,3.961-12.803,7.387
					c-4.983,3.428-11.062,7.157-17.004,11.805c-6.022,4.557-12.045,9.863-18.043,15.193c-5.769,5.566-11.534,11.145-16.511,16.785
					c-5.092,5.528-9.219,11.289-12.991,15.974c-3.781,4.676-6.24,9.216-8.252,12.108c-1.776,3.106-2.793,4.884-2.793,4.884
					s1.762-1.079,4.842-2.966c2.847-2.102,7.358-4.668,12.031-8.429c4.653-3.782,10.488-7.78,16.124-12.645
					c5.779-4.723,11.598-10.097,17.507-15.373c5.714-5.487,11.504-10.891,16.649-16.27c5.255-5.262,9.676-10.725,13.792-15.064
					c4.089-4.368,6.975-8.623,9.272-11.295C631.103,151.829,632.303,150.171,632.303,150.171z"/>
			</g>
		</g>
		<g id="XMLID_103_">
			<g id="XMLID_104_">
				<path id="XMLID_105_" fill="#5BC0BE" d="M510.338,139.357c0,0-1.171,0.998-3.217,2.744c-1.784,1.896-4.83,4.32-7.587,7.74
					c-2.734,3.428-6.333,7.201-9.46,11.648c-3.256,4.376-6.267,9.308-9.311,14.215c-2.776,5.062-5.605,10.092-7.798,15.064
					c-2.353,4.884-3.826,9.849-5.454,13.898c-1.624,4.055-2.197,7.869-2.965,10.331c-0.486,2.621-0.771,4.117-0.771,4.117
					s1.171-0.997,3.231-2.736c1.777-1.897,4.843-4.313,7.585-7.737c2.735-3.43,6.357-7.188,9.461-11.651
					c3.264-4.373,6.254-9.312,9.299-14.222c2.775-5.061,5.585-10.101,7.787-15.07c2.327-4.897,3.824-9.851,5.453-13.897
					c1.612-4.059,2.202-7.867,2.964-10.333C510.054,140.853,510.338,139.357,510.338,139.357z"/>
			</g>
		</g>
		<g id="XMLID_100_">
			<g id="XMLID_101_">
				<path id="XMLID_102_" fill="#5BC0BE" d="M579.222,63.507c0,0-1.415-0.044-3.894-0.119c-2.381,0.21-5.997,0.01-9.973,0.823
					c-3.973,0.804-8.771,1.44-13.597,2.946c-4.876,1.396-9.834,3.465-14.771,5.59c-4.788,2.424-9.561,4.884-13.729,7.726
					c-4.245,2.708-7.755,5.987-10.893,8.508c-3.151,2.507-5.257,5.408-6.927,7.082c-1.494,1.944-2.349,3.055-2.349,3.055
					s1.392-0.25,3.832-0.687c2.266-0.7,5.812-1.159,9.526-2.526c3.704-1.4,8.3-2.491,12.791-4.366
					c4.59-1.696,9.255-3.896,13.992-5.958c4.618-2.313,9.288-4.503,13.524-6.928c4.302-2.269,8.066-5.058,11.508-7
					c3.418-1.986,6.021-4.38,7.996-5.674C578.147,64.406,579.222,63.507,579.222,63.507z"/>
			</g>
		</g>
		<g id="XMLID_97_">
			<g id="XMLID_98_">
				<path id="XMLID_99_" fill="#5BC0BE" d="M674.269,222.786c0,0,0.074-1.315,0.206-3.618c-0.159-2.206,0.161-5.543-0.44-9.211
					c-0.62-3.66-0.902-8.083-1.995-12.553c-0.955-4.517-2.477-9.163-3.96-13.82c-1.778-4.561-3.496-9.142-5.606-13.264
					c-1.936-4.182-4.532-7.817-6.357-11.068c-1.831-3.251-4.208-5.67-5.469-7.5c-1.568-1.724-2.461-2.714-2.461-2.714
					s-0.074,1.315-0.217,3.624c0.164,2.201-0.175,5.547,0.439,9.208c0.62,3.662,0.878,8.094,1.995,12.553
					c0.947,4.52,2.488,9.159,3.973,13.818c1.777,4.559,3.517,9.131,5.617,13.26c1.964,4.171,4.535,7.815,6.36,11.068
					c1.844,3.246,4.201,5.67,5.471,7.498C673.379,221.797,674.269,222.786,674.269,222.786z"/>
			</g>
		</g>
	</g>
</g>
<g id="XMLID_67_">
	<g id="XMLID_92_">
		<g id="XMLID_93_">
			<path id="XMLID_94_" fill="#DC0325" d="M188.19,161.059c0,0-1.364,0.808-3.752,2.218c-1.203,0.575-2.582,1.525-4.151,2.473
				c-1.533,1.074-3.276,2.118-5.13,3.284c-3.777,2.196-7.66,5.507-11.747,8.829c-4.027,3.437-8.232,7.144-12.067,11.306
				c-4.058,3.936-7.7,8.336-11.24,12.464c-3.413,4.206-7.005,8.042-9.58,11.72c-2.584,3.646-5.329,6.519-6.833,8.768
				c-1.791,2.122-2.726,3.434-2.726,3.434s-0.008-1.615,0.185-4.471c0.486-2.727,0.753-6.905,2.375-11.419
				c1.604-4.494,3.352-9.964,6.444-15.188c2.916-5.337,6.925-10.506,11.393-15.291c4.657-4.584,9.794-8.779,15.215-11.724
				c5.348-3.084,10.989-4.615,15.639-5.817c2.317-0.661,4.581-0.808,6.526-0.965c1.956-0.029,3.66-0.054,5.065-0.075
				C186.595,160.893,188.19,161.059,188.19,161.059z"/>
		</g>
	</g>
	<g id="XMLID_89_">
		<g id="XMLID_90_">
			<path id="XMLID_91_" fill="#DC0325" d="M249.457,159.413c0,0,0.09,0.652,0.262,1.872c0.113,0.621,0.148,1.385,0.169,2.301
				c0.066,0.925,0.023,1.978-0.081,3.18c-0.364,2.342-0.907,5.308-2.397,8.461c-1.455,3.146-3.781,6.542-7.257,9.296
				c-3.468,2.714-7.895,5.024-13.049,6.077c-5.11,1.022-10.968,0.707-16.47-1.518c-2.77-1.057-5.382-2.636-7.822-4.516
				c-2.407-1.931-4.536-4.266-6.363-6.866c-1.79-2.635-3.178-5.574-4.186-8.661c-0.961-3.11-1.425-6.367-1.522-9.626
				c0.097-3.26,0.558-6.518,1.519-9.627c1.007-3.088,2.392-6.028,4.182-8.665c1.826-2.603,3.956-4.941,6.361-6.874
				c2.439-1.88,5.055-3.459,7.826-4.516c5.498-2.238,11.366-2.553,16.479-1.53c5.158,1.06,9.583,3.378,13.052,6.092
				c3.482,2.748,5.812,6.149,7.264,9.297c1.49,3.157,2.031,6.124,2.397,8.464c0.1,1.205,0.142,2.26,0.073,3.185
				c-0.021,0.916-0.062,1.68-0.173,2.301C249.549,158.762,249.457,159.413,249.457,159.413s-0.156-0.633-0.447-1.821
				c-0.119-0.59-0.364-1.298-0.668-2.109c-0.26-0.816-0.671-1.718-1.162-2.688c-1.594-4.001-5.7-8.768-11.407-11.856
				c-2.867-1.552-6.302-2.401-9.815-2.391c-3.538,0.044-7.111,0.964-10.318,2.631c-1.605,0.861-3.062,2.001-4.435,3.225
				c-1.339,1.275-2.498,2.744-3.506,4.309c-0.968,1.599-1.69,3.336-2.228,5.126c-0.491,1.811-0.685,3.688-0.708,5.574
				c0.024,1.886,0.216,3.765,0.704,5.576c0.538,1.79,1.258,3.528,2.225,5.127c1.007,1.569,2.164,3.039,3.506,4.316
				c1.372,1.227,2.83,2.367,4.438,3.227c3.204,1.682,6.785,2.604,10.324,2.644c3.519,0.004,6.955-0.851,9.821-2.404
				c5.72-3.082,9.814-7.865,11.413-11.864c0.49-0.97,0.896-1.871,1.155-2.69c0.3-0.811,0.547-1.52,0.664-2.108
				C249.301,160.048,249.457,159.413,249.457,159.413z"/>
		</g>
	</g>
	<g id="XMLID_86_">
		<g id="XMLID_87_">
			<path id="XMLID_88_" fill="#5BC0BE" d="M0.451,226.737c0,0,1.529-0.073,4.397-0.213c2.871-0.069,7.136-0.083,12.541,0.916
				c0.67,0.148,1.36,0.296,2.067,0.449c0.695,0.199,1.409,0.405,2.137,0.614c1.485,0.378,2.957,0.965,4.532,1.504
				c3.09,1.183,6.334,2.645,9.696,4.083c6.698,2.905,14.231,4.81,22.956,4.782c2.175,0.008,4.39,0.007,6.64-0.224
				c2.266-0.095,4.491-0.509,6.76-0.837c4.491-0.884,8.828-2.335,13.146-4.54c4.311-2.157,8.899-5.22,14.44-7.717
				c5.509-2.538,11.775-4.165,17.946-4.744c6.179-0.595,12.367-0.69,18.862,0.169c6.47,0.823,13.143,3.125,18.872,5.973
				c5.747,2.839,10.469,5.486,15.516,6.913c5.026,1.469,10.439,2.006,16.055,2.011c5.615-0.008,11.027-0.546,16.052-2.019
				c5.048-1.431,9.765-4.081,15.514-6.924c5.73-2.851,12.406-5.15,18.877-5.972c6.496-0.857,12.682-0.762,18.866-0.163
				c6.171,0.575,12.44,2.2,17.949,4.737c5.545,2.497,10.133,5.563,14.44,7.719c4.316,2.203,8.649,3.657,13.142,4.54
				c2.267,0.332,4.491,0.746,6.758,0.839c2.249,0.23,4.463,0.233,6.638,0.225c8.721,0.021,16.251-1.883,22.949-4.785
				c3.361-1.438,6.609-2.9,9.698-4.08c1.577-0.54,3.046-1.127,4.532-1.503c0.73-0.211,1.444-0.415,2.139-0.615
				c0.706-0.152,1.396-0.305,2.067-0.448c5.407-0.994,9.672-0.977,12.545-0.905c2.868,0.142,4.396,0.215,4.396,0.215
				s-1.517,0.177-4.358,0.508c-2.815,0.395-6.966,1.082-11.874,2.866c-0.612,0.206-1.246,0.421-1.894,0.639
				c-0.629,0.27-1.273,0.546-1.934,0.826c-1.33,0.522-2.652,1.272-4.044,1.973c-2.761,1.518-5.66,3.354-8.928,5.309
				c-3.273,1.948-7.048,3.854-11.266,5.271c-4.213,1.481-8.845,2.31-13.629,2.72c-2.392,0.174-4.839,0.351-7.343,0.3
				c-2.496,0.085-5.08-0.154-7.714-0.327c-5.26-0.559-10.825-1.895-16.065-4.058c-5.268-2.148-9.933-4.749-14.588-6.452
				c-4.641-1.758-9.456-2.729-14.672-3.031c-5.2-0.228-10.696-0.073-15.842,0.79c-5.19,0.866-9.881,2.601-14.88,5.171
				c-4.975,2.551-10.854,6.022-17.513,8.023c-6.629,2.041-13.458,2.752-20.016,2.833c-6.559-0.081-13.386-0.789-20.015-2.83
				c-6.658-2-12.537-5.472-17.515-8.029c-4.998-2.571-9.69-4.31-14.879-5.181c-5.148-0.865-10.643-1.022-15.846-0.793
				c-5.218,0.293-10.036,1.262-14.679,3.019c-4.66,1.703-9.323,4.303-14.587,6.453c-5.238,2.164-10.797,3.506-16.057,4.064
				c-2.633,0.175-5.216,0.417-7.712,0.332c-2.503,0.051-4.951-0.122-7.341-0.299c-4.784-0.411-9.414-1.24-13.625-2.724
				c-4.219-1.412-7.991-3.315-11.264-5.264c-3.27-1.954-6.168-3.79-8.931-5.307c-1.393-0.7-2.716-1.452-4.045-1.975
				c-0.662-0.28-1.307-0.557-1.937-0.826c-0.648-0.218-1.277-0.433-1.893-0.641c-4.91-1.775-9.063-2.462-11.877-2.854
				C1.968,226.914,0.451,226.737,0.451,226.737z"/>
		</g>
	</g>
	<g id="XMLID_83_">
		<g id="XMLID_84_">
			<path id="XMLID_85_" fill="#5BC0BE" d="M0.451,261.27c0,0,1.529-0.073,4.397-0.212c2.871-0.069,7.136-0.084,12.541,0.916
				c0.67,0.146,1.36,0.296,2.067,0.447c0.695,0.201,1.409,0.405,2.137,0.616c1.485,0.376,2.957,0.964,4.532,1.504
				c3.09,1.182,6.334,2.644,9.696,4.082c6.698,2.905,14.231,4.811,22.956,4.781c2.175,0.008,4.39,0.007,6.64-0.224
				c2.266-0.093,4.491-0.507,6.76-0.837c4.491-0.882,8.828-2.335,13.146-4.538c4.311-2.159,8.899-5.221,14.44-7.719
				c5.509-2.538,11.775-4.164,17.946-4.744c6.179-0.595,12.367-0.688,18.862,0.169c6.47,0.824,13.143,3.125,18.872,5.973
				c5.747,2.839,10.469,5.488,15.516,6.914c5.026,1.468,10.439,2.006,16.055,2.012c5.615-0.008,11.027-0.548,16.052-2.02
				c5.048-1.431,9.765-4.08,15.514-6.923c5.73-2.851,12.406-5.151,18.877-5.973c6.496-0.858,12.682-0.763,18.866-0.164
				c6.171,0.575,12.44,2.201,17.949,4.737c5.545,2.498,10.133,5.564,14.44,7.719c4.316,2.205,8.649,3.659,13.142,4.541
				c2.267,0.331,4.491,0.746,6.758,0.839c2.249,0.229,4.463,0.232,6.638,0.225c8.721,0.02,16.251-1.883,22.949-4.784
				c3.361-1.438,6.609-2.9,9.698-4.081c1.577-0.54,3.046-1.127,4.532-1.504c0.73-0.21,1.444-0.414,2.139-0.614
				c0.706-0.153,1.396-0.304,2.067-0.449c5.407-0.993,9.672-0.977,12.545-0.904c2.868,0.142,4.396,0.215,4.396,0.215
				s-1.517,0.176-4.358,0.507c-2.815,0.395-6.966,1.084-11.874,2.867c-0.612,0.206-1.246,0.42-1.894,0.639
				c-0.629,0.27-1.273,0.545-1.934,0.827c-1.33,0.522-2.652,1.271-4.044,1.973c-2.761,1.517-5.66,3.354-8.928,5.307
				c-3.273,1.948-7.048,3.855-11.266,5.271c-4.213,1.481-8.845,2.309-13.629,2.72c-2.392,0.175-4.839,0.352-7.343,0.299
				c-2.496,0.085-5.08-0.154-7.714-0.326c-5.26-0.558-10.825-1.896-16.065-4.058c-5.268-2.148-9.933-4.748-14.588-6.453
				c-4.641-1.758-9.456-2.729-14.672-3.031c-5.2-0.228-10.696-0.073-15.842,0.79c-5.19,0.867-9.881,2.601-14.88,5.172
				c-4.975,2.551-10.854,6.022-17.513,8.024c-6.629,2.041-13.458,2.751-20.016,2.832c-6.559-0.081-13.386-0.79-20.015-2.831
				c-6.658-1.999-12.537-5.471-17.515-8.027c-4.998-2.573-9.69-4.311-14.879-5.182c-5.148-0.864-10.643-1.021-15.846-0.794
				c-5.218,0.295-10.036,1.262-14.679,3.02c-4.66,1.702-9.323,4.303-14.587,6.453c-5.238,2.164-10.797,3.505-16.057,4.064
				c-2.633,0.175-5.216,0.416-7.712,0.331c-2.503,0.051-4.951-0.121-7.341-0.298c-4.784-0.412-9.414-1.241-13.625-2.724
				c-4.219-1.412-7.991-3.316-11.264-5.265c-3.27-1.953-6.168-3.788-8.931-5.306c-1.393-0.701-2.716-1.453-4.045-1.974
				c-0.662-0.282-1.307-0.558-1.937-0.827c-0.648-0.219-1.277-0.433-1.893-0.641c-4.91-1.776-9.063-2.463-11.877-2.854
				C1.968,261.445,0.451,261.27,0.451,261.27z"/>
		</g>
	</g>
	<g id="XMLID_80_">
		<g id="XMLID_81_">
			<path id="XMLID_82_" fill="#DC0325" d="M232.798,93.35c0,0-0.707,0.44-2.035,1.266c-1.312,0.841-3.275,1.981-5.649,3.583
				c-4.782,3.128-11.2,8.202-17.583,15.048c-6.36,6.856-11.973,16.362-14.333,27.216c-1.158,5.414-1.768,11.127-1.229,16.884
				c0.509,5.745,1.914,11.489,4.21,16.859c2.131,5.439,5.204,10.525,8.975,14.892c3.753,4.372,8.005,8.238,12.637,11.332
				c9.313,6.025,19.652,9.675,28.973,10.711c9.297,1.058,17.424,0.893,23.102,0.364c5.728-0.646,9.001-1.018,9.001-1.018
				s-3.053,1.355-8.396,3.727c-5.543,1.653-13.645,4.736-24.052,4.917c-2.579-0.103-5.297,0-8.105-0.234
				c-1.406-0.151-2.835-0.303-4.289-0.459c-0.726-0.09-1.469-0.135-2.2-0.267c-0.732-0.153-1.469-0.306-2.208-0.459
				c-1.49-0.321-3-0.647-4.528-0.976c-1.495-0.488-3.007-0.981-4.535-1.482c-0.762-0.266-1.542-0.497-2.299-0.806
				c-0.745-0.339-1.495-0.68-2.247-1.021c-1.489-0.724-3.058-1.34-4.506-2.217c-11.889-6.473-22.592-17.719-28.245-31.487
				c-2.761-6.88-4.4-14.224-4.763-21.531c-0.399-7.315,0.748-14.548,2.839-21.11c0.576-1.626,0.967-3.303,1.725-4.818
				c0.709-1.527,1.414-3.039,2.108-4.535c0.761-1.456,1.665-2.812,2.483-4.18c0.42-0.678,0.838-1.349,1.253-2.017
				c0.477-0.623,0.953-1.24,1.423-1.853c0.947-1.212,1.883-2.407,2.804-3.585c1.024-1.071,2.037-2.125,3.029-3.162
				c1.903-2.145,4.099-3.809,6.048-5.549c8.133-6.685,16.353-9.506,21.729-11.662c2.82-0.847,5.066-1.359,6.562-1.773
				C231.998,93.558,232.798,93.35,232.798,93.35z"/>
		</g>
	</g>
	<g id="XMLID_68_">
		<g id="XMLID_69_">
			<path id="XMLID_70_" fill="#5BC0BE" d="M182.894,182.292c0,0-0.662,0.613-1.672,1.744c-1.089,0.835-2.348,2.639-3.934,3.964
				c-1.625,1.327-3.123,3.39-4.917,5.036c-1.731,1.773-3.717,3.398-5.597,5.228c-2.083,1.614-4.055,3.446-6.253,4.945
				c-2.066,1.616-4.59,2.724-6.453,3.998c-1.862,1.269-4.089,1.813-5.333,2.464c-1.485,0.452-2.333,0.71-2.333,0.71
				s0.075-0.895,0.206-2.461c0.374-1.372,0.458-3.708,1.419-5.856c0.968-2.137,1.793-4.971,3.484-7.423
				c1.558-2.572,3.771-4.914,6.135-7.173c2.575-2.035,5.321-3.947,8.279-5.084c2.892-1.27,6.023-1.488,8.484-1.802
				c2.51-0.305,4.793,0.503,6.205,0.773C182.106,181.908,182.894,182.292,182.894,182.292z"/>
		</g>
	</g>
</g>
</svg>
