<?xml version="1.0" encoding="utf-8"?>
<!-- Generator: Adobe Illustrator 21.1.0, SVG Export Plug-In . SVG Version: 6.00 Build 0)  -->
<svg version="1.1" id="Layer_1" xmlns="http://www.w3.org/2000/svg" xmlns:xlink="http://www.w3.org/1999/xlink" x="0px" y="0px"
	 viewBox="0 0 66 66" style="enable-background:new 0 0 66 66;" xml:space="preserve">
<g id="SOCIAL_NETW_9_">
	<g>
		<g id="Twitter_9_">
			<path d="M58,18c-1.8,0.8-3.7,1.3-5.7,1.6c2.1-1.2,3.6-3.2,4.4-5.5c-1.9,1.1-4,2-6.3,2.4c-1.8-1.9-4.4-3.1-7.2-3.1
				c-5.5,0-9.9,4.4-9.9,9.9c0,0.8,0.1,1.5,0.3,2.2c-8.2-0.4-15.5-4.3-20.4-10.3c-0.9,1.5-1.3,3.2-1.3,5c0,3.4,1.7,6.5,4.4,8.2
				c-1.6,0-3.2-0.5-4.5-1.2v0.1c0,4.8,3.4,8.8,8,9.7c-0.8,0.2-1.7,0.4-2.6,0.4c-0.6,0-1.3-0.1-1.9-0.2c1.3,3.9,4.9,6.8,9.2,6.9
				c-3.4,2.7-7.6,4.2-12.3,4.2c-0.8,0-1.6-0.1-2.4-0.1c4.4,2.8,9.6,4.4,15.2,4.4c18.2,0,28.2-15.1,28.2-28.2c0-0.4,0-0.8,0-1.3
				C55,21.8,56.7,20,58,18z"/>
		</g>
	</g>
</g>
</svg>
