<?xml version="1.0" encoding="utf-8"?>
<!-- Generator: Adobe Illustrator 16.0.0, SVG Export Plug-In . SVG Version: 6.00 Build 0)  -->
<!DOCTYPE svg PUBLIC "-//W3C//DTD SVG 1.1//EN" "http://www.w3.org/Graphics/SVG/1.1/DTD/svg11.dtd">
<svg version="1.1" id="Layer_1" xmlns="http://www.w3.org/2000/svg" xmlns:xlink="http://www.w3.org/1999/xlink" x="0px" y="0px"
	 width="24px" height="24px" viewBox="0 0 24 24" enable-background="new 0 0 24 24" xml:space="preserve">
<path fill-rule="evenodd" clip-rule="evenodd" fill="#FFAE3D" d="M12.205,21.382c-1.986,0-3.83-0.588-5.375-1.605l-3.753,1.19
	l1.218-3.594c-1.164-1.601-1.854-3.563-1.854-5.686c0-0.315,0.016-0.63,0.044-0.941C2.963,5.84,7.141,1.995,12.21,1.995
	c5.129,0,9.345,3.944,9.737,8.937c0.016,0.245,0.031,0.501,0.031,0.756C21.979,17.035,17.595,21.382,12.205,21.382L12.205,21.382z
	 M23.817,11.394C23.66,5.16,18.525,0.156,12.21,0.156c-6.25,0-11.341,4.89-11.607,11.026c-0.011,0.168-0.017,0.337-0.017,0.505
	c0,2.176,0.609,4.217,1.67,5.951l-2.1,6.19l6.435-2.046c1.665,0.914,3.58,1.437,5.619,1.437c6.412,0,11.618-5.162,11.618-11.532
	C23.828,11.589,23.823,11.492,23.817,11.394L23.817,11.394z"/>
<path fill-rule="evenodd" clip-rule="evenodd" fill="#FFAE3D" d="M17.53,14.016c-0.288-0.146-1.687-0.826-1.947-0.918
	c-0.262-0.1-0.451-0.142-0.643,0.141c-0.19,0.283-0.734,0.919-0.902,1.104c-0.164,0.191-0.333,0.213-0.615,0.071
	c-0.289-0.142-1.202-0.44-2.29-1.403c-0.849-0.746-1.42-1.67-1.589-1.953c-0.163-0.284-0.017-0.435,0.125-0.577
	c0.131-0.13,0.289-0.332,0.43-0.495c0.043-0.049,0.071-0.093,0.104-0.136c0.07-0.104,0.114-0.207,0.179-0.337
	c0.098-0.19,0.049-0.354-0.022-0.495c-0.07-0.142-0.642-1.534-0.875-2.1C9.246,6.352,9.006,6.45,8.843,6.45
	c-0.169,0-0.36-0.027-0.549-0.027c-0.19,0-0.495,0.07-0.757,0.354c-0.261,0.283-1,0.968-1,2.36c0,0.326,0.059,0.653,0.146,0.958
	c0.289,1,0.909,1.822,1.018,1.963c0.141,0.185,1.969,3.133,4.868,4.265c2.894,1.131,2.894,0.756,3.416,0.707
	c0.522-0.044,1.688-0.68,1.926-1.344c0.233-0.658,0.233-1.225,0.164-1.344C18.003,14.228,17.813,14.157,17.53,14.016L17.53,14.016z"
	/>
</svg>
